%TF.GenerationSoftware,KiCad,Pcbnew,9.0.1*%
%TF.CreationDate,2025-04-24T20:35:24+12:00*%
%TF.ProjectId,XIAO-nRF52840-spacer,5849414f-2d6e-4524-9635-323834302d73,rev?*%
%TF.SameCoordinates,Original*%
%TF.FileFunction,Drillmap*%
%TF.FilePolarity,Positive*%
%FSLAX45Y45*%
G04 Gerber Fmt 4.5, Leading zero omitted, Abs format (unit mm)*
G04 Created by KiCad (PCBNEW 9.0.1) date 2025-04-24 20:35:24*
%MOMM*%
%LPD*%
G01*
G04 APERTURE LIST*
%ADD10C,0.050000*%
%ADD11C,0.200000*%
%ADD12C,0.100000*%
G04 APERTURE END LIST*
D10*
X16738600Y-7620000D02*
G75*
G02*
X16637000Y-7518400I0J101600D01*
G01*
X16637000Y-6858000D02*
G75*
G02*
X16738600Y-6756400I101600J0D01*
G01*
X17068800Y-6527800D02*
X17068800Y-6654800D01*
X17068800Y-6527800D02*
G75*
G02*
X17170400Y-6426200I101600J0D01*
G01*
X17068800Y-6654800D02*
G75*
G02*
X16967200Y-6756400I-101600J0D01*
G01*
X16637000Y-6858000D02*
X16637000Y-7518400D01*
X16967200Y-6756400D02*
X16738600Y-6756400D01*
X18948400Y-7518400D02*
G75*
G02*
X18846800Y-7620000I-101600J0D01*
G01*
X18846800Y-6426200D02*
G75*
G02*
X18948400Y-6527800I0J-101600D01*
G01*
X17170400Y-6426200D02*
X18846800Y-6426200D01*
X18846800Y-7620000D02*
X16738600Y-7620000D01*
X18948400Y-6527800D02*
X18948400Y-7518400D01*
D11*
D12*
X18510650Y-6838900D02*
X18610650Y-6938900D01*
X18610650Y-6838900D02*
X18510650Y-6938900D01*
X18510650Y-7092900D02*
X18610650Y-7192900D01*
X18610650Y-7092900D02*
X18510650Y-7192900D01*
X18764650Y-6838900D02*
X18864650Y-6938900D01*
X18864650Y-6838900D02*
X18764650Y-6938900D01*
X18764650Y-7092900D02*
X18864650Y-7192900D01*
X18864650Y-7092900D02*
X18764650Y-7192900D01*
D11*
X16895277Y-7933984D02*
X16895277Y-7733984D01*
X16895277Y-7733984D02*
X16942896Y-7733984D01*
X16942896Y-7733984D02*
X16971467Y-7743508D01*
X16971467Y-7743508D02*
X16990515Y-7762555D01*
X16990515Y-7762555D02*
X17000039Y-7781603D01*
X17000039Y-7781603D02*
X17009563Y-7819698D01*
X17009563Y-7819698D02*
X17009563Y-7848269D01*
X17009563Y-7848269D02*
X17000039Y-7886365D01*
X17000039Y-7886365D02*
X16990515Y-7905412D01*
X16990515Y-7905412D02*
X16971467Y-7924460D01*
X16971467Y-7924460D02*
X16942896Y-7933984D01*
X16942896Y-7933984D02*
X16895277Y-7933984D01*
X17095277Y-7933984D02*
X17095277Y-7800650D01*
X17095277Y-7838746D02*
X17104801Y-7819698D01*
X17104801Y-7819698D02*
X17114324Y-7810174D01*
X17114324Y-7810174D02*
X17133372Y-7800650D01*
X17133372Y-7800650D02*
X17152420Y-7800650D01*
X17219086Y-7933984D02*
X17219086Y-7800650D01*
X17219086Y-7733984D02*
X17209563Y-7743508D01*
X17209563Y-7743508D02*
X17219086Y-7753031D01*
X17219086Y-7753031D02*
X17228610Y-7743508D01*
X17228610Y-7743508D02*
X17219086Y-7733984D01*
X17219086Y-7733984D02*
X17219086Y-7753031D01*
X17342896Y-7933984D02*
X17323848Y-7924460D01*
X17323848Y-7924460D02*
X17314324Y-7905412D01*
X17314324Y-7905412D02*
X17314324Y-7733984D01*
X17447658Y-7933984D02*
X17428610Y-7924460D01*
X17428610Y-7924460D02*
X17419086Y-7905412D01*
X17419086Y-7905412D02*
X17419086Y-7733984D01*
X17676229Y-7933984D02*
X17676229Y-7733984D01*
X17676229Y-7733984D02*
X17742896Y-7876841D01*
X17742896Y-7876841D02*
X17809563Y-7733984D01*
X17809563Y-7733984D02*
X17809563Y-7933984D01*
X17990515Y-7933984D02*
X17990515Y-7829222D01*
X17990515Y-7829222D02*
X17980991Y-7810174D01*
X17980991Y-7810174D02*
X17961944Y-7800650D01*
X17961944Y-7800650D02*
X17923848Y-7800650D01*
X17923848Y-7800650D02*
X17904801Y-7810174D01*
X17990515Y-7924460D02*
X17971467Y-7933984D01*
X17971467Y-7933984D02*
X17923848Y-7933984D01*
X17923848Y-7933984D02*
X17904801Y-7924460D01*
X17904801Y-7924460D02*
X17895277Y-7905412D01*
X17895277Y-7905412D02*
X17895277Y-7886365D01*
X17895277Y-7886365D02*
X17904801Y-7867317D01*
X17904801Y-7867317D02*
X17923848Y-7857793D01*
X17923848Y-7857793D02*
X17971467Y-7857793D01*
X17971467Y-7857793D02*
X17990515Y-7848269D01*
X18085753Y-7800650D02*
X18085753Y-8000650D01*
X18085753Y-7810174D02*
X18104801Y-7800650D01*
X18104801Y-7800650D02*
X18142896Y-7800650D01*
X18142896Y-7800650D02*
X18161944Y-7810174D01*
X18161944Y-7810174D02*
X18171467Y-7819698D01*
X18171467Y-7819698D02*
X18180991Y-7838746D01*
X18180991Y-7838746D02*
X18180991Y-7895888D01*
X18180991Y-7895888D02*
X18171467Y-7914936D01*
X18171467Y-7914936D02*
X18161944Y-7924460D01*
X18161944Y-7924460D02*
X18142896Y-7933984D01*
X18142896Y-7933984D02*
X18104801Y-7933984D01*
X18104801Y-7933984D02*
X18085753Y-7924460D01*
X18266705Y-7914936D02*
X18276229Y-7924460D01*
X18276229Y-7924460D02*
X18266705Y-7933984D01*
X18266705Y-7933984D02*
X18257182Y-7924460D01*
X18257182Y-7924460D02*
X18266705Y-7914936D01*
X18266705Y-7914936D02*
X18266705Y-7933984D01*
X18266705Y-7810174D02*
X18276229Y-7819698D01*
X18276229Y-7819698D02*
X18266705Y-7829222D01*
X18266705Y-7829222D02*
X18257182Y-7819698D01*
X18257182Y-7819698D02*
X18266705Y-7810174D01*
X18266705Y-7810174D02*
X18266705Y-7829222D01*
D12*
X16534500Y-8212500D02*
X16634500Y-8312500D01*
X16634500Y-8212500D02*
X16534500Y-8312500D01*
D11*
X17000039Y-8353984D02*
X16885753Y-8353984D01*
X16942896Y-8353984D02*
X16942896Y-8153984D01*
X16942896Y-8153984D02*
X16923848Y-8182555D01*
X16923848Y-8182555D02*
X16904801Y-8201603D01*
X16904801Y-8201603D02*
X16885753Y-8211127D01*
X17085753Y-8334936D02*
X17095277Y-8344460D01*
X17095277Y-8344460D02*
X17085753Y-8353984D01*
X17085753Y-8353984D02*
X17076229Y-8344460D01*
X17076229Y-8344460D02*
X17085753Y-8334936D01*
X17085753Y-8334936D02*
X17085753Y-8353984D01*
X17219086Y-8153984D02*
X17238134Y-8153984D01*
X17238134Y-8153984D02*
X17257182Y-8163508D01*
X17257182Y-8163508D02*
X17266705Y-8173031D01*
X17266705Y-8173031D02*
X17276229Y-8192079D01*
X17276229Y-8192079D02*
X17285753Y-8230174D01*
X17285753Y-8230174D02*
X17285753Y-8277793D01*
X17285753Y-8277793D02*
X17276229Y-8315888D01*
X17276229Y-8315888D02*
X17266705Y-8334936D01*
X17266705Y-8334936D02*
X17257182Y-8344460D01*
X17257182Y-8344460D02*
X17238134Y-8353984D01*
X17238134Y-8353984D02*
X17219086Y-8353984D01*
X17219086Y-8353984D02*
X17200039Y-8344460D01*
X17200039Y-8344460D02*
X17190515Y-8334936D01*
X17190515Y-8334936D02*
X17180991Y-8315888D01*
X17180991Y-8315888D02*
X17171467Y-8277793D01*
X17171467Y-8277793D02*
X17171467Y-8230174D01*
X17171467Y-8230174D02*
X17180991Y-8192079D01*
X17180991Y-8192079D02*
X17190515Y-8173031D01*
X17190515Y-8173031D02*
X17200039Y-8163508D01*
X17200039Y-8163508D02*
X17219086Y-8153984D01*
X17409563Y-8153984D02*
X17428610Y-8153984D01*
X17428610Y-8153984D02*
X17447658Y-8163508D01*
X17447658Y-8163508D02*
X17457182Y-8173031D01*
X17457182Y-8173031D02*
X17466705Y-8192079D01*
X17466705Y-8192079D02*
X17476229Y-8230174D01*
X17476229Y-8230174D02*
X17476229Y-8277793D01*
X17476229Y-8277793D02*
X17466705Y-8315888D01*
X17466705Y-8315888D02*
X17457182Y-8334936D01*
X17457182Y-8334936D02*
X17447658Y-8344460D01*
X17447658Y-8344460D02*
X17428610Y-8353984D01*
X17428610Y-8353984D02*
X17409563Y-8353984D01*
X17409563Y-8353984D02*
X17390515Y-8344460D01*
X17390515Y-8344460D02*
X17380991Y-8334936D01*
X17380991Y-8334936D02*
X17371467Y-8315888D01*
X17371467Y-8315888D02*
X17361944Y-8277793D01*
X17361944Y-8277793D02*
X17361944Y-8230174D01*
X17361944Y-8230174D02*
X17371467Y-8192079D01*
X17371467Y-8192079D02*
X17380991Y-8173031D01*
X17380991Y-8173031D02*
X17390515Y-8163508D01*
X17390515Y-8163508D02*
X17409563Y-8153984D01*
X17600039Y-8153984D02*
X17619086Y-8153984D01*
X17619086Y-8153984D02*
X17638134Y-8163508D01*
X17638134Y-8163508D02*
X17647658Y-8173031D01*
X17647658Y-8173031D02*
X17657182Y-8192079D01*
X17657182Y-8192079D02*
X17666705Y-8230174D01*
X17666705Y-8230174D02*
X17666705Y-8277793D01*
X17666705Y-8277793D02*
X17657182Y-8315888D01*
X17657182Y-8315888D02*
X17647658Y-8334936D01*
X17647658Y-8334936D02*
X17638134Y-8344460D01*
X17638134Y-8344460D02*
X17619086Y-8353984D01*
X17619086Y-8353984D02*
X17600039Y-8353984D01*
X17600039Y-8353984D02*
X17580991Y-8344460D01*
X17580991Y-8344460D02*
X17571467Y-8334936D01*
X17571467Y-8334936D02*
X17561944Y-8315888D01*
X17561944Y-8315888D02*
X17552420Y-8277793D01*
X17552420Y-8277793D02*
X17552420Y-8230174D01*
X17552420Y-8230174D02*
X17561944Y-8192079D01*
X17561944Y-8192079D02*
X17571467Y-8173031D01*
X17571467Y-8173031D02*
X17580991Y-8163508D01*
X17580991Y-8163508D02*
X17600039Y-8153984D01*
X17752420Y-8353984D02*
X17752420Y-8220650D01*
X17752420Y-8239698D02*
X17761944Y-8230174D01*
X17761944Y-8230174D02*
X17780991Y-8220650D01*
X17780991Y-8220650D02*
X17809563Y-8220650D01*
X17809563Y-8220650D02*
X17828610Y-8230174D01*
X17828610Y-8230174D02*
X17838134Y-8249222D01*
X17838134Y-8249222D02*
X17838134Y-8353984D01*
X17838134Y-8249222D02*
X17847658Y-8230174D01*
X17847658Y-8230174D02*
X17866705Y-8220650D01*
X17866705Y-8220650D02*
X17895277Y-8220650D01*
X17895277Y-8220650D02*
X17914325Y-8230174D01*
X17914325Y-8230174D02*
X17923848Y-8249222D01*
X17923848Y-8249222D02*
X17923848Y-8353984D01*
X18019086Y-8353984D02*
X18019086Y-8220650D01*
X18019086Y-8239698D02*
X18028610Y-8230174D01*
X18028610Y-8230174D02*
X18047658Y-8220650D01*
X18047658Y-8220650D02*
X18076229Y-8220650D01*
X18076229Y-8220650D02*
X18095277Y-8230174D01*
X18095277Y-8230174D02*
X18104801Y-8249222D01*
X18104801Y-8249222D02*
X18104801Y-8353984D01*
X18104801Y-8249222D02*
X18114325Y-8230174D01*
X18114325Y-8230174D02*
X18133372Y-8220650D01*
X18133372Y-8220650D02*
X18161944Y-8220650D01*
X18161944Y-8220650D02*
X18180991Y-8230174D01*
X18180991Y-8230174D02*
X18190515Y-8249222D01*
X18190515Y-8249222D02*
X18190515Y-8353984D01*
X18580991Y-8144460D02*
X18409563Y-8401603D01*
X18838134Y-8153984D02*
X18857182Y-8153984D01*
X18857182Y-8153984D02*
X18876229Y-8163508D01*
X18876229Y-8163508D02*
X18885753Y-8173031D01*
X18885753Y-8173031D02*
X18895277Y-8192079D01*
X18895277Y-8192079D02*
X18904801Y-8230174D01*
X18904801Y-8230174D02*
X18904801Y-8277793D01*
X18904801Y-8277793D02*
X18895277Y-8315888D01*
X18895277Y-8315888D02*
X18885753Y-8334936D01*
X18885753Y-8334936D02*
X18876229Y-8344460D01*
X18876229Y-8344460D02*
X18857182Y-8353984D01*
X18857182Y-8353984D02*
X18838134Y-8353984D01*
X18838134Y-8353984D02*
X18819087Y-8344460D01*
X18819087Y-8344460D02*
X18809563Y-8334936D01*
X18809563Y-8334936D02*
X18800039Y-8315888D01*
X18800039Y-8315888D02*
X18790515Y-8277793D01*
X18790515Y-8277793D02*
X18790515Y-8230174D01*
X18790515Y-8230174D02*
X18800039Y-8192079D01*
X18800039Y-8192079D02*
X18809563Y-8173031D01*
X18809563Y-8173031D02*
X18819087Y-8163508D01*
X18819087Y-8163508D02*
X18838134Y-8153984D01*
X18990515Y-8334936D02*
X19000039Y-8344460D01*
X19000039Y-8344460D02*
X18990515Y-8353984D01*
X18990515Y-8353984D02*
X18980991Y-8344460D01*
X18980991Y-8344460D02*
X18990515Y-8334936D01*
X18990515Y-8334936D02*
X18990515Y-8353984D01*
X19123848Y-8153984D02*
X19142896Y-8153984D01*
X19142896Y-8153984D02*
X19161944Y-8163508D01*
X19161944Y-8163508D02*
X19171468Y-8173031D01*
X19171468Y-8173031D02*
X19180991Y-8192079D01*
X19180991Y-8192079D02*
X19190515Y-8230174D01*
X19190515Y-8230174D02*
X19190515Y-8277793D01*
X19190515Y-8277793D02*
X19180991Y-8315888D01*
X19180991Y-8315888D02*
X19171468Y-8334936D01*
X19171468Y-8334936D02*
X19161944Y-8344460D01*
X19161944Y-8344460D02*
X19142896Y-8353984D01*
X19142896Y-8353984D02*
X19123848Y-8353984D01*
X19123848Y-8353984D02*
X19104801Y-8344460D01*
X19104801Y-8344460D02*
X19095277Y-8334936D01*
X19095277Y-8334936D02*
X19085753Y-8315888D01*
X19085753Y-8315888D02*
X19076229Y-8277793D01*
X19076229Y-8277793D02*
X19076229Y-8230174D01*
X19076229Y-8230174D02*
X19085753Y-8192079D01*
X19085753Y-8192079D02*
X19095277Y-8173031D01*
X19095277Y-8173031D02*
X19104801Y-8163508D01*
X19104801Y-8163508D02*
X19123848Y-8153984D01*
X19257182Y-8153984D02*
X19380991Y-8153984D01*
X19380991Y-8153984D02*
X19314325Y-8230174D01*
X19314325Y-8230174D02*
X19342896Y-8230174D01*
X19342896Y-8230174D02*
X19361944Y-8239698D01*
X19361944Y-8239698D02*
X19371468Y-8249222D01*
X19371468Y-8249222D02*
X19380991Y-8268269D01*
X19380991Y-8268269D02*
X19380991Y-8315888D01*
X19380991Y-8315888D02*
X19371468Y-8334936D01*
X19371468Y-8334936D02*
X19361944Y-8344460D01*
X19361944Y-8344460D02*
X19342896Y-8353984D01*
X19342896Y-8353984D02*
X19285753Y-8353984D01*
X19285753Y-8353984D02*
X19266706Y-8344460D01*
X19266706Y-8344460D02*
X19257182Y-8334936D01*
X19476229Y-8353984D02*
X19514325Y-8353984D01*
X19514325Y-8353984D02*
X19533372Y-8344460D01*
X19533372Y-8344460D02*
X19542896Y-8334936D01*
X19542896Y-8334936D02*
X19561944Y-8306365D01*
X19561944Y-8306365D02*
X19571468Y-8268269D01*
X19571468Y-8268269D02*
X19571468Y-8192079D01*
X19571468Y-8192079D02*
X19561944Y-8173031D01*
X19561944Y-8173031D02*
X19552420Y-8163508D01*
X19552420Y-8163508D02*
X19533372Y-8153984D01*
X19533372Y-8153984D02*
X19495277Y-8153984D01*
X19495277Y-8153984D02*
X19476229Y-8163508D01*
X19476229Y-8163508D02*
X19466706Y-8173031D01*
X19466706Y-8173031D02*
X19457182Y-8192079D01*
X19457182Y-8192079D02*
X19457182Y-8239698D01*
X19457182Y-8239698D02*
X19466706Y-8258746D01*
X19466706Y-8258746D02*
X19476229Y-8268269D01*
X19476229Y-8268269D02*
X19495277Y-8277793D01*
X19495277Y-8277793D02*
X19533372Y-8277793D01*
X19533372Y-8277793D02*
X19552420Y-8268269D01*
X19552420Y-8268269D02*
X19561944Y-8258746D01*
X19561944Y-8258746D02*
X19571468Y-8239698D01*
X19742896Y-8220650D02*
X19742896Y-8353984D01*
X19695277Y-8144460D02*
X19647658Y-8287317D01*
X19647658Y-8287317D02*
X19771468Y-8287317D01*
X19838134Y-8153984D02*
X19838134Y-8192079D01*
X19914325Y-8153984D02*
X19914325Y-8192079D01*
X20209563Y-8430174D02*
X20200039Y-8420650D01*
X20200039Y-8420650D02*
X20180991Y-8392079D01*
X20180991Y-8392079D02*
X20171468Y-8373031D01*
X20171468Y-8373031D02*
X20161944Y-8344460D01*
X20161944Y-8344460D02*
X20152420Y-8296841D01*
X20152420Y-8296841D02*
X20152420Y-8258746D01*
X20152420Y-8258746D02*
X20161944Y-8211127D01*
X20161944Y-8211127D02*
X20171468Y-8182555D01*
X20171468Y-8182555D02*
X20180991Y-8163508D01*
X20180991Y-8163508D02*
X20200039Y-8134936D01*
X20200039Y-8134936D02*
X20209563Y-8125412D01*
X20371468Y-8220650D02*
X20371468Y-8353984D01*
X20323849Y-8144460D02*
X20276230Y-8287317D01*
X20276230Y-8287317D02*
X20400039Y-8287317D01*
X20628611Y-8353984D02*
X20628611Y-8153984D01*
X20714325Y-8353984D02*
X20714325Y-8249222D01*
X20714325Y-8249222D02*
X20704801Y-8230174D01*
X20704801Y-8230174D02*
X20685753Y-8220650D01*
X20685753Y-8220650D02*
X20657182Y-8220650D01*
X20657182Y-8220650D02*
X20638134Y-8230174D01*
X20638134Y-8230174D02*
X20628611Y-8239698D01*
X20838134Y-8353984D02*
X20819087Y-8344460D01*
X20819087Y-8344460D02*
X20809563Y-8334936D01*
X20809563Y-8334936D02*
X20800039Y-8315888D01*
X20800039Y-8315888D02*
X20800039Y-8258746D01*
X20800039Y-8258746D02*
X20809563Y-8239698D01*
X20809563Y-8239698D02*
X20819087Y-8230174D01*
X20819087Y-8230174D02*
X20838134Y-8220650D01*
X20838134Y-8220650D02*
X20866706Y-8220650D01*
X20866706Y-8220650D02*
X20885753Y-8230174D01*
X20885753Y-8230174D02*
X20895277Y-8239698D01*
X20895277Y-8239698D02*
X20904801Y-8258746D01*
X20904801Y-8258746D02*
X20904801Y-8315888D01*
X20904801Y-8315888D02*
X20895277Y-8334936D01*
X20895277Y-8334936D02*
X20885753Y-8344460D01*
X20885753Y-8344460D02*
X20866706Y-8353984D01*
X20866706Y-8353984D02*
X20838134Y-8353984D01*
X21019087Y-8353984D02*
X21000039Y-8344460D01*
X21000039Y-8344460D02*
X20990515Y-8325412D01*
X20990515Y-8325412D02*
X20990515Y-8153984D01*
X21171468Y-8344460D02*
X21152420Y-8353984D01*
X21152420Y-8353984D02*
X21114325Y-8353984D01*
X21114325Y-8353984D02*
X21095277Y-8344460D01*
X21095277Y-8344460D02*
X21085753Y-8325412D01*
X21085753Y-8325412D02*
X21085753Y-8249222D01*
X21085753Y-8249222D02*
X21095277Y-8230174D01*
X21095277Y-8230174D02*
X21114325Y-8220650D01*
X21114325Y-8220650D02*
X21152420Y-8220650D01*
X21152420Y-8220650D02*
X21171468Y-8230174D01*
X21171468Y-8230174D02*
X21180992Y-8249222D01*
X21180992Y-8249222D02*
X21180992Y-8268269D01*
X21180992Y-8268269D02*
X21085753Y-8287317D01*
X21257182Y-8344460D02*
X21276230Y-8353984D01*
X21276230Y-8353984D02*
X21314325Y-8353984D01*
X21314325Y-8353984D02*
X21333373Y-8344460D01*
X21333373Y-8344460D02*
X21342896Y-8325412D01*
X21342896Y-8325412D02*
X21342896Y-8315888D01*
X21342896Y-8315888D02*
X21333373Y-8296841D01*
X21333373Y-8296841D02*
X21314325Y-8287317D01*
X21314325Y-8287317D02*
X21285753Y-8287317D01*
X21285753Y-8287317D02*
X21266706Y-8277793D01*
X21266706Y-8277793D02*
X21257182Y-8258746D01*
X21257182Y-8258746D02*
X21257182Y-8249222D01*
X21257182Y-8249222D02*
X21266706Y-8230174D01*
X21266706Y-8230174D02*
X21285753Y-8220650D01*
X21285753Y-8220650D02*
X21314325Y-8220650D01*
X21314325Y-8220650D02*
X21333373Y-8230174D01*
X21409563Y-8430174D02*
X21419087Y-8420650D01*
X21419087Y-8420650D02*
X21438134Y-8392079D01*
X21438134Y-8392079D02*
X21447658Y-8373031D01*
X21447658Y-8373031D02*
X21457182Y-8344460D01*
X21457182Y-8344460D02*
X21466706Y-8296841D01*
X21466706Y-8296841D02*
X21466706Y-8258746D01*
X21466706Y-8258746D02*
X21457182Y-8211127D01*
X21457182Y-8211127D02*
X21447658Y-8182555D01*
X21447658Y-8182555D02*
X21438134Y-8163508D01*
X21438134Y-8163508D02*
X21419087Y-8134936D01*
X21419087Y-8134936D02*
X21409563Y-8125412D01*
M02*
