%TF.GenerationSoftware,KiCad,Pcbnew,9.0.1*%
%TF.CreationDate,2025-04-24T20:35:24+12:00*%
%TF.ProjectId,XIAO-nRF52840-spacer,5849414f-2d6e-4524-9635-323834302d73,rev?*%
%TF.SameCoordinates,Original*%
%TF.FileFunction,Drillmap*%
%TF.FilePolarity,Positive*%
%FSLAX45Y45*%
G04 Gerber Fmt 4.5, Leading zero omitted, Abs format (unit mm)*
G04 Created by KiCad (PCBNEW 9.0.1) date 2025-04-24 20:35:24*
%MOMM*%
%LPD*%
G01*
G04 APERTURE LIST*
%ADD10C,0.050000*%
%ADD11C,0.200000*%
G04 APERTURE END LIST*
D10*
X16738600Y-7620000D02*
G75*
G02*
X16637000Y-7518400I0J101600D01*
G01*
X16637000Y-6858000D02*
G75*
G02*
X16738600Y-6756400I101600J0D01*
G01*
X17068800Y-6527800D02*
X17068800Y-6654800D01*
X17068800Y-6527800D02*
G75*
G02*
X17170400Y-6426200I101600J0D01*
G01*
X17068800Y-6654800D02*
G75*
G02*
X16967200Y-6756400I-101600J0D01*
G01*
X16637000Y-6858000D02*
X16637000Y-7518400D01*
X16967200Y-6756400D02*
X16738600Y-6756400D01*
X18948400Y-7518400D02*
G75*
G02*
X18846800Y-7620000I-101600J0D01*
G01*
X18846800Y-6426200D02*
G75*
G02*
X18948400Y-6527800I0J-101600D01*
G01*
X17170400Y-6426200D02*
X18846800Y-6426200D01*
X18846800Y-7620000D02*
X16738600Y-7620000D01*
X18948400Y-6527800D02*
X18948400Y-7518400D01*
D11*
X16895277Y-7933984D02*
X16895277Y-7733984D01*
X16895277Y-7733984D02*
X16942896Y-7733984D01*
X16942896Y-7733984D02*
X16971467Y-7743508D01*
X16971467Y-7743508D02*
X16990515Y-7762555D01*
X16990515Y-7762555D02*
X17000039Y-7781603D01*
X17000039Y-7781603D02*
X17009563Y-7819698D01*
X17009563Y-7819698D02*
X17009563Y-7848269D01*
X17009563Y-7848269D02*
X17000039Y-7886365D01*
X17000039Y-7886365D02*
X16990515Y-7905412D01*
X16990515Y-7905412D02*
X16971467Y-7924460D01*
X16971467Y-7924460D02*
X16942896Y-7933984D01*
X16942896Y-7933984D02*
X16895277Y-7933984D01*
X17095277Y-7933984D02*
X17095277Y-7800650D01*
X17095277Y-7838746D02*
X17104801Y-7819698D01*
X17104801Y-7819698D02*
X17114324Y-7810174D01*
X17114324Y-7810174D02*
X17133372Y-7800650D01*
X17133372Y-7800650D02*
X17152420Y-7800650D01*
X17219086Y-7933984D02*
X17219086Y-7800650D01*
X17219086Y-7733984D02*
X17209563Y-7743508D01*
X17209563Y-7743508D02*
X17219086Y-7753031D01*
X17219086Y-7753031D02*
X17228610Y-7743508D01*
X17228610Y-7743508D02*
X17219086Y-7733984D01*
X17219086Y-7733984D02*
X17219086Y-7753031D01*
X17342896Y-7933984D02*
X17323848Y-7924460D01*
X17323848Y-7924460D02*
X17314324Y-7905412D01*
X17314324Y-7905412D02*
X17314324Y-7733984D01*
X17447658Y-7933984D02*
X17428610Y-7924460D01*
X17428610Y-7924460D02*
X17419086Y-7905412D01*
X17419086Y-7905412D02*
X17419086Y-7733984D01*
X17676229Y-7933984D02*
X17676229Y-7733984D01*
X17676229Y-7733984D02*
X17742896Y-7876841D01*
X17742896Y-7876841D02*
X17809563Y-7733984D01*
X17809563Y-7733984D02*
X17809563Y-7933984D01*
X17990515Y-7933984D02*
X17990515Y-7829222D01*
X17990515Y-7829222D02*
X17980991Y-7810174D01*
X17980991Y-7810174D02*
X17961944Y-7800650D01*
X17961944Y-7800650D02*
X17923848Y-7800650D01*
X17923848Y-7800650D02*
X17904801Y-7810174D01*
X17990515Y-7924460D02*
X17971467Y-7933984D01*
X17971467Y-7933984D02*
X17923848Y-7933984D01*
X17923848Y-7933984D02*
X17904801Y-7924460D01*
X17904801Y-7924460D02*
X17895277Y-7905412D01*
X17895277Y-7905412D02*
X17895277Y-7886365D01*
X17895277Y-7886365D02*
X17904801Y-7867317D01*
X17904801Y-7867317D02*
X17923848Y-7857793D01*
X17923848Y-7857793D02*
X17971467Y-7857793D01*
X17971467Y-7857793D02*
X17990515Y-7848269D01*
X18085753Y-7800650D02*
X18085753Y-8000650D01*
X18085753Y-7810174D02*
X18104801Y-7800650D01*
X18104801Y-7800650D02*
X18142896Y-7800650D01*
X18142896Y-7800650D02*
X18161944Y-7810174D01*
X18161944Y-7810174D02*
X18171467Y-7819698D01*
X18171467Y-7819698D02*
X18180991Y-7838746D01*
X18180991Y-7838746D02*
X18180991Y-7895888D01*
X18180991Y-7895888D02*
X18171467Y-7914936D01*
X18171467Y-7914936D02*
X18161944Y-7924460D01*
X18161944Y-7924460D02*
X18142896Y-7933984D01*
X18142896Y-7933984D02*
X18104801Y-7933984D01*
X18104801Y-7933984D02*
X18085753Y-7924460D01*
X18266705Y-7914936D02*
X18276229Y-7924460D01*
X18276229Y-7924460D02*
X18266705Y-7933984D01*
X18266705Y-7933984D02*
X18257182Y-7924460D01*
X18257182Y-7924460D02*
X18266705Y-7914936D01*
X18266705Y-7914936D02*
X18266705Y-7933984D01*
X18266705Y-7810174D02*
X18276229Y-7819698D01*
X18276229Y-7819698D02*
X18266705Y-7829222D01*
X18266705Y-7829222D02*
X18257182Y-7819698D01*
X18257182Y-7819698D02*
X18266705Y-7810174D01*
X18266705Y-7810174D02*
X18266705Y-7829222D01*
M02*
