%TF.GenerationSoftware,KiCad,Pcbnew,9.0.1*%
%TF.CreationDate,2025-06-29T19:09:28+12:00*%
%TF.ProjectId,pdp-11-colour,7064702d-3131-42d6-936f-6c6f75722e6b,rev?*%
%TF.SameCoordinates,Original*%
%TF.FileFunction,Drillmap*%
%TF.FilePolarity,Positive*%
%FSLAX45Y45*%
G04 Gerber Fmt 4.5, Leading zero omitted, Abs format (unit mm)*
G04 Created by KiCad (PCBNEW 9.0.1) date 2025-06-29 19:09:28*
%MOMM*%
%LPD*%
G01*
G04 APERTURE LIST*
%ADD10C,0.050000*%
%ADD11C,0.200000*%
%ADD12C,0.100000*%
G04 APERTURE END LIST*
D10*
X12225000Y-7792000D02*
G75*
G02*
X11805000Y-7792000I-210000J0D01*
G01*
X11805000Y-7792000D02*
G75*
G02*
X12225000Y-7792000I210000J0D01*
G01*
X21311500Y-9536245D02*
X21311500Y-5202945D01*
X11311500Y-9536245D02*
X11311500Y-5202945D01*
X21311500Y-5202945D02*
X11311500Y-5202945D01*
X11311500Y-9536245D02*
X21311500Y-9536245D01*
D11*
D12*
X11415000Y-7909800D02*
X11445000Y-7939800D01*
X11445000Y-7909800D02*
X11415000Y-7939800D01*
X11415000Y-8036800D02*
X11445000Y-8066800D01*
X11445000Y-8036800D02*
X11415000Y-8066800D01*
X11516600Y-8392400D02*
X11546600Y-8422400D01*
X11546600Y-8392400D02*
X11516600Y-8422400D01*
X11516600Y-8646400D02*
X11546600Y-8676400D01*
X11546600Y-8646400D02*
X11516600Y-8676400D01*
X11516600Y-8900400D02*
X11546600Y-8930400D01*
X11546600Y-8900400D02*
X11516600Y-8930400D01*
X11796000Y-9277600D02*
X11826000Y-9307600D01*
X11826000Y-9277600D02*
X11796000Y-9307600D01*
X11796000Y-9357600D02*
X11826000Y-9387600D01*
X11826000Y-9357600D02*
X11796000Y-9387600D01*
X12655000Y-9440000D02*
X12685000Y-9470000D01*
X12685000Y-9440000D02*
X12655000Y-9470000D01*
X13161000Y-9272000D02*
X13191000Y-9302000D01*
X13191000Y-9272000D02*
X13161000Y-9302000D01*
X13600000Y-5345000D02*
X13630000Y-5375000D01*
X13630000Y-5345000D02*
X13600000Y-5375000D01*
X14092500Y-5407500D02*
X14122500Y-5437500D01*
X14122500Y-5407500D02*
X14092500Y-5437500D01*
X14127500Y-9352500D02*
X14157500Y-9382500D01*
X14157500Y-9352500D02*
X14127500Y-9382500D01*
X14412500Y-9297500D02*
X14442500Y-9327500D01*
X14442500Y-9297500D02*
X14412500Y-9327500D01*
X14480000Y-9440000D02*
X14510000Y-9470000D01*
X14510000Y-9440000D02*
X14480000Y-9470000D01*
X14940000Y-9320000D02*
X14970000Y-9350000D01*
X14970000Y-9320000D02*
X14940000Y-9350000D01*
X15125000Y-9317500D02*
X15155000Y-9347500D01*
X15155000Y-9317500D02*
X15125000Y-9347500D01*
X15250000Y-9282500D02*
X15280000Y-9312500D01*
X15280000Y-9282500D02*
X15250000Y-9312500D01*
X15532500Y-9245000D02*
X15562500Y-9275000D01*
X15562500Y-9245000D02*
X15532500Y-9275000D01*
X15560000Y-5355955D02*
X15590000Y-5385955D01*
X15590000Y-5355955D02*
X15560000Y-5385955D01*
X15630000Y-9401145D02*
X15660000Y-9431145D01*
X15660000Y-9401145D02*
X15630000Y-9431145D01*
X15787500Y-9441245D02*
X15817500Y-9471245D01*
X15817500Y-9441245D02*
X15787500Y-9471245D01*
X15835000Y-9270000D02*
X15865000Y-9300000D01*
X15865000Y-9270000D02*
X15835000Y-9300000D01*
X15887500Y-5315855D02*
X15917500Y-5345855D01*
X15917500Y-5315855D02*
X15887500Y-5345855D01*
X16060000Y-5315855D02*
X16090000Y-5345855D01*
X16090000Y-5315855D02*
X16060000Y-5345855D01*
X16075000Y-9352500D02*
X16105000Y-9382500D01*
X16105000Y-9352500D02*
X16075000Y-9382500D01*
X16190000Y-5352500D02*
X16220000Y-5382500D01*
X16220000Y-5352500D02*
X16190000Y-5382500D01*
X16264847Y-5315855D02*
X16294847Y-5345855D01*
X16294847Y-5315855D02*
X16264847Y-5345855D01*
X16615000Y-5372500D02*
X16645000Y-5402500D01*
X16645000Y-5372500D02*
X16615000Y-5402500D01*
X16805000Y-5372500D02*
X16835000Y-5402500D01*
X16835000Y-5372500D02*
X16805000Y-5402500D01*
X16889853Y-5372500D02*
X16919853Y-5402500D01*
X16919853Y-5372500D02*
X16889853Y-5402500D01*
X16917000Y-9274000D02*
X16947000Y-9304000D01*
X16947000Y-9274000D02*
X16917000Y-9304000D01*
X17095714Y-5315855D02*
X17125714Y-5345855D01*
X17125714Y-5315855D02*
X17095714Y-5345855D01*
X17175000Y-9275000D02*
X17205000Y-9305000D01*
X17205000Y-9275000D02*
X17175000Y-9305000D01*
X17252500Y-5342500D02*
X17282500Y-5372500D01*
X17282500Y-5342500D02*
X17252500Y-5372500D01*
X17428013Y-5275755D02*
X17458013Y-5305755D01*
X17458013Y-5275755D02*
X17428013Y-5305755D01*
X17592500Y-5335755D02*
X17622500Y-5365755D01*
X17622500Y-5335755D02*
X17592500Y-5365755D01*
X17845000Y-9280845D02*
X17875000Y-9310845D01*
X17875000Y-9280845D02*
X17845000Y-9310845D01*
X17968200Y-5522200D02*
X17998200Y-5552200D01*
X17998200Y-5522200D02*
X17968200Y-5552200D01*
X17968200Y-5573000D02*
X17998200Y-5603000D01*
X17998200Y-5573000D02*
X17968200Y-5603000D01*
X18007534Y-9300964D02*
X18037534Y-9330964D01*
X18037534Y-9300964D02*
X18007534Y-9330964D01*
X18070000Y-5350000D02*
X18100000Y-5380000D01*
X18100000Y-5350000D02*
X18070000Y-5380000D01*
X18120000Y-5547600D02*
X18150000Y-5577600D01*
X18150000Y-5547600D02*
X18120000Y-5577600D01*
X18222200Y-9256000D02*
X18252200Y-9286000D01*
X18252200Y-9256000D02*
X18222200Y-9286000D01*
X18371164Y-9253239D02*
X18401164Y-9283239D01*
X18401164Y-9253239D02*
X18371164Y-9283239D01*
X18450800Y-9260864D02*
X18480800Y-9290864D01*
X18480800Y-9260864D02*
X18450800Y-9290864D01*
X18513750Y-5547600D02*
X18543750Y-5577600D01*
X18543750Y-5547600D02*
X18513750Y-5577600D01*
X18679400Y-5319000D02*
X18709400Y-5349000D01*
X18709400Y-5319000D02*
X18679400Y-5349000D01*
X18732000Y-9239000D02*
X18762000Y-9269000D01*
X18762000Y-9239000D02*
X18732000Y-9269000D01*
X18968000Y-5344400D02*
X18998000Y-5374400D01*
X18998000Y-5344400D02*
X18968000Y-5374400D01*
X19060400Y-5344400D02*
X19090400Y-5374400D01*
X19090400Y-5344400D02*
X19060400Y-5374400D01*
X19162000Y-5344400D02*
X19192000Y-5374400D01*
X19192000Y-5344400D02*
X19162000Y-5374400D01*
X19242000Y-5344400D02*
X19272000Y-5374400D01*
X19272000Y-5344400D02*
X19242000Y-5374400D01*
X19314400Y-5275755D02*
X19344400Y-5305755D01*
X19344400Y-5275755D02*
X19314400Y-5305755D01*
X19460000Y-9290000D02*
X19490000Y-9320000D01*
X19490000Y-9290000D02*
X19460000Y-9320000D01*
X20697500Y-9242500D02*
X20727500Y-9272500D01*
X20727500Y-9242500D02*
X20697500Y-9272500D01*
X21067500Y-7312707D02*
X21097500Y-7342707D01*
X21097500Y-7312707D02*
X21067500Y-7342707D01*
X21126000Y-9284000D02*
X21156000Y-9314000D01*
X21156000Y-9284000D02*
X21126000Y-9314000D01*
X21142500Y-7252707D02*
X21172500Y-7282707D01*
X21172500Y-7252707D02*
X21142500Y-7282707D01*
X21143200Y-5598400D02*
X21173200Y-5628400D01*
X21173200Y-5598400D02*
X21143200Y-5628400D01*
X21150000Y-5700000D02*
X21180000Y-5730000D01*
X21180000Y-5700000D02*
X21150000Y-5730000D01*
X21150000Y-5801600D02*
X21180000Y-5831600D01*
X21180000Y-5801600D02*
X21150000Y-5831600D01*
X21150000Y-5903200D02*
X21180000Y-5933200D01*
X21180000Y-5903200D02*
X21150000Y-5933200D01*
X21202500Y-7173200D02*
X21232500Y-7203200D01*
X21232500Y-7173200D02*
X21202500Y-7203200D01*
X21212500Y-6627500D02*
X21242500Y-6657500D01*
X21242500Y-6627500D02*
X21212500Y-6657500D01*
X21216500Y-6467599D02*
X21246500Y-6497599D01*
X21246500Y-6467599D02*
X21216500Y-6497599D01*
X21216500Y-6547600D02*
X21246500Y-6577600D01*
X21246500Y-6547600D02*
X21216500Y-6577600D01*
D11*
X11569777Y-9850229D02*
X11569777Y-9650229D01*
X11569777Y-9650229D02*
X11617396Y-9650229D01*
X11617396Y-9650229D02*
X11645967Y-9659753D01*
X11645967Y-9659753D02*
X11665015Y-9678800D01*
X11665015Y-9678800D02*
X11674539Y-9697848D01*
X11674539Y-9697848D02*
X11684062Y-9735943D01*
X11684062Y-9735943D02*
X11684062Y-9764515D01*
X11684062Y-9764515D02*
X11674539Y-9802610D01*
X11674539Y-9802610D02*
X11665015Y-9821657D01*
X11665015Y-9821657D02*
X11645967Y-9840705D01*
X11645967Y-9840705D02*
X11617396Y-9850229D01*
X11617396Y-9850229D02*
X11569777Y-9850229D01*
X11769777Y-9850229D02*
X11769777Y-9716895D01*
X11769777Y-9754991D02*
X11779301Y-9735943D01*
X11779301Y-9735943D02*
X11788824Y-9726419D01*
X11788824Y-9726419D02*
X11807872Y-9716895D01*
X11807872Y-9716895D02*
X11826920Y-9716895D01*
X11893586Y-9850229D02*
X11893586Y-9716895D01*
X11893586Y-9650229D02*
X11884062Y-9659753D01*
X11884062Y-9659753D02*
X11893586Y-9669276D01*
X11893586Y-9669276D02*
X11903110Y-9659753D01*
X11903110Y-9659753D02*
X11893586Y-9650229D01*
X11893586Y-9650229D02*
X11893586Y-9669276D01*
X12017396Y-9850229D02*
X11998348Y-9840705D01*
X11998348Y-9840705D02*
X11988824Y-9821657D01*
X11988824Y-9821657D02*
X11988824Y-9650229D01*
X12122158Y-9850229D02*
X12103110Y-9840705D01*
X12103110Y-9840705D02*
X12093586Y-9821657D01*
X12093586Y-9821657D02*
X12093586Y-9650229D01*
X12350729Y-9850229D02*
X12350729Y-9650229D01*
X12350729Y-9650229D02*
X12417396Y-9793086D01*
X12417396Y-9793086D02*
X12484062Y-9650229D01*
X12484062Y-9650229D02*
X12484062Y-9850229D01*
X12665015Y-9850229D02*
X12665015Y-9745467D01*
X12665015Y-9745467D02*
X12655491Y-9726419D01*
X12655491Y-9726419D02*
X12636443Y-9716895D01*
X12636443Y-9716895D02*
X12598348Y-9716895D01*
X12598348Y-9716895D02*
X12579301Y-9726419D01*
X12665015Y-9840705D02*
X12645967Y-9850229D01*
X12645967Y-9850229D02*
X12598348Y-9850229D01*
X12598348Y-9850229D02*
X12579301Y-9840705D01*
X12579301Y-9840705D02*
X12569777Y-9821657D01*
X12569777Y-9821657D02*
X12569777Y-9802610D01*
X12569777Y-9802610D02*
X12579301Y-9783562D01*
X12579301Y-9783562D02*
X12598348Y-9774038D01*
X12598348Y-9774038D02*
X12645967Y-9774038D01*
X12645967Y-9774038D02*
X12665015Y-9764515D01*
X12760253Y-9716895D02*
X12760253Y-9916895D01*
X12760253Y-9726419D02*
X12779301Y-9716895D01*
X12779301Y-9716895D02*
X12817396Y-9716895D01*
X12817396Y-9716895D02*
X12836443Y-9726419D01*
X12836443Y-9726419D02*
X12845967Y-9735943D01*
X12845967Y-9735943D02*
X12855491Y-9754991D01*
X12855491Y-9754991D02*
X12855491Y-9812134D01*
X12855491Y-9812134D02*
X12845967Y-9831181D01*
X12845967Y-9831181D02*
X12836443Y-9840705D01*
X12836443Y-9840705D02*
X12817396Y-9850229D01*
X12817396Y-9850229D02*
X12779301Y-9850229D01*
X12779301Y-9850229D02*
X12760253Y-9840705D01*
X12941205Y-9831181D02*
X12950729Y-9840705D01*
X12950729Y-9840705D02*
X12941205Y-9850229D01*
X12941205Y-9850229D02*
X12931682Y-9840705D01*
X12931682Y-9840705D02*
X12941205Y-9831181D01*
X12941205Y-9831181D02*
X12941205Y-9850229D01*
X12941205Y-9726419D02*
X12950729Y-9735943D01*
X12950729Y-9735943D02*
X12941205Y-9745467D01*
X12941205Y-9745467D02*
X12931682Y-9735943D01*
X12931682Y-9735943D02*
X12941205Y-9726419D01*
X12941205Y-9726419D02*
X12941205Y-9745467D01*
D12*
X11279000Y-10163745D02*
X11309000Y-10193745D01*
X11309000Y-10163745D02*
X11279000Y-10193745D01*
D11*
X11607872Y-10070229D02*
X11626920Y-10070229D01*
X11626920Y-10070229D02*
X11645967Y-10079753D01*
X11645967Y-10079753D02*
X11655491Y-10089276D01*
X11655491Y-10089276D02*
X11665015Y-10108324D01*
X11665015Y-10108324D02*
X11674539Y-10146419D01*
X11674539Y-10146419D02*
X11674539Y-10194038D01*
X11674539Y-10194038D02*
X11665015Y-10232134D01*
X11665015Y-10232134D02*
X11655491Y-10251181D01*
X11655491Y-10251181D02*
X11645967Y-10260705D01*
X11645967Y-10260705D02*
X11626920Y-10270229D01*
X11626920Y-10270229D02*
X11607872Y-10270229D01*
X11607872Y-10270229D02*
X11588824Y-10260705D01*
X11588824Y-10260705D02*
X11579301Y-10251181D01*
X11579301Y-10251181D02*
X11569777Y-10232134D01*
X11569777Y-10232134D02*
X11560253Y-10194038D01*
X11560253Y-10194038D02*
X11560253Y-10146419D01*
X11560253Y-10146419D02*
X11569777Y-10108324D01*
X11569777Y-10108324D02*
X11579301Y-10089276D01*
X11579301Y-10089276D02*
X11588824Y-10079753D01*
X11588824Y-10079753D02*
X11607872Y-10070229D01*
X11760253Y-10251181D02*
X11769777Y-10260705D01*
X11769777Y-10260705D02*
X11760253Y-10270229D01*
X11760253Y-10270229D02*
X11750729Y-10260705D01*
X11750729Y-10260705D02*
X11760253Y-10251181D01*
X11760253Y-10251181D02*
X11760253Y-10270229D01*
X11836443Y-10070229D02*
X11960253Y-10070229D01*
X11960253Y-10070229D02*
X11893586Y-10146419D01*
X11893586Y-10146419D02*
X11922158Y-10146419D01*
X11922158Y-10146419D02*
X11941205Y-10155943D01*
X11941205Y-10155943D02*
X11950729Y-10165467D01*
X11950729Y-10165467D02*
X11960253Y-10184515D01*
X11960253Y-10184515D02*
X11960253Y-10232134D01*
X11960253Y-10232134D02*
X11950729Y-10251181D01*
X11950729Y-10251181D02*
X11941205Y-10260705D01*
X11941205Y-10260705D02*
X11922158Y-10270229D01*
X11922158Y-10270229D02*
X11865015Y-10270229D01*
X11865015Y-10270229D02*
X11845967Y-10260705D01*
X11845967Y-10260705D02*
X11836443Y-10251181D01*
X12084062Y-10070229D02*
X12103110Y-10070229D01*
X12103110Y-10070229D02*
X12122158Y-10079753D01*
X12122158Y-10079753D02*
X12131682Y-10089276D01*
X12131682Y-10089276D02*
X12141205Y-10108324D01*
X12141205Y-10108324D02*
X12150729Y-10146419D01*
X12150729Y-10146419D02*
X12150729Y-10194038D01*
X12150729Y-10194038D02*
X12141205Y-10232134D01*
X12141205Y-10232134D02*
X12131682Y-10251181D01*
X12131682Y-10251181D02*
X12122158Y-10260705D01*
X12122158Y-10260705D02*
X12103110Y-10270229D01*
X12103110Y-10270229D02*
X12084062Y-10270229D01*
X12084062Y-10270229D02*
X12065015Y-10260705D01*
X12065015Y-10260705D02*
X12055491Y-10251181D01*
X12055491Y-10251181D02*
X12045967Y-10232134D01*
X12045967Y-10232134D02*
X12036443Y-10194038D01*
X12036443Y-10194038D02*
X12036443Y-10146419D01*
X12036443Y-10146419D02*
X12045967Y-10108324D01*
X12045967Y-10108324D02*
X12055491Y-10089276D01*
X12055491Y-10089276D02*
X12065015Y-10079753D01*
X12065015Y-10079753D02*
X12084062Y-10070229D01*
X12274539Y-10070229D02*
X12293586Y-10070229D01*
X12293586Y-10070229D02*
X12312634Y-10079753D01*
X12312634Y-10079753D02*
X12322158Y-10089276D01*
X12322158Y-10089276D02*
X12331682Y-10108324D01*
X12331682Y-10108324D02*
X12341205Y-10146419D01*
X12341205Y-10146419D02*
X12341205Y-10194038D01*
X12341205Y-10194038D02*
X12331682Y-10232134D01*
X12331682Y-10232134D02*
X12322158Y-10251181D01*
X12322158Y-10251181D02*
X12312634Y-10260705D01*
X12312634Y-10260705D02*
X12293586Y-10270229D01*
X12293586Y-10270229D02*
X12274539Y-10270229D01*
X12274539Y-10270229D02*
X12255491Y-10260705D01*
X12255491Y-10260705D02*
X12245967Y-10251181D01*
X12245967Y-10251181D02*
X12236443Y-10232134D01*
X12236443Y-10232134D02*
X12226920Y-10194038D01*
X12226920Y-10194038D02*
X12226920Y-10146419D01*
X12226920Y-10146419D02*
X12236443Y-10108324D01*
X12236443Y-10108324D02*
X12245967Y-10089276D01*
X12245967Y-10089276D02*
X12255491Y-10079753D01*
X12255491Y-10079753D02*
X12274539Y-10070229D01*
X12426920Y-10270229D02*
X12426920Y-10136895D01*
X12426920Y-10155943D02*
X12436443Y-10146419D01*
X12436443Y-10146419D02*
X12455491Y-10136895D01*
X12455491Y-10136895D02*
X12484063Y-10136895D01*
X12484063Y-10136895D02*
X12503110Y-10146419D01*
X12503110Y-10146419D02*
X12512634Y-10165467D01*
X12512634Y-10165467D02*
X12512634Y-10270229D01*
X12512634Y-10165467D02*
X12522158Y-10146419D01*
X12522158Y-10146419D02*
X12541205Y-10136895D01*
X12541205Y-10136895D02*
X12569777Y-10136895D01*
X12569777Y-10136895D02*
X12588824Y-10146419D01*
X12588824Y-10146419D02*
X12598348Y-10165467D01*
X12598348Y-10165467D02*
X12598348Y-10270229D01*
X12693586Y-10270229D02*
X12693586Y-10136895D01*
X12693586Y-10155943D02*
X12703110Y-10146419D01*
X12703110Y-10146419D02*
X12722158Y-10136895D01*
X12722158Y-10136895D02*
X12750729Y-10136895D01*
X12750729Y-10136895D02*
X12769777Y-10146419D01*
X12769777Y-10146419D02*
X12779301Y-10165467D01*
X12779301Y-10165467D02*
X12779301Y-10270229D01*
X12779301Y-10165467D02*
X12788824Y-10146419D01*
X12788824Y-10146419D02*
X12807872Y-10136895D01*
X12807872Y-10136895D02*
X12836443Y-10136895D01*
X12836443Y-10136895D02*
X12855491Y-10146419D01*
X12855491Y-10146419D02*
X12865015Y-10165467D01*
X12865015Y-10165467D02*
X12865015Y-10270229D01*
X13255491Y-10060705D02*
X13084063Y-10317848D01*
X13512634Y-10070229D02*
X13531682Y-10070229D01*
X13531682Y-10070229D02*
X13550729Y-10079753D01*
X13550729Y-10079753D02*
X13560253Y-10089276D01*
X13560253Y-10089276D02*
X13569777Y-10108324D01*
X13569777Y-10108324D02*
X13579301Y-10146419D01*
X13579301Y-10146419D02*
X13579301Y-10194038D01*
X13579301Y-10194038D02*
X13569777Y-10232134D01*
X13569777Y-10232134D02*
X13560253Y-10251181D01*
X13560253Y-10251181D02*
X13550729Y-10260705D01*
X13550729Y-10260705D02*
X13531682Y-10270229D01*
X13531682Y-10270229D02*
X13512634Y-10270229D01*
X13512634Y-10270229D02*
X13493586Y-10260705D01*
X13493586Y-10260705D02*
X13484063Y-10251181D01*
X13484063Y-10251181D02*
X13474539Y-10232134D01*
X13474539Y-10232134D02*
X13465015Y-10194038D01*
X13465015Y-10194038D02*
X13465015Y-10146419D01*
X13465015Y-10146419D02*
X13474539Y-10108324D01*
X13474539Y-10108324D02*
X13484063Y-10089276D01*
X13484063Y-10089276D02*
X13493586Y-10079753D01*
X13493586Y-10079753D02*
X13512634Y-10070229D01*
X13665015Y-10251181D02*
X13674539Y-10260705D01*
X13674539Y-10260705D02*
X13665015Y-10270229D01*
X13665015Y-10270229D02*
X13655491Y-10260705D01*
X13655491Y-10260705D02*
X13665015Y-10251181D01*
X13665015Y-10251181D02*
X13665015Y-10270229D01*
X13798348Y-10070229D02*
X13817396Y-10070229D01*
X13817396Y-10070229D02*
X13836444Y-10079753D01*
X13836444Y-10079753D02*
X13845967Y-10089276D01*
X13845967Y-10089276D02*
X13855491Y-10108324D01*
X13855491Y-10108324D02*
X13865015Y-10146419D01*
X13865015Y-10146419D02*
X13865015Y-10194038D01*
X13865015Y-10194038D02*
X13855491Y-10232134D01*
X13855491Y-10232134D02*
X13845967Y-10251181D01*
X13845967Y-10251181D02*
X13836444Y-10260705D01*
X13836444Y-10260705D02*
X13817396Y-10270229D01*
X13817396Y-10270229D02*
X13798348Y-10270229D01*
X13798348Y-10270229D02*
X13779301Y-10260705D01*
X13779301Y-10260705D02*
X13769777Y-10251181D01*
X13769777Y-10251181D02*
X13760253Y-10232134D01*
X13760253Y-10232134D02*
X13750729Y-10194038D01*
X13750729Y-10194038D02*
X13750729Y-10146419D01*
X13750729Y-10146419D02*
X13760253Y-10108324D01*
X13760253Y-10108324D02*
X13769777Y-10089276D01*
X13769777Y-10089276D02*
X13779301Y-10079753D01*
X13779301Y-10079753D02*
X13798348Y-10070229D01*
X14055491Y-10270229D02*
X13941206Y-10270229D01*
X13998348Y-10270229D02*
X13998348Y-10070229D01*
X13998348Y-10070229D02*
X13979301Y-10098800D01*
X13979301Y-10098800D02*
X13960253Y-10117848D01*
X13960253Y-10117848D02*
X13941206Y-10127372D01*
X14245967Y-10270229D02*
X14131682Y-10270229D01*
X14188825Y-10270229D02*
X14188825Y-10070229D01*
X14188825Y-10070229D02*
X14169777Y-10098800D01*
X14169777Y-10098800D02*
X14150729Y-10117848D01*
X14150729Y-10117848D02*
X14131682Y-10127372D01*
X14360253Y-10155943D02*
X14341206Y-10146419D01*
X14341206Y-10146419D02*
X14331682Y-10136895D01*
X14331682Y-10136895D02*
X14322158Y-10117848D01*
X14322158Y-10117848D02*
X14322158Y-10108324D01*
X14322158Y-10108324D02*
X14331682Y-10089276D01*
X14331682Y-10089276D02*
X14341206Y-10079753D01*
X14341206Y-10079753D02*
X14360253Y-10070229D01*
X14360253Y-10070229D02*
X14398348Y-10070229D01*
X14398348Y-10070229D02*
X14417396Y-10079753D01*
X14417396Y-10079753D02*
X14426920Y-10089276D01*
X14426920Y-10089276D02*
X14436444Y-10108324D01*
X14436444Y-10108324D02*
X14436444Y-10117848D01*
X14436444Y-10117848D02*
X14426920Y-10136895D01*
X14426920Y-10136895D02*
X14417396Y-10146419D01*
X14417396Y-10146419D02*
X14398348Y-10155943D01*
X14398348Y-10155943D02*
X14360253Y-10155943D01*
X14360253Y-10155943D02*
X14341206Y-10165467D01*
X14341206Y-10165467D02*
X14331682Y-10174991D01*
X14331682Y-10174991D02*
X14322158Y-10194038D01*
X14322158Y-10194038D02*
X14322158Y-10232134D01*
X14322158Y-10232134D02*
X14331682Y-10251181D01*
X14331682Y-10251181D02*
X14341206Y-10260705D01*
X14341206Y-10260705D02*
X14360253Y-10270229D01*
X14360253Y-10270229D02*
X14398348Y-10270229D01*
X14398348Y-10270229D02*
X14417396Y-10260705D01*
X14417396Y-10260705D02*
X14426920Y-10251181D01*
X14426920Y-10251181D02*
X14436444Y-10232134D01*
X14436444Y-10232134D02*
X14436444Y-10194038D01*
X14436444Y-10194038D02*
X14426920Y-10174991D01*
X14426920Y-10174991D02*
X14417396Y-10165467D01*
X14417396Y-10165467D02*
X14398348Y-10155943D01*
X14512634Y-10070229D02*
X14512634Y-10108324D01*
X14588825Y-10070229D02*
X14588825Y-10108324D01*
X14884063Y-10346419D02*
X14874539Y-10336895D01*
X14874539Y-10336895D02*
X14855491Y-10308324D01*
X14855491Y-10308324D02*
X14845968Y-10289276D01*
X14845968Y-10289276D02*
X14836444Y-10260705D01*
X14836444Y-10260705D02*
X14826920Y-10213086D01*
X14826920Y-10213086D02*
X14826920Y-10174991D01*
X14826920Y-10174991D02*
X14836444Y-10127372D01*
X14836444Y-10127372D02*
X14845968Y-10098800D01*
X14845968Y-10098800D02*
X14855491Y-10079753D01*
X14855491Y-10079753D02*
X14874539Y-10051181D01*
X14874539Y-10051181D02*
X14884063Y-10041657D01*
X15045968Y-10070229D02*
X15007872Y-10070229D01*
X15007872Y-10070229D02*
X14988825Y-10079753D01*
X14988825Y-10079753D02*
X14979301Y-10089276D01*
X14979301Y-10089276D02*
X14960253Y-10117848D01*
X14960253Y-10117848D02*
X14950729Y-10155943D01*
X14950729Y-10155943D02*
X14950729Y-10232134D01*
X14950729Y-10232134D02*
X14960253Y-10251181D01*
X14960253Y-10251181D02*
X14969777Y-10260705D01*
X14969777Y-10260705D02*
X14988825Y-10270229D01*
X14988825Y-10270229D02*
X15026920Y-10270229D01*
X15026920Y-10270229D02*
X15045968Y-10260705D01*
X15045968Y-10260705D02*
X15055491Y-10251181D01*
X15055491Y-10251181D02*
X15065015Y-10232134D01*
X15065015Y-10232134D02*
X15065015Y-10184515D01*
X15065015Y-10184515D02*
X15055491Y-10165467D01*
X15055491Y-10165467D02*
X15045968Y-10155943D01*
X15045968Y-10155943D02*
X15026920Y-10146419D01*
X15026920Y-10146419D02*
X14988825Y-10146419D01*
X14988825Y-10146419D02*
X14969777Y-10155943D01*
X14969777Y-10155943D02*
X14960253Y-10165467D01*
X14960253Y-10165467D02*
X14950729Y-10184515D01*
X15236444Y-10070229D02*
X15198348Y-10070229D01*
X15198348Y-10070229D02*
X15179301Y-10079753D01*
X15179301Y-10079753D02*
X15169777Y-10089276D01*
X15169777Y-10089276D02*
X15150729Y-10117848D01*
X15150729Y-10117848D02*
X15141206Y-10155943D01*
X15141206Y-10155943D02*
X15141206Y-10232134D01*
X15141206Y-10232134D02*
X15150729Y-10251181D01*
X15150729Y-10251181D02*
X15160253Y-10260705D01*
X15160253Y-10260705D02*
X15179301Y-10270229D01*
X15179301Y-10270229D02*
X15217396Y-10270229D01*
X15217396Y-10270229D02*
X15236444Y-10260705D01*
X15236444Y-10260705D02*
X15245968Y-10251181D01*
X15245968Y-10251181D02*
X15255491Y-10232134D01*
X15255491Y-10232134D02*
X15255491Y-10184515D01*
X15255491Y-10184515D02*
X15245968Y-10165467D01*
X15245968Y-10165467D02*
X15236444Y-10155943D01*
X15236444Y-10155943D02*
X15217396Y-10146419D01*
X15217396Y-10146419D02*
X15179301Y-10146419D01*
X15179301Y-10146419D02*
X15160253Y-10155943D01*
X15160253Y-10155943D02*
X15150729Y-10165467D01*
X15150729Y-10165467D02*
X15141206Y-10184515D01*
X15493587Y-10270229D02*
X15493587Y-10070229D01*
X15579301Y-10270229D02*
X15579301Y-10165467D01*
X15579301Y-10165467D02*
X15569777Y-10146419D01*
X15569777Y-10146419D02*
X15550730Y-10136895D01*
X15550730Y-10136895D02*
X15522158Y-10136895D01*
X15522158Y-10136895D02*
X15503110Y-10146419D01*
X15503110Y-10146419D02*
X15493587Y-10155943D01*
X15703110Y-10270229D02*
X15684063Y-10260705D01*
X15684063Y-10260705D02*
X15674539Y-10251181D01*
X15674539Y-10251181D02*
X15665015Y-10232134D01*
X15665015Y-10232134D02*
X15665015Y-10174991D01*
X15665015Y-10174991D02*
X15674539Y-10155943D01*
X15674539Y-10155943D02*
X15684063Y-10146419D01*
X15684063Y-10146419D02*
X15703110Y-10136895D01*
X15703110Y-10136895D02*
X15731682Y-10136895D01*
X15731682Y-10136895D02*
X15750730Y-10146419D01*
X15750730Y-10146419D02*
X15760253Y-10155943D01*
X15760253Y-10155943D02*
X15769777Y-10174991D01*
X15769777Y-10174991D02*
X15769777Y-10232134D01*
X15769777Y-10232134D02*
X15760253Y-10251181D01*
X15760253Y-10251181D02*
X15750730Y-10260705D01*
X15750730Y-10260705D02*
X15731682Y-10270229D01*
X15731682Y-10270229D02*
X15703110Y-10270229D01*
X15884063Y-10270229D02*
X15865015Y-10260705D01*
X15865015Y-10260705D02*
X15855491Y-10241657D01*
X15855491Y-10241657D02*
X15855491Y-10070229D01*
X16036444Y-10260705D02*
X16017396Y-10270229D01*
X16017396Y-10270229D02*
X15979301Y-10270229D01*
X15979301Y-10270229D02*
X15960253Y-10260705D01*
X15960253Y-10260705D02*
X15950730Y-10241657D01*
X15950730Y-10241657D02*
X15950730Y-10165467D01*
X15950730Y-10165467D02*
X15960253Y-10146419D01*
X15960253Y-10146419D02*
X15979301Y-10136895D01*
X15979301Y-10136895D02*
X16017396Y-10136895D01*
X16017396Y-10136895D02*
X16036444Y-10146419D01*
X16036444Y-10146419D02*
X16045968Y-10165467D01*
X16045968Y-10165467D02*
X16045968Y-10184515D01*
X16045968Y-10184515D02*
X15950730Y-10203562D01*
X16122158Y-10260705D02*
X16141206Y-10270229D01*
X16141206Y-10270229D02*
X16179301Y-10270229D01*
X16179301Y-10270229D02*
X16198349Y-10260705D01*
X16198349Y-10260705D02*
X16207872Y-10241657D01*
X16207872Y-10241657D02*
X16207872Y-10232134D01*
X16207872Y-10232134D02*
X16198349Y-10213086D01*
X16198349Y-10213086D02*
X16179301Y-10203562D01*
X16179301Y-10203562D02*
X16150730Y-10203562D01*
X16150730Y-10203562D02*
X16131682Y-10194038D01*
X16131682Y-10194038D02*
X16122158Y-10174991D01*
X16122158Y-10174991D02*
X16122158Y-10165467D01*
X16122158Y-10165467D02*
X16131682Y-10146419D01*
X16131682Y-10146419D02*
X16150730Y-10136895D01*
X16150730Y-10136895D02*
X16179301Y-10136895D01*
X16179301Y-10136895D02*
X16198349Y-10146419D01*
X16274539Y-10346419D02*
X16284063Y-10336895D01*
X16284063Y-10336895D02*
X16303111Y-10308324D01*
X16303111Y-10308324D02*
X16312634Y-10289276D01*
X16312634Y-10289276D02*
X16322158Y-10260705D01*
X16322158Y-10260705D02*
X16331682Y-10213086D01*
X16331682Y-10213086D02*
X16331682Y-10174991D01*
X16331682Y-10174991D02*
X16322158Y-10127372D01*
X16322158Y-10127372D02*
X16312634Y-10098800D01*
X16312634Y-10098800D02*
X16303111Y-10079753D01*
X16303111Y-10079753D02*
X16284063Y-10051181D01*
X16284063Y-10051181D02*
X16274539Y-10041657D01*
M02*
