G04 #@! TF.GenerationSoftware,KiCad,Pcbnew,9.0.1*
G04 #@! TF.CreationDate,2025-06-29T19:09:30+12:00*
G04 #@! TF.ProjectId,pdp-11-colour,7064702d-3131-42d6-936f-6c6f75722e6b,rev?*
G04 #@! TF.SameCoordinates,Original*
G04 #@! TF.FileFunction,Copper,L2,Inr*
G04 #@! TF.FilePolarity,Positive*
%FSLAX46Y46*%
G04 Gerber Fmt 4.6, Leading zero omitted, Abs format (unit mm)*
G04 Created by KiCad (PCBNEW 9.0.1) date 2025-06-29 19:09:30*
%MOMM*%
%LPD*%
G01*
G04 APERTURE LIST*
G04 #@! TA.AperFunction,ViaPad*
%ADD10C,0.600000*%
G04 #@! TD*
G04 #@! TA.AperFunction,Conductor*
%ADD11C,0.800000*%
G04 #@! TD*
G04 #@! TA.AperFunction,Conductor*
%ADD12C,0.200000*%
G04 #@! TD*
G04 APERTURE END LIST*
D10*
X194750000Y-93050000D03*
X211410000Y-92990000D03*
X160900000Y-93675000D03*
X186944000Y-53340000D03*
X169320000Y-92890000D03*
X174430130Y-52907550D03*
X126700000Y-94550000D03*
X144950000Y-94550000D03*
X187470000Y-92540000D03*
X162798472Y-53308550D03*
X171900000Y-92900000D03*
X131760000Y-92870000D03*
X180225343Y-93159635D03*
X207125000Y-92575000D03*
X151400000Y-93325000D03*
X141075000Y-54225000D03*
X160750000Y-53308550D03*
X141425000Y-93675000D03*
X166300000Y-53875000D03*
X155475000Y-92600000D03*
X114300000Y-80518000D03*
X185287500Y-55626000D03*
X179832000Y-55880000D03*
X171107135Y-53308550D03*
X180850000Y-53650000D03*
X149550000Y-93350000D03*
X179832000Y-55372000D03*
X136150000Y-53600000D03*
X181350000Y-55626000D03*
X212315000Y-64825995D03*
X176075000Y-53507550D03*
X169048527Y-53875000D03*
X212315000Y-65625998D03*
X172675000Y-53575000D03*
X168200000Y-53875000D03*
X212275000Y-66425000D03*
X162050000Y-53675000D03*
X159025000Y-53308550D03*
X155750000Y-53709550D03*
X210825000Y-73277071D03*
X152650000Y-92975000D03*
X156450000Y-94161450D03*
X144275000Y-93125000D03*
X212175000Y-71882000D03*
X158025000Y-94562450D03*
X158500000Y-92850000D03*
X211575000Y-72677071D03*
X183861639Y-92682393D03*
X211650000Y-57150000D03*
X193294000Y-52907550D03*
X182372000Y-92710000D03*
X211650000Y-59182000D03*
X178600000Y-92958450D03*
X184658000Y-92758635D03*
X211650000Y-58166000D03*
X191770000Y-53594000D03*
X115316000Y-89154000D03*
X189830000Y-53594000D03*
X115316000Y-84074000D03*
X211582000Y-56134000D03*
X118110000Y-93726000D03*
X118110000Y-92925997D03*
X114300000Y-79248000D03*
X192570003Y-53594000D03*
X115316000Y-86614000D03*
X190754000Y-53594000D03*
D11*
X194750000Y-93050000D02*
X195970000Y-94270000D01*
X193740365Y-94059635D02*
X194750000Y-93050000D01*
X168129000Y-91699000D02*
X169320000Y-92890000D01*
X132931000Y-91699000D02*
X168129000Y-91699000D01*
X186925000Y-94034635D02*
X186950000Y-94059635D01*
X187470000Y-92540000D02*
X186925000Y-93085000D01*
X173461450Y-94461450D02*
X186548185Y-94461450D01*
X186950000Y-94059635D02*
X193740365Y-94059635D01*
X131760000Y-92870000D02*
X132931000Y-91699000D01*
X186925000Y-93085000D02*
X186925000Y-94034635D01*
X210130000Y-94270000D02*
X211410000Y-92990000D01*
X195970000Y-94270000D02*
X210130000Y-94270000D01*
X186548185Y-94461450D02*
X186950000Y-94059635D01*
X171900000Y-92900000D02*
X173461450Y-94461450D01*
D12*
X183861639Y-92490361D02*
X186222000Y-90130000D01*
X207605900Y-90130000D02*
X187706000Y-90130000D01*
X211650000Y-57150000D02*
X208026000Y-60774000D01*
X208026000Y-89709900D02*
X207605900Y-90130000D01*
X186222000Y-90130000D02*
X187706000Y-90130000D01*
X183861639Y-92682393D02*
X183861639Y-92490361D01*
X208026000Y-60774000D02*
X208026000Y-89709900D01*
X182372000Y-92710000D02*
X182372000Y-90678000D01*
X196342000Y-84836000D02*
X197358000Y-83820000D01*
X188214000Y-84836000D02*
X196342000Y-84836000D01*
X182372000Y-90678000D02*
X188214000Y-84836000D01*
X197358000Y-56971550D02*
X193294000Y-52907550D01*
X197358000Y-83820000D02*
X197358000Y-56971550D01*
X179978815Y-92557635D02*
X180441635Y-92557635D01*
X181676101Y-93760450D02*
X184623550Y-93760450D01*
X180442635Y-92558635D02*
X180474286Y-92558635D01*
X209042000Y-61790000D02*
X211650000Y-59182000D01*
X179624343Y-92912107D02*
X179624343Y-92910692D01*
X178600000Y-92958450D02*
X179578000Y-92958450D01*
X209042000Y-90170001D02*
X209042000Y-61790000D01*
X180474286Y-92558635D02*
X181676101Y-93760450D01*
X179977815Y-92558635D02*
X179978815Y-92557635D01*
X180441635Y-92557635D02*
X180442635Y-92558635D01*
X179624343Y-92910692D02*
X179976400Y-92558635D01*
X179976400Y-92558635D02*
X179977815Y-92558635D01*
X208280001Y-90932000D02*
X209042000Y-90170001D01*
X187452000Y-90932000D02*
X208280001Y-90932000D01*
X184623550Y-93760450D02*
X187452000Y-90932000D01*
X179578000Y-92958450D02*
X179624343Y-92912107D01*
X208534000Y-61282000D02*
X208534000Y-89769000D01*
X208534000Y-89769000D02*
X207772000Y-90531000D01*
X211650000Y-58166000D02*
X208534000Y-61282000D01*
X207772000Y-90531000D02*
X186837000Y-90531000D01*
X184658000Y-92710000D02*
X184658000Y-92758635D01*
X186837000Y-90531000D02*
X184658000Y-92710000D01*
X195834000Y-57912000D02*
X191770000Y-53848000D01*
X191770000Y-53848000D02*
X191770000Y-53594000D01*
X115316000Y-89154000D02*
X120396000Y-89154000D01*
X127000000Y-82550000D02*
X195834000Y-82550000D01*
X120396000Y-89154000D02*
X127000000Y-82550000D01*
X195834000Y-82550000D02*
X195834000Y-57912000D01*
X121158000Y-84074000D02*
X123952000Y-81280000D01*
X189830000Y-53686000D02*
X189830000Y-53594000D01*
X123952000Y-81280000D02*
X193035018Y-81280000D01*
X115316000Y-84074000D02*
X121158000Y-84074000D01*
X193035018Y-81280000D02*
X194310000Y-80005018D01*
X194310000Y-58166000D02*
X189830000Y-53686000D01*
X194310000Y-80005018D02*
X194310000Y-58166000D01*
X181262043Y-92616043D02*
X182005450Y-93359450D01*
X183260639Y-92830996D02*
X183260639Y-92433450D01*
X183260639Y-92433450D02*
X185965089Y-89729000D01*
X207625000Y-89301000D02*
X207625000Y-60091000D01*
X181262043Y-92156635D02*
X181262043Y-92616043D01*
X125476000Y-87630000D02*
X176735408Y-87630000D01*
X185965089Y-89729000D02*
X207197000Y-89729000D01*
X182732185Y-93359450D02*
X183260639Y-92830996D01*
X207625000Y-60091000D02*
X211582000Y-56134000D01*
X119380000Y-93726000D02*
X125476000Y-87630000D01*
X207197000Y-89729000D02*
X207625000Y-89301000D01*
X176735408Y-87630000D02*
X181262043Y-92156635D01*
X182005450Y-93359450D02*
X182732185Y-93359450D01*
X118110000Y-93726000D02*
X119380000Y-93726000D01*
X118110000Y-92925997D02*
X118148003Y-92925997D01*
X196596000Y-83058000D02*
X196596000Y-57404000D01*
X128016000Y-83058000D02*
X196596000Y-83058000D01*
X192786000Y-53594000D02*
X192570003Y-53594000D01*
X196596000Y-57404000D02*
X192786000Y-53594000D01*
X118148003Y-92925997D02*
X128016000Y-83058000D01*
X195072000Y-80518000D02*
X195072000Y-58166000D01*
X120709100Y-86614000D02*
X125281100Y-82042000D01*
X195326000Y-80772000D02*
X195072000Y-80518000D01*
X115316000Y-86614000D02*
X120709100Y-86614000D01*
X195072000Y-58166000D02*
X190754000Y-53848000D01*
X194056000Y-82042000D02*
X195326000Y-80772000D01*
X190754000Y-53848000D02*
X190754000Y-53594000D01*
X125281100Y-82042000D02*
X194056000Y-82042000D01*
G04 #@! TA.AperFunction,Conductor*
G36*
X158439198Y-52549635D02*
G01*
X158484953Y-52602439D01*
X158494897Y-52671597D01*
X158465872Y-52735153D01*
X158459840Y-52741631D01*
X158403213Y-52798257D01*
X158403210Y-52798261D01*
X158315609Y-52929364D01*
X158315602Y-52929377D01*
X158255264Y-53075048D01*
X158255261Y-53075060D01*
X158224500Y-53229703D01*
X158224500Y-53387396D01*
X158255261Y-53542039D01*
X158255264Y-53542051D01*
X158315602Y-53687722D01*
X158315609Y-53687735D01*
X158403210Y-53818838D01*
X158403213Y-53818842D01*
X158514707Y-53930336D01*
X158514711Y-53930339D01*
X158645814Y-54017940D01*
X158645827Y-54017947D01*
X158733315Y-54054185D01*
X158791503Y-54078287D01*
X158922218Y-54104288D01*
X158946153Y-54109049D01*
X158946156Y-54109050D01*
X158946158Y-54109050D01*
X159103844Y-54109050D01*
X159103845Y-54109049D01*
X159258497Y-54078287D01*
X159404179Y-54017944D01*
X159535289Y-53930339D01*
X159646789Y-53818839D01*
X159734394Y-53687729D01*
X159794737Y-53542047D01*
X159825500Y-53387392D01*
X159825500Y-53229708D01*
X159825500Y-53229705D01*
X159825499Y-53229703D01*
X159807864Y-53141047D01*
X159794737Y-53075053D01*
X159785690Y-53053211D01*
X159734397Y-52929377D01*
X159734390Y-52929364D01*
X159646789Y-52798261D01*
X159646786Y-52798257D01*
X159590160Y-52741631D01*
X159556675Y-52680308D01*
X159561659Y-52610616D01*
X159603531Y-52554683D01*
X159668995Y-52530266D01*
X159677841Y-52529950D01*
X162145631Y-52529950D01*
X162163588Y-52535222D01*
X162182305Y-52535497D01*
X162196420Y-52544863D01*
X162212670Y-52549635D01*
X162224926Y-52563779D01*
X162240523Y-52574129D01*
X162247333Y-52589638D01*
X162258425Y-52602439D01*
X162261088Y-52620965D01*
X162268614Y-52638103D01*
X162265958Y-52654831D01*
X162268369Y-52671597D01*
X162260593Y-52688622D01*
X162257659Y-52707108D01*
X162242032Y-52729265D01*
X162239344Y-52735153D01*
X162238145Y-52736517D01*
X162235804Y-52739139D01*
X162176683Y-52798261D01*
X162157747Y-52826600D01*
X162151976Y-52833067D01*
X162129373Y-52847128D01*
X162108952Y-52864196D01*
X162098415Y-52866389D01*
X162092651Y-52869976D01*
X162081943Y-52869819D01*
X162059462Y-52874500D01*
X161971155Y-52874500D01*
X161816510Y-52905261D01*
X161816498Y-52905264D01*
X161670827Y-52965602D01*
X161670814Y-52965609D01*
X161539711Y-53053210D01*
X161539707Y-53053213D01*
X161428213Y-53164707D01*
X161428210Y-53164711D01*
X161340609Y-53295814D01*
X161340602Y-53295827D01*
X161280264Y-53441498D01*
X161280261Y-53441510D01*
X161249500Y-53596153D01*
X161249500Y-53753846D01*
X161280261Y-53908489D01*
X161280264Y-53908501D01*
X161340602Y-54054172D01*
X161340609Y-54054185D01*
X161428210Y-54185288D01*
X161428213Y-54185292D01*
X161539707Y-54296786D01*
X161539711Y-54296789D01*
X161670814Y-54384390D01*
X161670827Y-54384397D01*
X161816498Y-54444735D01*
X161816503Y-54444737D01*
X161971153Y-54475499D01*
X161971156Y-54475500D01*
X161971158Y-54475500D01*
X162128844Y-54475500D01*
X162128845Y-54475499D01*
X162283497Y-54444737D01*
X162429179Y-54384394D01*
X162560289Y-54296789D01*
X162671789Y-54185289D01*
X162685908Y-54164159D01*
X162739520Y-54119354D01*
X162789010Y-54109050D01*
X162877316Y-54109050D01*
X162877317Y-54109049D01*
X163031969Y-54078287D01*
X163177651Y-54017944D01*
X163308761Y-53930339D01*
X163420261Y-53818839D01*
X163435419Y-53796153D01*
X167399500Y-53796153D01*
X167399500Y-53953846D01*
X167430261Y-54108489D01*
X167430264Y-54108501D01*
X167490602Y-54254172D01*
X167490609Y-54254185D01*
X167578210Y-54385288D01*
X167578213Y-54385292D01*
X167689707Y-54496786D01*
X167689711Y-54496789D01*
X167820814Y-54584390D01*
X167820827Y-54584397D01*
X167966498Y-54644735D01*
X167966503Y-54644737D01*
X168121153Y-54675499D01*
X168121156Y-54675500D01*
X168121158Y-54675500D01*
X168278844Y-54675500D01*
X168278845Y-54675499D01*
X168433497Y-54644737D01*
X168576811Y-54585375D01*
X168646280Y-54577906D01*
X168671715Y-54585375D01*
X168815025Y-54644735D01*
X168815030Y-54644737D01*
X168969680Y-54675499D01*
X168969683Y-54675500D01*
X168969685Y-54675500D01*
X169127371Y-54675500D01*
X169127372Y-54675499D01*
X169282024Y-54644737D01*
X169427706Y-54584394D01*
X169558816Y-54496789D01*
X169670316Y-54385289D01*
X169757921Y-54254179D01*
X169818264Y-54108497D01*
X169849027Y-53953842D01*
X169849027Y-53796158D01*
X169849027Y-53796155D01*
X169849026Y-53796153D01*
X169847482Y-53788392D01*
X169818264Y-53641503D01*
X169808093Y-53616947D01*
X169758059Y-53496153D01*
X171874500Y-53496153D01*
X171874500Y-53653846D01*
X171905261Y-53808489D01*
X171905264Y-53808501D01*
X171965602Y-53954172D01*
X171965609Y-53954185D01*
X172053210Y-54085288D01*
X172053213Y-54085292D01*
X172164707Y-54196786D01*
X172164711Y-54196789D01*
X172295814Y-54284390D01*
X172295827Y-54284397D01*
X172409157Y-54331339D01*
X172441503Y-54344737D01*
X172577517Y-54371792D01*
X172596153Y-54375499D01*
X172596156Y-54375500D01*
X172596158Y-54375500D01*
X172753844Y-54375500D01*
X172753845Y-54375499D01*
X172908497Y-54344737D01*
X173054179Y-54284394D01*
X173185289Y-54196789D01*
X173296789Y-54085289D01*
X173384394Y-53954179D01*
X173444737Y-53808497D01*
X173475500Y-53653842D01*
X173475500Y-53496158D01*
X173475500Y-53496155D01*
X173475499Y-53496153D01*
X173462083Y-53428708D01*
X173444737Y-53341503D01*
X173444735Y-53341498D01*
X173384397Y-53195827D01*
X173384390Y-53195814D01*
X173296789Y-53064711D01*
X173296786Y-53064707D01*
X173185292Y-52953213D01*
X173185288Y-52953210D01*
X173054185Y-52865609D01*
X173054172Y-52865602D01*
X172908501Y-52805264D01*
X172908491Y-52805261D01*
X172771189Y-52777950D01*
X172771186Y-52777950D01*
X172753842Y-52774500D01*
X172596158Y-52774500D01*
X172578814Y-52777950D01*
X172578811Y-52777950D01*
X172441508Y-52805261D01*
X172441498Y-52805264D01*
X172295827Y-52865602D01*
X172295814Y-52865609D01*
X172164711Y-52953210D01*
X172164707Y-52953213D01*
X172053213Y-53064707D01*
X172053210Y-53064711D01*
X171965609Y-53195814D01*
X171965602Y-53195827D01*
X171905264Y-53341498D01*
X171905261Y-53341510D01*
X171874500Y-53496153D01*
X169758059Y-53496153D01*
X169757924Y-53495827D01*
X169757917Y-53495814D01*
X169670316Y-53364711D01*
X169670313Y-53364707D01*
X169558819Y-53253213D01*
X169558815Y-53253210D01*
X169427712Y-53165609D01*
X169427699Y-53165602D01*
X169282028Y-53105264D01*
X169282016Y-53105261D01*
X169127372Y-53074500D01*
X169127369Y-53074500D01*
X168969685Y-53074500D01*
X168969682Y-53074500D01*
X168815037Y-53105261D01*
X168815025Y-53105264D01*
X168671715Y-53164625D01*
X168602246Y-53172094D01*
X168576811Y-53164625D01*
X168433501Y-53105264D01*
X168433489Y-53105261D01*
X168278845Y-53074500D01*
X168278842Y-53074500D01*
X168121158Y-53074500D01*
X168121155Y-53074500D01*
X167966510Y-53105261D01*
X167966498Y-53105264D01*
X167820827Y-53165602D01*
X167820814Y-53165609D01*
X167689711Y-53253210D01*
X167689707Y-53253213D01*
X167578213Y-53364707D01*
X167578210Y-53364711D01*
X167490609Y-53495814D01*
X167490602Y-53495827D01*
X167430264Y-53641498D01*
X167430261Y-53641510D01*
X167399500Y-53796153D01*
X163435419Y-53796153D01*
X163463691Y-53753842D01*
X163485519Y-53721175D01*
X163507863Y-53687733D01*
X163507866Y-53687729D01*
X163568209Y-53542047D01*
X163598972Y-53387392D01*
X163598972Y-53229708D01*
X163598972Y-53229705D01*
X163598971Y-53229703D01*
X163581336Y-53141047D01*
X163568209Y-53075053D01*
X163559162Y-53053211D01*
X163507869Y-52929377D01*
X163507862Y-52929364D01*
X163420261Y-52798261D01*
X163420258Y-52798257D01*
X163363632Y-52741631D01*
X163330147Y-52680308D01*
X163335131Y-52610616D01*
X163377003Y-52554683D01*
X163442467Y-52530266D01*
X163451313Y-52529950D01*
X173537962Y-52529950D01*
X173605001Y-52549635D01*
X173650756Y-52602439D01*
X173660700Y-52671597D01*
X173659579Y-52678141D01*
X173629630Y-52828703D01*
X173629630Y-52986396D01*
X173660391Y-53141039D01*
X173660394Y-53141051D01*
X173720732Y-53286722D01*
X173720739Y-53286735D01*
X173808340Y-53417838D01*
X173808343Y-53417842D01*
X173919837Y-53529336D01*
X173919841Y-53529339D01*
X174050944Y-53616940D01*
X174050957Y-53616947D01*
X174185911Y-53672846D01*
X174196633Y-53677287D01*
X174351283Y-53708049D01*
X174351286Y-53708050D01*
X174351288Y-53708050D01*
X174508974Y-53708050D01*
X174508975Y-53708049D01*
X174663627Y-53677287D01*
X174809309Y-53616944D01*
X174940419Y-53529339D01*
X175051919Y-53417839D01*
X175051920Y-53417836D01*
X175054644Y-53414519D01*
X175112388Y-53375182D01*
X175182233Y-53373309D01*
X175242002Y-53409494D01*
X175272721Y-53472249D01*
X175274500Y-53493180D01*
X175274500Y-53586396D01*
X175305261Y-53741039D01*
X175305264Y-53741051D01*
X175365602Y-53886722D01*
X175365609Y-53886735D01*
X175453210Y-54017838D01*
X175453213Y-54017842D01*
X175564707Y-54129336D01*
X175564711Y-54129339D01*
X175695814Y-54216940D01*
X175695827Y-54216947D01*
X175785729Y-54254185D01*
X175841503Y-54277287D01*
X175939546Y-54296789D01*
X175996153Y-54308049D01*
X175996156Y-54308050D01*
X175996158Y-54308050D01*
X176153844Y-54308050D01*
X176153845Y-54308049D01*
X176308497Y-54277287D01*
X176454179Y-54216944D01*
X176585289Y-54129339D01*
X176696789Y-54017839D01*
X176784394Y-53886729D01*
X176844737Y-53741047D01*
X176875500Y-53586392D01*
X176875500Y-53428708D01*
X176875500Y-53428705D01*
X176875499Y-53428703D01*
X176873538Y-53418844D01*
X176844737Y-53274053D01*
X176820205Y-53214827D01*
X176784397Y-53128377D01*
X176784390Y-53128364D01*
X176696789Y-52997261D01*
X176696786Y-52997257D01*
X176585292Y-52885763D01*
X176585288Y-52885760D01*
X176454185Y-52798159D01*
X176454172Y-52798152D01*
X176382610Y-52768511D01*
X176328206Y-52724671D01*
X176306141Y-52658376D01*
X176323420Y-52590677D01*
X176374557Y-52543066D01*
X176430062Y-52529950D01*
X186322609Y-52529950D01*
X186389648Y-52549635D01*
X186435403Y-52602439D01*
X186445347Y-52671597D01*
X186416322Y-52735153D01*
X186410290Y-52741631D01*
X186322213Y-52829707D01*
X186322210Y-52829711D01*
X186234609Y-52960814D01*
X186234602Y-52960827D01*
X186174264Y-53106498D01*
X186174261Y-53106510D01*
X186143500Y-53261153D01*
X186143500Y-53418846D01*
X186174261Y-53573489D01*
X186174264Y-53573501D01*
X186234602Y-53719172D01*
X186234609Y-53719185D01*
X186322210Y-53850288D01*
X186322213Y-53850292D01*
X186433707Y-53961786D01*
X186433711Y-53961789D01*
X186564814Y-54049390D01*
X186564827Y-54049397D01*
X186707490Y-54108489D01*
X186710503Y-54109737D01*
X186865153Y-54140499D01*
X186865156Y-54140500D01*
X186865158Y-54140500D01*
X187022844Y-54140500D01*
X187022845Y-54140499D01*
X187177497Y-54109737D01*
X187290166Y-54063067D01*
X187323172Y-54049397D01*
X187323172Y-54049396D01*
X187323179Y-54049394D01*
X187454289Y-53961789D01*
X187565789Y-53850289D01*
X187653394Y-53719179D01*
X187713737Y-53573497D01*
X187744500Y-53418842D01*
X187744500Y-53261158D01*
X187744500Y-53261155D01*
X187744499Y-53261153D01*
X187738244Y-53229708D01*
X187713737Y-53106503D01*
X187705974Y-53087761D01*
X187653397Y-52960827D01*
X187653390Y-52960814D01*
X187565789Y-52829711D01*
X187565786Y-52829707D01*
X187477710Y-52741631D01*
X187444225Y-52680308D01*
X187449209Y-52610616D01*
X187491081Y-52554683D01*
X187556545Y-52530266D01*
X187565391Y-52529950D01*
X192401832Y-52529950D01*
X192468871Y-52549635D01*
X192514626Y-52602439D01*
X192524570Y-52671597D01*
X192523449Y-52678144D01*
X192517051Y-52710305D01*
X192511073Y-52721731D01*
X192509586Y-52734538D01*
X192495189Y-52752094D01*
X192484664Y-52772215D01*
X192472428Y-52779852D01*
X192465283Y-52788566D01*
X192444479Y-52797297D01*
X192433589Y-52804095D01*
X192426705Y-52806321D01*
X192336506Y-52824263D01*
X192212878Y-52875470D01*
X192208156Y-52876998D01*
X192177990Y-52877817D01*
X192147983Y-52881044D01*
X192140468Y-52878837D01*
X192138312Y-52878896D01*
X192136088Y-52877551D01*
X192122549Y-52873575D01*
X192003501Y-52824264D01*
X192003489Y-52824261D01*
X191848845Y-52793500D01*
X191848842Y-52793500D01*
X191691158Y-52793500D01*
X191691155Y-52793500D01*
X191536510Y-52824261D01*
X191536498Y-52824264D01*
X191390828Y-52884602D01*
X191390815Y-52884609D01*
X191330891Y-52924650D01*
X191264213Y-52945528D01*
X191196833Y-52927043D01*
X191193109Y-52924650D01*
X191133184Y-52884609D01*
X191133181Y-52884607D01*
X191133179Y-52884606D01*
X191133176Y-52884604D01*
X191133171Y-52884602D01*
X190987501Y-52824264D01*
X190987489Y-52824261D01*
X190832845Y-52793500D01*
X190832842Y-52793500D01*
X190675158Y-52793500D01*
X190675155Y-52793500D01*
X190520510Y-52824261D01*
X190520498Y-52824264D01*
X190374828Y-52884602D01*
X190374814Y-52884610D01*
X190360888Y-52893915D01*
X190294210Y-52914791D01*
X190226830Y-52896305D01*
X190223112Y-52893915D01*
X190209185Y-52884610D01*
X190209184Y-52884609D01*
X190209179Y-52884606D01*
X190209175Y-52884604D01*
X190209171Y-52884602D01*
X190063501Y-52824264D01*
X190063489Y-52824261D01*
X189908845Y-52793500D01*
X189908842Y-52793500D01*
X189751158Y-52793500D01*
X189751155Y-52793500D01*
X189596510Y-52824261D01*
X189596498Y-52824264D01*
X189450827Y-52884602D01*
X189450814Y-52884609D01*
X189319711Y-52972210D01*
X189319707Y-52972213D01*
X189208213Y-53083707D01*
X189208210Y-53083711D01*
X189120609Y-53214814D01*
X189120602Y-53214827D01*
X189060264Y-53360498D01*
X189060261Y-53360510D01*
X189029500Y-53515153D01*
X189029500Y-53672846D01*
X189060261Y-53827489D01*
X189060264Y-53827501D01*
X189120602Y-53973172D01*
X189120609Y-53973185D01*
X189208210Y-54104288D01*
X189208213Y-54104292D01*
X189319707Y-54215786D01*
X189319711Y-54215789D01*
X189450814Y-54303390D01*
X189450827Y-54303397D01*
X189538230Y-54339599D01*
X189596503Y-54363737D01*
X189637005Y-54371793D01*
X189698914Y-54404177D01*
X189700494Y-54405729D01*
X193673181Y-58378416D01*
X193706666Y-58439739D01*
X193709500Y-58466097D01*
X193709500Y-74975432D01*
X193689815Y-75042471D01*
X193637011Y-75088226D01*
X193567853Y-75098170D01*
X193520313Y-75078884D01*
X193519471Y-75080259D01*
X193515323Y-75077717D01*
X193332928Y-74984781D01*
X193138239Y-74921522D01*
X192963700Y-74893878D01*
X192936057Y-74889500D01*
X192731353Y-74889500D01*
X192707034Y-74893351D01*
X192529170Y-74921522D01*
X192334481Y-74984781D01*
X192152091Y-75077715D01*
X191986491Y-75198028D01*
X191841733Y-75342786D01*
X191721420Y-75508386D01*
X191628486Y-75690776D01*
X191565227Y-75885465D01*
X191533205Y-76087648D01*
X191533205Y-76292351D01*
X191565227Y-76494534D01*
X191628486Y-76689223D01*
X191721420Y-76871613D01*
X191841733Y-77037213D01*
X191986491Y-77181971D01*
X192141454Y-77294556D01*
X192152095Y-77302287D01*
X192268312Y-77361503D01*
X192334481Y-77395218D01*
X192334483Y-77395218D01*
X192334486Y-77395220D01*
X192438842Y-77429127D01*
X192529170Y-77458477D01*
X192630262Y-77474488D01*
X192731353Y-77490500D01*
X192731354Y-77490500D01*
X192936056Y-77490500D01*
X192936057Y-77490500D01*
X193138239Y-77458477D01*
X193332924Y-77395220D01*
X193515315Y-77302287D01*
X193515319Y-77302283D01*
X193515323Y-77302282D01*
X193519471Y-77299741D01*
X193520510Y-77301437D01*
X193578397Y-77280771D01*
X193646454Y-77296583D01*
X193695159Y-77346679D01*
X193709500Y-77404567D01*
X193709500Y-78285432D01*
X193689815Y-78352471D01*
X193637011Y-78398226D01*
X193567853Y-78408170D01*
X193520313Y-78388884D01*
X193519471Y-78390259D01*
X193515323Y-78387717D01*
X193332928Y-78294781D01*
X193138239Y-78231522D01*
X192963700Y-78203878D01*
X192936057Y-78199500D01*
X192731353Y-78199500D01*
X192707034Y-78203351D01*
X192529170Y-78231522D01*
X192334481Y-78294781D01*
X192152091Y-78387715D01*
X191986491Y-78508028D01*
X191841733Y-78652786D01*
X191721420Y-78818386D01*
X191628486Y-79000776D01*
X191565227Y-79195465D01*
X191533205Y-79397648D01*
X191533205Y-79602351D01*
X191565227Y-79804534D01*
X191628486Y-79999223D01*
X191721420Y-80181613D01*
X191841733Y-80347213D01*
X191962339Y-80467819D01*
X191995824Y-80529142D01*
X191990840Y-80598834D01*
X191948968Y-80654767D01*
X191883504Y-80679184D01*
X191874658Y-80679500D01*
X186472752Y-80679500D01*
X186405713Y-80659815D01*
X186359958Y-80607011D01*
X186350014Y-80537853D01*
X186379039Y-80474297D01*
X186385071Y-80467819D01*
X186430088Y-80422802D01*
X186505671Y-80347219D01*
X186505673Y-80347215D01*
X186505676Y-80347213D01*
X186612917Y-80199606D01*
X186625992Y-80181610D01*
X186718925Y-79999219D01*
X186782182Y-79804534D01*
X186814205Y-79602352D01*
X186814205Y-79397648D01*
X186782182Y-79195466D01*
X186773632Y-79169153D01*
X186752832Y-79105137D01*
X186718925Y-79000781D01*
X186718923Y-79000778D01*
X186718923Y-79000776D01*
X186676102Y-78916737D01*
X186625992Y-78818390D01*
X186605933Y-78790781D01*
X186505676Y-78652786D01*
X186360918Y-78508028D01*
X186195318Y-78387715D01*
X186195317Y-78387714D01*
X186195315Y-78387713D01*
X186126149Y-78352471D01*
X186012928Y-78294781D01*
X185818239Y-78231522D01*
X185643700Y-78203878D01*
X185616057Y-78199500D01*
X185411353Y-78199500D01*
X185387034Y-78203351D01*
X185209170Y-78231522D01*
X185014481Y-78294781D01*
X184832091Y-78387715D01*
X184666491Y-78508028D01*
X184521733Y-78652786D01*
X184401420Y-78818386D01*
X184308486Y-79000776D01*
X184245227Y-79195465D01*
X184213205Y-79397648D01*
X184213205Y-79602351D01*
X184245227Y-79804534D01*
X184308486Y-79999223D01*
X184401420Y-80181613D01*
X184521733Y-80347213D01*
X184642339Y-80467819D01*
X184675824Y-80529142D01*
X184670840Y-80598834D01*
X184628968Y-80654767D01*
X184563504Y-80679184D01*
X184554658Y-80679500D01*
X174554047Y-80679500D01*
X174487008Y-80659815D01*
X174441253Y-80607011D01*
X174431309Y-80537853D01*
X174460334Y-80474297D01*
X174497752Y-80445015D01*
X174505452Y-80441091D01*
X174581610Y-80402287D01*
X174686151Y-80326334D01*
X174747213Y-80281971D01*
X174747215Y-80281968D01*
X174747219Y-80281966D01*
X174891966Y-80137219D01*
X174891968Y-80137215D01*
X174891971Y-80137213D01*
X174944732Y-80064590D01*
X175012287Y-79971610D01*
X175105220Y-79789219D01*
X175168477Y-79594534D01*
X175200500Y-79392352D01*
X175200500Y-79187648D01*
X175168477Y-78985466D01*
X175105220Y-78790781D01*
X175105218Y-78790778D01*
X175105218Y-78790776D01*
X175071503Y-78724607D01*
X175012287Y-78608390D01*
X174961589Y-78538609D01*
X174891971Y-78442786D01*
X174747213Y-78298028D01*
X174581613Y-78177715D01*
X174581612Y-78177714D01*
X174581610Y-78177713D01*
X174524653Y-78148691D01*
X174399223Y-78084781D01*
X174204534Y-78021522D01*
X174029995Y-77993878D01*
X174002352Y-77989500D01*
X173797648Y-77989500D01*
X173773329Y-77993351D01*
X173595465Y-78021522D01*
X173400776Y-78084781D01*
X173218386Y-78177715D01*
X173052786Y-78298028D01*
X172908028Y-78442786D01*
X172787715Y-78608386D01*
X172694781Y-78790776D01*
X172631522Y-78985465D01*
X172599500Y-79187648D01*
X172599500Y-79392351D01*
X172631522Y-79594534D01*
X172694781Y-79789223D01*
X172787715Y-79971613D01*
X172908028Y-80137213D01*
X173052786Y-80281971D01*
X173207749Y-80394556D01*
X173218390Y-80402287D01*
X173291015Y-80439291D01*
X173302248Y-80445015D01*
X173353044Y-80492990D01*
X173369839Y-80560811D01*
X173347301Y-80626946D01*
X173292586Y-80670397D01*
X173245953Y-80679500D01*
X171464047Y-80679500D01*
X171397008Y-80659815D01*
X171351253Y-80607011D01*
X171341309Y-80537853D01*
X171370334Y-80474297D01*
X171407752Y-80445015D01*
X171415452Y-80441091D01*
X171491610Y-80402287D01*
X171596151Y-80326334D01*
X171657213Y-80281971D01*
X171657215Y-80281968D01*
X171657219Y-80281966D01*
X171801966Y-80137219D01*
X171801968Y-80137215D01*
X171801971Y-80137213D01*
X171854732Y-80064590D01*
X171922287Y-79971610D01*
X172015220Y-79789219D01*
X172078477Y-79594534D01*
X172110500Y-79392352D01*
X172110500Y-79187648D01*
X172078477Y-78985466D01*
X172015220Y-78790781D01*
X172015218Y-78790778D01*
X172015218Y-78790776D01*
X171981503Y-78724607D01*
X171922287Y-78608390D01*
X171871589Y-78538609D01*
X171801971Y-78442786D01*
X171657213Y-78298028D01*
X171491613Y-78177715D01*
X171491612Y-78177714D01*
X171491610Y-78177713D01*
X171434653Y-78148691D01*
X171309223Y-78084781D01*
X171114534Y-78021522D01*
X170939995Y-77993878D01*
X170912352Y-77989500D01*
X170707648Y-77989500D01*
X170683329Y-77993351D01*
X170505465Y-78021522D01*
X170310776Y-78084781D01*
X170128386Y-78177715D01*
X169962786Y-78298028D01*
X169818028Y-78442786D01*
X169697715Y-78608386D01*
X169604781Y-78790776D01*
X169541522Y-78985465D01*
X169509500Y-79187648D01*
X169509500Y-79392351D01*
X169541522Y-79594534D01*
X169604781Y-79789223D01*
X169697715Y-79971613D01*
X169818028Y-80137213D01*
X169962786Y-80281971D01*
X170117749Y-80394556D01*
X170128390Y-80402287D01*
X170201015Y-80439291D01*
X170212248Y-80445015D01*
X170263044Y-80492990D01*
X170279839Y-80560811D01*
X170257301Y-80626946D01*
X170202586Y-80670397D01*
X170155953Y-80679500D01*
X168374047Y-80679500D01*
X168307008Y-80659815D01*
X168261253Y-80607011D01*
X168251309Y-80537853D01*
X168280334Y-80474297D01*
X168317752Y-80445015D01*
X168325452Y-80441091D01*
X168401610Y-80402287D01*
X168506151Y-80326334D01*
X168567213Y-80281971D01*
X168567215Y-80281968D01*
X168567219Y-80281966D01*
X168711966Y-80137219D01*
X168711968Y-80137215D01*
X168711971Y-80137213D01*
X168764732Y-80064590D01*
X168832287Y-79971610D01*
X168925220Y-79789219D01*
X168988477Y-79594534D01*
X169020500Y-79392352D01*
X169020500Y-79187648D01*
X168988477Y-78985466D01*
X168925220Y-78790781D01*
X168925218Y-78790778D01*
X168925218Y-78790776D01*
X168891503Y-78724607D01*
X168832287Y-78608390D01*
X168781589Y-78538609D01*
X168711971Y-78442786D01*
X168567213Y-78298028D01*
X168401613Y-78177715D01*
X168401612Y-78177714D01*
X168401610Y-78177713D01*
X168344653Y-78148691D01*
X168219223Y-78084781D01*
X168024534Y-78021522D01*
X167849995Y-77993878D01*
X167822352Y-77989500D01*
X167617648Y-77989500D01*
X167593329Y-77993351D01*
X167415465Y-78021522D01*
X167220776Y-78084781D01*
X167038386Y-78177715D01*
X166872786Y-78298028D01*
X166728028Y-78442786D01*
X166607715Y-78608386D01*
X166514781Y-78790776D01*
X166451522Y-78985465D01*
X166419500Y-79187648D01*
X166419500Y-79392351D01*
X166451522Y-79594534D01*
X166514781Y-79789223D01*
X166607715Y-79971613D01*
X166728028Y-80137213D01*
X166872786Y-80281971D01*
X167027749Y-80394556D01*
X167038390Y-80402287D01*
X167111015Y-80439291D01*
X167122248Y-80445015D01*
X167173044Y-80492990D01*
X167189839Y-80560811D01*
X167167301Y-80626946D01*
X167112586Y-80670397D01*
X167065953Y-80679500D01*
X165314047Y-80679500D01*
X165247008Y-80659815D01*
X165201253Y-80607011D01*
X165191309Y-80537853D01*
X165220334Y-80474297D01*
X165257752Y-80445015D01*
X165265452Y-80441091D01*
X165341610Y-80402287D01*
X165446151Y-80326334D01*
X165507213Y-80281971D01*
X165507215Y-80281968D01*
X165507219Y-80281966D01*
X165651966Y-80137219D01*
X165651968Y-80137215D01*
X165651971Y-80137213D01*
X165704732Y-80064590D01*
X165772287Y-79971610D01*
X165865220Y-79789219D01*
X165928477Y-79594534D01*
X165960500Y-79392352D01*
X165960500Y-79187648D01*
X165928477Y-78985466D01*
X165865220Y-78790781D01*
X165865218Y-78790778D01*
X165865218Y-78790776D01*
X165831503Y-78724607D01*
X165772287Y-78608390D01*
X165721589Y-78538609D01*
X165651971Y-78442786D01*
X165507213Y-78298028D01*
X165341613Y-78177715D01*
X165341612Y-78177714D01*
X165341610Y-78177713D01*
X165284653Y-78148691D01*
X165159223Y-78084781D01*
X164964534Y-78021522D01*
X164789995Y-77993878D01*
X164762352Y-77989500D01*
X164557648Y-77989500D01*
X164533329Y-77993351D01*
X164355465Y-78021522D01*
X164160776Y-78084781D01*
X163978386Y-78177715D01*
X163812786Y-78298028D01*
X163668028Y-78442786D01*
X163547715Y-78608386D01*
X163454781Y-78790776D01*
X163391522Y-78985465D01*
X163359500Y-79187648D01*
X163359500Y-79392351D01*
X163391522Y-79594534D01*
X163454781Y-79789223D01*
X163547715Y-79971613D01*
X163668028Y-80137213D01*
X163812786Y-80281971D01*
X163967749Y-80394556D01*
X163978390Y-80402287D01*
X164051015Y-80439291D01*
X164062248Y-80445015D01*
X164113044Y-80492990D01*
X164129839Y-80560811D01*
X164107301Y-80626946D01*
X164052586Y-80670397D01*
X164005953Y-80679500D01*
X162264047Y-80679500D01*
X162197008Y-80659815D01*
X162151253Y-80607011D01*
X162141309Y-80537853D01*
X162170334Y-80474297D01*
X162207752Y-80445015D01*
X162215452Y-80441091D01*
X162291610Y-80402287D01*
X162396151Y-80326334D01*
X162457213Y-80281971D01*
X162457215Y-80281968D01*
X162457219Y-80281966D01*
X162601966Y-80137219D01*
X162601968Y-80137215D01*
X162601971Y-80137213D01*
X162654732Y-80064590D01*
X162722287Y-79971610D01*
X162815220Y-79789219D01*
X162878477Y-79594534D01*
X162910500Y-79392352D01*
X162910500Y-79187648D01*
X162878477Y-78985466D01*
X162815220Y-78790781D01*
X162815218Y-78790778D01*
X162815218Y-78790776D01*
X162781503Y-78724607D01*
X162722287Y-78608390D01*
X162671589Y-78538609D01*
X162601971Y-78442786D01*
X162457213Y-78298028D01*
X162291613Y-78177715D01*
X162291612Y-78177714D01*
X162291610Y-78177713D01*
X162234653Y-78148691D01*
X162109223Y-78084781D01*
X161914534Y-78021522D01*
X161739995Y-77993878D01*
X161712352Y-77989500D01*
X161507648Y-77989500D01*
X161483329Y-77993351D01*
X161305465Y-78021522D01*
X161110776Y-78084781D01*
X160928386Y-78177715D01*
X160762786Y-78298028D01*
X160618028Y-78442786D01*
X160497715Y-78608386D01*
X160404781Y-78790776D01*
X160341522Y-78985465D01*
X160309500Y-79187648D01*
X160309500Y-79392351D01*
X160341522Y-79594534D01*
X160404781Y-79789223D01*
X160497715Y-79971613D01*
X160618028Y-80137213D01*
X160762786Y-80281971D01*
X160917749Y-80394556D01*
X160928390Y-80402287D01*
X161001015Y-80439291D01*
X161012248Y-80445015D01*
X161063044Y-80492990D01*
X161079839Y-80560811D01*
X161057301Y-80626946D01*
X161002586Y-80670397D01*
X160955953Y-80679500D01*
X159204047Y-80679500D01*
X159137008Y-80659815D01*
X159091253Y-80607011D01*
X159081309Y-80537853D01*
X159110334Y-80474297D01*
X159147752Y-80445015D01*
X159155452Y-80441091D01*
X159231610Y-80402287D01*
X159336151Y-80326334D01*
X159397213Y-80281971D01*
X159397215Y-80281968D01*
X159397219Y-80281966D01*
X159541966Y-80137219D01*
X159541968Y-80137215D01*
X159541971Y-80137213D01*
X159594732Y-80064590D01*
X159662287Y-79971610D01*
X159755220Y-79789219D01*
X159818477Y-79594534D01*
X159850500Y-79392352D01*
X159850500Y-79187648D01*
X159818477Y-78985466D01*
X159755220Y-78790781D01*
X159755218Y-78790778D01*
X159755218Y-78790776D01*
X159721503Y-78724607D01*
X159662287Y-78608390D01*
X159611589Y-78538609D01*
X159541971Y-78442786D01*
X159397213Y-78298028D01*
X159231613Y-78177715D01*
X159231612Y-78177714D01*
X159231610Y-78177713D01*
X159174653Y-78148691D01*
X159049223Y-78084781D01*
X158854534Y-78021522D01*
X158679995Y-77993878D01*
X158652352Y-77989500D01*
X158447648Y-77989500D01*
X158423329Y-77993351D01*
X158245465Y-78021522D01*
X158050776Y-78084781D01*
X157868386Y-78177715D01*
X157702786Y-78298028D01*
X157558028Y-78442786D01*
X157437715Y-78608386D01*
X157344781Y-78790776D01*
X157281522Y-78985465D01*
X157249500Y-79187648D01*
X157249500Y-79392351D01*
X157281522Y-79594534D01*
X157344781Y-79789223D01*
X157437715Y-79971613D01*
X157558028Y-80137213D01*
X157702786Y-80281971D01*
X157857749Y-80394556D01*
X157868390Y-80402287D01*
X157941015Y-80439291D01*
X157952248Y-80445015D01*
X158003044Y-80492990D01*
X158019839Y-80560811D01*
X157997301Y-80626946D01*
X157942586Y-80670397D01*
X157895953Y-80679500D01*
X156174047Y-80679500D01*
X156107008Y-80659815D01*
X156061253Y-80607011D01*
X156051309Y-80537853D01*
X156080334Y-80474297D01*
X156117752Y-80445015D01*
X156125452Y-80441091D01*
X156201610Y-80402287D01*
X156306151Y-80326334D01*
X156367213Y-80281971D01*
X156367215Y-80281968D01*
X156367219Y-80281966D01*
X156511966Y-80137219D01*
X156511968Y-80137215D01*
X156511971Y-80137213D01*
X156564732Y-80064590D01*
X156632287Y-79971610D01*
X156725220Y-79789219D01*
X156788477Y-79594534D01*
X156820500Y-79392352D01*
X156820500Y-79187648D01*
X156788477Y-78985466D01*
X156725220Y-78790781D01*
X156725218Y-78790778D01*
X156725218Y-78790776D01*
X156691503Y-78724607D01*
X156632287Y-78608390D01*
X156581589Y-78538609D01*
X156511971Y-78442786D01*
X156367213Y-78298028D01*
X156201613Y-78177715D01*
X156201612Y-78177714D01*
X156201610Y-78177713D01*
X156144653Y-78148691D01*
X156019223Y-78084781D01*
X155824534Y-78021522D01*
X155649995Y-77993878D01*
X155622352Y-77989500D01*
X155417648Y-77989500D01*
X155393329Y-77993351D01*
X155215465Y-78021522D01*
X155020776Y-78084781D01*
X154838386Y-78177715D01*
X154672786Y-78298028D01*
X154528028Y-78442786D01*
X154407715Y-78608386D01*
X154314781Y-78790776D01*
X154251522Y-78985465D01*
X154219500Y-79187648D01*
X154219500Y-79392351D01*
X154251522Y-79594534D01*
X154314781Y-79789223D01*
X154407715Y-79971613D01*
X154528028Y-80137213D01*
X154672786Y-80281971D01*
X154827749Y-80394556D01*
X154838390Y-80402287D01*
X154911015Y-80439291D01*
X154922248Y-80445015D01*
X154973044Y-80492990D01*
X154989839Y-80560811D01*
X154967301Y-80626946D01*
X154912586Y-80670397D01*
X154865953Y-80679500D01*
X153054047Y-80679500D01*
X152987008Y-80659815D01*
X152941253Y-80607011D01*
X152931309Y-80537853D01*
X152960334Y-80474297D01*
X152997752Y-80445015D01*
X153005452Y-80441091D01*
X153081610Y-80402287D01*
X153186151Y-80326334D01*
X153247213Y-80281971D01*
X153247215Y-80281968D01*
X153247219Y-80281966D01*
X153391966Y-80137219D01*
X153391968Y-80137215D01*
X153391971Y-80137213D01*
X153444732Y-80064590D01*
X153512287Y-79971610D01*
X153605220Y-79789219D01*
X153668477Y-79594534D01*
X153700500Y-79392352D01*
X153700500Y-79187648D01*
X153668477Y-78985466D01*
X153605220Y-78790781D01*
X153605218Y-78790778D01*
X153605218Y-78790776D01*
X153571503Y-78724607D01*
X153512287Y-78608390D01*
X153461589Y-78538609D01*
X153391971Y-78442786D01*
X153247213Y-78298028D01*
X153081613Y-78177715D01*
X153081612Y-78177714D01*
X153081610Y-78177713D01*
X153024653Y-78148691D01*
X152899223Y-78084781D01*
X152704534Y-78021522D01*
X152529995Y-77993878D01*
X152502352Y-77989500D01*
X152297648Y-77989500D01*
X152273329Y-77993351D01*
X152095465Y-78021522D01*
X151900776Y-78084781D01*
X151718386Y-78177715D01*
X151552786Y-78298028D01*
X151408028Y-78442786D01*
X151287715Y-78608386D01*
X151194781Y-78790776D01*
X151131522Y-78985465D01*
X151099500Y-79187648D01*
X151099500Y-79392351D01*
X151131522Y-79594534D01*
X151194781Y-79789223D01*
X151287715Y-79971613D01*
X151408028Y-80137213D01*
X151552786Y-80281971D01*
X151707749Y-80394556D01*
X151718390Y-80402287D01*
X151791015Y-80439291D01*
X151802248Y-80445015D01*
X151853044Y-80492990D01*
X151869839Y-80560811D01*
X151847301Y-80626946D01*
X151792586Y-80670397D01*
X151745953Y-80679500D01*
X149954047Y-80679500D01*
X149887008Y-80659815D01*
X149841253Y-80607011D01*
X149831309Y-80537853D01*
X149860334Y-80474297D01*
X149897752Y-80445015D01*
X149905452Y-80441091D01*
X149981610Y-80402287D01*
X150086151Y-80326334D01*
X150147213Y-80281971D01*
X150147215Y-80281968D01*
X150147219Y-80281966D01*
X150291966Y-80137219D01*
X150291968Y-80137215D01*
X150291971Y-80137213D01*
X150344732Y-80064590D01*
X150412287Y-79971610D01*
X150505220Y-79789219D01*
X150568477Y-79594534D01*
X150600500Y-79392352D01*
X150600500Y-79187648D01*
X150568477Y-78985466D01*
X150505220Y-78790781D01*
X150505218Y-78790778D01*
X150505218Y-78790776D01*
X150471503Y-78724607D01*
X150412287Y-78608390D01*
X150361589Y-78538609D01*
X150291971Y-78442786D01*
X150147213Y-78298028D01*
X149981613Y-78177715D01*
X149981612Y-78177714D01*
X149981610Y-78177713D01*
X149924653Y-78148691D01*
X149799223Y-78084781D01*
X149604534Y-78021522D01*
X149429995Y-77993878D01*
X149402352Y-77989500D01*
X149197648Y-77989500D01*
X149173329Y-77993351D01*
X148995465Y-78021522D01*
X148800776Y-78084781D01*
X148618386Y-78177715D01*
X148452786Y-78298028D01*
X148308028Y-78442786D01*
X148187715Y-78608386D01*
X148094781Y-78790776D01*
X148031522Y-78985465D01*
X147999500Y-79187648D01*
X147999500Y-79392351D01*
X148031522Y-79594534D01*
X148094781Y-79789223D01*
X148187715Y-79971613D01*
X148308028Y-80137213D01*
X148452786Y-80281971D01*
X148607749Y-80394556D01*
X148618390Y-80402287D01*
X148691015Y-80439291D01*
X148702248Y-80445015D01*
X148753044Y-80492990D01*
X148769839Y-80560811D01*
X148747301Y-80626946D01*
X148692586Y-80670397D01*
X148645953Y-80679500D01*
X146864047Y-80679500D01*
X146797008Y-80659815D01*
X146751253Y-80607011D01*
X146741309Y-80537853D01*
X146770334Y-80474297D01*
X146807752Y-80445015D01*
X146815452Y-80441091D01*
X146891610Y-80402287D01*
X146996151Y-80326334D01*
X147057213Y-80281971D01*
X147057215Y-80281968D01*
X147057219Y-80281966D01*
X147201966Y-80137219D01*
X147201968Y-80137215D01*
X147201971Y-80137213D01*
X147254732Y-80064590D01*
X147322287Y-79971610D01*
X147415220Y-79789219D01*
X147478477Y-79594534D01*
X147510500Y-79392352D01*
X147510500Y-79187648D01*
X147478477Y-78985466D01*
X147415220Y-78790781D01*
X147415218Y-78790778D01*
X147415218Y-78790776D01*
X147381503Y-78724607D01*
X147322287Y-78608390D01*
X147271589Y-78538609D01*
X147201971Y-78442786D01*
X147057213Y-78298028D01*
X146891613Y-78177715D01*
X146891612Y-78177714D01*
X146891610Y-78177713D01*
X146834653Y-78148691D01*
X146709223Y-78084781D01*
X146514534Y-78021522D01*
X146339995Y-77993878D01*
X146312352Y-77989500D01*
X146107648Y-77989500D01*
X146083329Y-77993351D01*
X145905465Y-78021522D01*
X145710776Y-78084781D01*
X145528386Y-78177715D01*
X145362786Y-78298028D01*
X145218028Y-78442786D01*
X145097715Y-78608386D01*
X145004781Y-78790776D01*
X144941522Y-78985465D01*
X144909500Y-79187648D01*
X144909500Y-79392351D01*
X144941522Y-79594534D01*
X145004781Y-79789223D01*
X145097715Y-79971613D01*
X145218028Y-80137213D01*
X145362786Y-80281971D01*
X145517749Y-80394556D01*
X145528390Y-80402287D01*
X145601015Y-80439291D01*
X145612248Y-80445015D01*
X145663044Y-80492990D01*
X145679839Y-80560811D01*
X145657301Y-80626946D01*
X145602586Y-80670397D01*
X145555953Y-80679500D01*
X143794047Y-80679500D01*
X143727008Y-80659815D01*
X143681253Y-80607011D01*
X143671309Y-80537853D01*
X143700334Y-80474297D01*
X143737752Y-80445015D01*
X143745452Y-80441091D01*
X143821610Y-80402287D01*
X143926151Y-80326334D01*
X143987213Y-80281971D01*
X143987215Y-80281968D01*
X143987219Y-80281966D01*
X144131966Y-80137219D01*
X144131968Y-80137215D01*
X144131971Y-80137213D01*
X144184732Y-80064590D01*
X144252287Y-79971610D01*
X144345220Y-79789219D01*
X144408477Y-79594534D01*
X144440500Y-79392352D01*
X144440500Y-79187648D01*
X144408477Y-78985466D01*
X144345220Y-78790781D01*
X144345218Y-78790778D01*
X144345218Y-78790776D01*
X144311503Y-78724607D01*
X144252287Y-78608390D01*
X144201589Y-78538609D01*
X144131971Y-78442786D01*
X143987213Y-78298028D01*
X143821613Y-78177715D01*
X143821612Y-78177714D01*
X143821610Y-78177713D01*
X143764653Y-78148691D01*
X143639223Y-78084781D01*
X143444534Y-78021522D01*
X143269995Y-77993878D01*
X143242352Y-77989500D01*
X143037648Y-77989500D01*
X143013329Y-77993351D01*
X142835465Y-78021522D01*
X142640776Y-78084781D01*
X142458386Y-78177715D01*
X142292786Y-78298028D01*
X142148028Y-78442786D01*
X142027715Y-78608386D01*
X141934781Y-78790776D01*
X141871522Y-78985465D01*
X141839500Y-79187648D01*
X141839500Y-79392351D01*
X141871522Y-79594534D01*
X141934781Y-79789223D01*
X142027715Y-79971613D01*
X142148028Y-80137213D01*
X142292786Y-80281971D01*
X142447749Y-80394556D01*
X142458390Y-80402287D01*
X142531015Y-80439291D01*
X142542248Y-80445015D01*
X142593044Y-80492990D01*
X142609839Y-80560811D01*
X142587301Y-80626946D01*
X142532586Y-80670397D01*
X142485953Y-80679500D01*
X140714047Y-80679500D01*
X140647008Y-80659815D01*
X140601253Y-80607011D01*
X140591309Y-80537853D01*
X140620334Y-80474297D01*
X140657752Y-80445015D01*
X140665452Y-80441091D01*
X140741610Y-80402287D01*
X140846151Y-80326334D01*
X140907213Y-80281971D01*
X140907215Y-80281968D01*
X140907219Y-80281966D01*
X141051966Y-80137219D01*
X141051968Y-80137215D01*
X141051971Y-80137213D01*
X141104732Y-80064590D01*
X141172287Y-79971610D01*
X141265220Y-79789219D01*
X141328477Y-79594534D01*
X141360500Y-79392352D01*
X141360500Y-79187648D01*
X141328477Y-78985466D01*
X141265220Y-78790781D01*
X141265218Y-78790778D01*
X141265218Y-78790776D01*
X141231503Y-78724607D01*
X141172287Y-78608390D01*
X141121589Y-78538609D01*
X141051971Y-78442786D01*
X140907213Y-78298028D01*
X140741613Y-78177715D01*
X140741612Y-78177714D01*
X140741610Y-78177713D01*
X140684653Y-78148691D01*
X140559223Y-78084781D01*
X140364534Y-78021522D01*
X140189995Y-77993878D01*
X140162352Y-77989500D01*
X139957648Y-77989500D01*
X139933329Y-77993351D01*
X139755465Y-78021522D01*
X139560776Y-78084781D01*
X139378386Y-78177715D01*
X139212786Y-78298028D01*
X139068028Y-78442786D01*
X138947715Y-78608386D01*
X138854781Y-78790776D01*
X138791522Y-78985465D01*
X138759500Y-79187648D01*
X138759500Y-79392351D01*
X138791522Y-79594534D01*
X138854781Y-79789223D01*
X138947715Y-79971613D01*
X139068028Y-80137213D01*
X139212786Y-80281971D01*
X139367749Y-80394556D01*
X139378390Y-80402287D01*
X139451015Y-80439291D01*
X139462248Y-80445015D01*
X139513044Y-80492990D01*
X139529839Y-80560811D01*
X139507301Y-80626946D01*
X139452586Y-80670397D01*
X139405953Y-80679500D01*
X137664047Y-80679500D01*
X137597008Y-80659815D01*
X137551253Y-80607011D01*
X137541309Y-80537853D01*
X137570334Y-80474297D01*
X137607752Y-80445015D01*
X137615452Y-80441091D01*
X137691610Y-80402287D01*
X137796151Y-80326334D01*
X137857213Y-80281971D01*
X137857215Y-80281968D01*
X137857219Y-80281966D01*
X138001966Y-80137219D01*
X138001968Y-80137215D01*
X138001971Y-80137213D01*
X138054732Y-80064590D01*
X138122287Y-79971610D01*
X138215220Y-79789219D01*
X138278477Y-79594534D01*
X138310500Y-79392352D01*
X138310500Y-79187648D01*
X138278477Y-78985466D01*
X138215220Y-78790781D01*
X138215218Y-78790778D01*
X138215218Y-78790776D01*
X138181503Y-78724607D01*
X138122287Y-78608390D01*
X138071589Y-78538609D01*
X138001971Y-78442786D01*
X137857213Y-78298028D01*
X137691613Y-78177715D01*
X137691612Y-78177714D01*
X137691610Y-78177713D01*
X137634653Y-78148691D01*
X137509223Y-78084781D01*
X137314534Y-78021522D01*
X137139995Y-77993878D01*
X137112352Y-77989500D01*
X136907648Y-77989500D01*
X136883329Y-77993351D01*
X136705465Y-78021522D01*
X136510776Y-78084781D01*
X136328386Y-78177715D01*
X136162786Y-78298028D01*
X136018028Y-78442786D01*
X135897715Y-78608386D01*
X135804781Y-78790776D01*
X135741522Y-78985465D01*
X135709500Y-79187648D01*
X135709500Y-79392351D01*
X135741522Y-79594534D01*
X135804781Y-79789223D01*
X135897715Y-79971613D01*
X136018028Y-80137213D01*
X136162786Y-80281971D01*
X136317749Y-80394556D01*
X136328390Y-80402287D01*
X136401015Y-80439291D01*
X136412248Y-80445015D01*
X136463044Y-80492990D01*
X136479839Y-80560811D01*
X136457301Y-80626946D01*
X136402586Y-80670397D01*
X136355953Y-80679500D01*
X134584047Y-80679500D01*
X134517008Y-80659815D01*
X134471253Y-80607011D01*
X134461309Y-80537853D01*
X134490334Y-80474297D01*
X134527752Y-80445015D01*
X134535452Y-80441091D01*
X134611610Y-80402287D01*
X134716151Y-80326334D01*
X134777213Y-80281971D01*
X134777215Y-80281968D01*
X134777219Y-80281966D01*
X134921966Y-80137219D01*
X134921968Y-80137215D01*
X134921971Y-80137213D01*
X134974732Y-80064590D01*
X135042287Y-79971610D01*
X135135220Y-79789219D01*
X135198477Y-79594534D01*
X135230500Y-79392352D01*
X135230500Y-79187648D01*
X135198477Y-78985466D01*
X135135220Y-78790781D01*
X135135218Y-78790778D01*
X135135218Y-78790776D01*
X135101503Y-78724607D01*
X135042287Y-78608390D01*
X134991589Y-78538609D01*
X134921971Y-78442786D01*
X134777213Y-78298028D01*
X134611613Y-78177715D01*
X134611612Y-78177714D01*
X134611610Y-78177713D01*
X134554653Y-78148691D01*
X134429223Y-78084781D01*
X134234534Y-78021522D01*
X134059995Y-77993878D01*
X134032352Y-77989500D01*
X133827648Y-77989500D01*
X133803329Y-77993351D01*
X133625465Y-78021522D01*
X133430776Y-78084781D01*
X133248386Y-78177715D01*
X133082786Y-78298028D01*
X132938028Y-78442786D01*
X132817715Y-78608386D01*
X132724781Y-78790776D01*
X132661522Y-78985465D01*
X132629500Y-79187648D01*
X132629500Y-79392351D01*
X132661522Y-79594534D01*
X132724781Y-79789223D01*
X132817715Y-79971613D01*
X132938028Y-80137213D01*
X133082786Y-80281971D01*
X133237749Y-80394556D01*
X133248390Y-80402287D01*
X133321015Y-80439291D01*
X133332248Y-80445015D01*
X133383044Y-80492990D01*
X133399839Y-80560811D01*
X133377301Y-80626946D01*
X133322586Y-80670397D01*
X133275953Y-80679500D01*
X131504047Y-80679500D01*
X131437008Y-80659815D01*
X131391253Y-80607011D01*
X131381309Y-80537853D01*
X131410334Y-80474297D01*
X131447752Y-80445015D01*
X131455452Y-80441091D01*
X131531610Y-80402287D01*
X131636151Y-80326334D01*
X131697213Y-80281971D01*
X131697215Y-80281968D01*
X131697219Y-80281966D01*
X131841966Y-80137219D01*
X131841968Y-80137215D01*
X131841971Y-80137213D01*
X131894732Y-80064590D01*
X131962287Y-79971610D01*
X132055220Y-79789219D01*
X132118477Y-79594534D01*
X132150500Y-79392352D01*
X132150500Y-79187648D01*
X132118477Y-78985466D01*
X132055220Y-78790781D01*
X132055218Y-78790778D01*
X132055218Y-78790776D01*
X132021503Y-78724607D01*
X131962287Y-78608390D01*
X131911589Y-78538609D01*
X131841971Y-78442786D01*
X131697213Y-78298028D01*
X131531613Y-78177715D01*
X131531612Y-78177714D01*
X131531610Y-78177713D01*
X131474653Y-78148691D01*
X131349223Y-78084781D01*
X131154534Y-78021522D01*
X130979995Y-77993878D01*
X130952352Y-77989500D01*
X130747648Y-77989500D01*
X130723329Y-77993351D01*
X130545465Y-78021522D01*
X130350776Y-78084781D01*
X130168386Y-78177715D01*
X130002786Y-78298028D01*
X129858028Y-78442786D01*
X129737715Y-78608386D01*
X129644781Y-78790776D01*
X129581522Y-78985465D01*
X129549500Y-79187648D01*
X129549500Y-79392351D01*
X129581522Y-79594534D01*
X129644781Y-79789223D01*
X129737715Y-79971613D01*
X129858028Y-80137213D01*
X130002786Y-80281971D01*
X130157749Y-80394556D01*
X130168390Y-80402287D01*
X130241015Y-80439291D01*
X130252248Y-80445015D01*
X130303044Y-80492990D01*
X130319839Y-80560811D01*
X130297301Y-80626946D01*
X130242586Y-80670397D01*
X130195953Y-80679500D01*
X128444047Y-80679500D01*
X128377008Y-80659815D01*
X128331253Y-80607011D01*
X128321309Y-80537853D01*
X128350334Y-80474297D01*
X128387752Y-80445015D01*
X128395452Y-80441091D01*
X128471610Y-80402287D01*
X128576151Y-80326334D01*
X128637213Y-80281971D01*
X128637215Y-80281968D01*
X128637219Y-80281966D01*
X128781966Y-80137219D01*
X128781968Y-80137215D01*
X128781971Y-80137213D01*
X128834732Y-80064590D01*
X128902287Y-79971610D01*
X128995220Y-79789219D01*
X129058477Y-79594534D01*
X129090500Y-79392352D01*
X129090500Y-79187648D01*
X129058477Y-78985466D01*
X128995220Y-78790781D01*
X128995218Y-78790778D01*
X128995218Y-78790776D01*
X128961503Y-78724607D01*
X128902287Y-78608390D01*
X128851589Y-78538609D01*
X128781971Y-78442786D01*
X128637213Y-78298028D01*
X128471613Y-78177715D01*
X128471612Y-78177714D01*
X128471610Y-78177713D01*
X128414653Y-78148691D01*
X128289223Y-78084781D01*
X128094534Y-78021522D01*
X127919995Y-77993878D01*
X127892352Y-77989500D01*
X127687648Y-77989500D01*
X127663329Y-77993351D01*
X127485465Y-78021522D01*
X127290776Y-78084781D01*
X127108386Y-78177715D01*
X126942786Y-78298028D01*
X126798028Y-78442786D01*
X126677715Y-78608386D01*
X126584781Y-78790776D01*
X126521522Y-78985465D01*
X126489500Y-79187648D01*
X126489500Y-79392351D01*
X126521522Y-79594534D01*
X126584781Y-79789223D01*
X126677715Y-79971613D01*
X126798028Y-80137213D01*
X126942786Y-80281971D01*
X127097749Y-80394556D01*
X127108390Y-80402287D01*
X127181015Y-80439291D01*
X127192248Y-80445015D01*
X127243044Y-80492990D01*
X127259839Y-80560811D01*
X127237301Y-80626946D01*
X127182586Y-80670397D01*
X127135953Y-80679500D01*
X124038670Y-80679500D01*
X124038654Y-80679499D01*
X124031058Y-80679499D01*
X123872943Y-80679499D01*
X123796579Y-80699961D01*
X123720214Y-80720423D01*
X123720209Y-80720426D01*
X123583290Y-80799475D01*
X123583282Y-80799481D01*
X120945584Y-83437181D01*
X120884261Y-83470666D01*
X120857903Y-83473500D01*
X115895766Y-83473500D01*
X115828727Y-83453815D01*
X115826875Y-83452602D01*
X115695185Y-83364609D01*
X115695172Y-83364602D01*
X115549501Y-83304264D01*
X115549489Y-83304261D01*
X115394845Y-83273500D01*
X115394842Y-83273500D01*
X115237158Y-83273500D01*
X115237155Y-83273500D01*
X115082510Y-83304261D01*
X115082498Y-83304264D01*
X114936827Y-83364602D01*
X114936814Y-83364609D01*
X114805711Y-83452210D01*
X114805707Y-83452213D01*
X114694213Y-83563707D01*
X114694210Y-83563711D01*
X114606609Y-83694814D01*
X114606602Y-83694827D01*
X114546264Y-83840498D01*
X114546261Y-83840510D01*
X114515500Y-83995153D01*
X114515500Y-84152846D01*
X114546261Y-84307489D01*
X114546264Y-84307501D01*
X114606602Y-84453172D01*
X114606609Y-84453185D01*
X114694210Y-84584288D01*
X114694213Y-84584292D01*
X114805707Y-84695786D01*
X114805711Y-84695789D01*
X114936814Y-84783390D01*
X114936827Y-84783397D01*
X115082498Y-84843735D01*
X115082503Y-84843737D01*
X115237153Y-84874499D01*
X115237156Y-84874500D01*
X115237158Y-84874500D01*
X115394844Y-84874500D01*
X115394845Y-84874499D01*
X115549497Y-84843737D01*
X115695179Y-84783394D01*
X115695185Y-84783390D01*
X115826875Y-84695398D01*
X115893553Y-84674520D01*
X115895766Y-84674500D01*
X121071331Y-84674500D01*
X121071347Y-84674501D01*
X121078943Y-84674501D01*
X121237054Y-84674501D01*
X121237057Y-84674501D01*
X121389785Y-84633577D01*
X121389787Y-84633575D01*
X121389789Y-84633575D01*
X121389790Y-84633574D01*
X121440640Y-84604216D01*
X121440641Y-84604215D01*
X121526716Y-84554520D01*
X121638520Y-84442716D01*
X121638520Y-84442714D01*
X121648724Y-84432511D01*
X121648727Y-84432506D01*
X124164417Y-81916819D01*
X124191344Y-81902115D01*
X124217163Y-81885523D01*
X124223363Y-81884631D01*
X124225740Y-81883334D01*
X124252098Y-81880500D01*
X124294003Y-81880500D01*
X124361042Y-81900185D01*
X124406797Y-81952989D01*
X124416741Y-82022147D01*
X124387716Y-82085703D01*
X124381684Y-82092181D01*
X120496684Y-85977181D01*
X120435361Y-86010666D01*
X120409003Y-86013500D01*
X115895766Y-86013500D01*
X115828727Y-85993815D01*
X115826875Y-85992602D01*
X115695185Y-85904609D01*
X115695172Y-85904602D01*
X115549501Y-85844264D01*
X115549489Y-85844261D01*
X115394845Y-85813500D01*
X115394842Y-85813500D01*
X115237158Y-85813500D01*
X115237155Y-85813500D01*
X115082510Y-85844261D01*
X115082498Y-85844264D01*
X114936827Y-85904602D01*
X114936814Y-85904609D01*
X114805711Y-85992210D01*
X114805707Y-85992213D01*
X114694213Y-86103707D01*
X114694210Y-86103711D01*
X114606609Y-86234814D01*
X114606602Y-86234827D01*
X114546264Y-86380498D01*
X114546261Y-86380510D01*
X114515500Y-86535153D01*
X114515500Y-86692846D01*
X114546261Y-86847489D01*
X114546264Y-86847501D01*
X114606602Y-86993172D01*
X114606609Y-86993185D01*
X114694210Y-87124288D01*
X114694213Y-87124292D01*
X114805707Y-87235786D01*
X114805711Y-87235789D01*
X114936814Y-87323390D01*
X114936827Y-87323397D01*
X115082498Y-87383735D01*
X115082503Y-87383737D01*
X115237153Y-87414499D01*
X115237156Y-87414500D01*
X115237158Y-87414500D01*
X115394844Y-87414500D01*
X115394845Y-87414499D01*
X115549497Y-87383737D01*
X115695179Y-87323394D01*
X115777551Y-87268355D01*
X115826875Y-87235398D01*
X115893553Y-87214520D01*
X115895766Y-87214500D01*
X120622431Y-87214500D01*
X120622447Y-87214501D01*
X120630043Y-87214501D01*
X120788154Y-87214501D01*
X120788157Y-87214501D01*
X120940885Y-87173577D01*
X120991004Y-87144639D01*
X121077816Y-87094520D01*
X121189620Y-86982716D01*
X121189620Y-86982714D01*
X121199828Y-86972507D01*
X121199829Y-86972504D01*
X125493516Y-82678819D01*
X125520443Y-82664115D01*
X125546262Y-82647523D01*
X125552462Y-82646631D01*
X125554839Y-82645334D01*
X125581197Y-82642500D01*
X125758903Y-82642500D01*
X125825942Y-82662185D01*
X125871697Y-82714989D01*
X125881641Y-82784147D01*
X125852616Y-82847703D01*
X125846584Y-82854181D01*
X120183584Y-88517181D01*
X120122261Y-88550666D01*
X120095903Y-88553500D01*
X115895766Y-88553500D01*
X115828727Y-88533815D01*
X115826875Y-88532602D01*
X115695185Y-88444609D01*
X115695172Y-88444602D01*
X115549501Y-88384264D01*
X115549489Y-88384261D01*
X115394845Y-88353500D01*
X115394842Y-88353500D01*
X115237158Y-88353500D01*
X115237155Y-88353500D01*
X115082510Y-88384261D01*
X115082498Y-88384264D01*
X114936827Y-88444602D01*
X114936814Y-88444609D01*
X114805711Y-88532210D01*
X114805707Y-88532213D01*
X114694213Y-88643707D01*
X114694210Y-88643711D01*
X114606609Y-88774814D01*
X114606602Y-88774827D01*
X114546264Y-88920498D01*
X114546261Y-88920510D01*
X114515500Y-89075153D01*
X114515500Y-89232846D01*
X114546261Y-89387489D01*
X114546264Y-89387501D01*
X114606602Y-89533172D01*
X114606609Y-89533185D01*
X114694210Y-89664288D01*
X114694213Y-89664292D01*
X114805707Y-89775786D01*
X114805711Y-89775789D01*
X114936814Y-89863390D01*
X114936827Y-89863397D01*
X115015894Y-89896147D01*
X115082503Y-89923737D01*
X115237153Y-89954499D01*
X115237156Y-89954500D01*
X115237158Y-89954500D01*
X115394844Y-89954500D01*
X115394845Y-89954499D01*
X115549497Y-89923737D01*
X115695179Y-89863394D01*
X115749663Y-89826989D01*
X115826875Y-89775398D01*
X115893553Y-89754520D01*
X115895766Y-89754500D01*
X120170903Y-89754500D01*
X120237942Y-89774185D01*
X120283697Y-89826989D01*
X120293641Y-89896147D01*
X120264616Y-89959703D01*
X120258584Y-89966181D01*
X118135587Y-92089178D01*
X118074264Y-92122663D01*
X118047906Y-92125497D01*
X118031155Y-92125497D01*
X117876510Y-92156258D01*
X117876498Y-92156261D01*
X117730827Y-92216599D01*
X117730814Y-92216606D01*
X117599711Y-92304207D01*
X117599707Y-92304210D01*
X117488213Y-92415704D01*
X117488210Y-92415708D01*
X117400609Y-92546811D01*
X117400602Y-92546824D01*
X117340264Y-92692495D01*
X117340261Y-92692507D01*
X117309500Y-92847150D01*
X117309500Y-93004843D01*
X117340261Y-93159486D01*
X117340264Y-93159498D01*
X117389575Y-93278546D01*
X117397044Y-93348015D01*
X117389575Y-93373450D01*
X117340264Y-93492498D01*
X117340261Y-93492510D01*
X117309500Y-93647153D01*
X117309500Y-93804846D01*
X117340261Y-93959489D01*
X117340264Y-93959501D01*
X117400602Y-94105172D01*
X117400609Y-94105185D01*
X117488210Y-94236288D01*
X117488213Y-94236292D01*
X117599707Y-94347786D01*
X117599711Y-94347789D01*
X117730814Y-94435390D01*
X117730827Y-94435397D01*
X117876498Y-94495735D01*
X117876503Y-94495737D01*
X118031153Y-94526499D01*
X118031156Y-94526500D01*
X118031158Y-94526500D01*
X118188844Y-94526500D01*
X118188845Y-94526499D01*
X118343497Y-94495737D01*
X118489179Y-94435394D01*
X118525418Y-94411180D01*
X118620875Y-94347398D01*
X118687553Y-94326520D01*
X118689766Y-94326500D01*
X119293331Y-94326500D01*
X119293347Y-94326501D01*
X119300943Y-94326501D01*
X119459054Y-94326501D01*
X119459057Y-94326501D01*
X119611785Y-94285577D01*
X119689046Y-94240970D01*
X119690214Y-94240296D01*
X119748709Y-94206524D01*
X119748708Y-94206524D01*
X119748716Y-94206520D01*
X119860520Y-94094716D01*
X119860520Y-94094714D01*
X119870724Y-94084511D01*
X119870727Y-94084506D01*
X125688416Y-88266819D01*
X125749739Y-88233334D01*
X125776097Y-88230500D01*
X176435311Y-88230500D01*
X176502350Y-88250185D01*
X176522992Y-88266819D01*
X180001626Y-91745454D01*
X180035111Y-91806777D01*
X180030127Y-91876469D01*
X179988255Y-91932402D01*
X179941806Y-91953964D01*
X179928054Y-91957135D01*
X179899757Y-91957135D01*
X179747030Y-91998058D01*
X179745889Y-91998716D01*
X179744615Y-91999058D01*
X179743535Y-91999681D01*
X179743532Y-91999682D01*
X179607687Y-92078113D01*
X179607681Y-92078117D01*
X179364169Y-92321631D01*
X179337241Y-92336334D01*
X179311423Y-92352927D01*
X179305222Y-92353818D01*
X179302846Y-92355116D01*
X179276488Y-92357950D01*
X179179766Y-92357950D01*
X179112727Y-92338265D01*
X179110875Y-92337052D01*
X178979185Y-92249059D01*
X178979172Y-92249052D01*
X178833501Y-92188714D01*
X178833489Y-92188711D01*
X178678845Y-92157950D01*
X178678842Y-92157950D01*
X178521158Y-92157950D01*
X178521155Y-92157950D01*
X178366510Y-92188711D01*
X178366498Y-92188714D01*
X178220827Y-92249052D01*
X178220814Y-92249059D01*
X178089711Y-92336660D01*
X178089707Y-92336663D01*
X177978213Y-92448157D01*
X177978210Y-92448161D01*
X177890609Y-92579264D01*
X177890602Y-92579277D01*
X177830264Y-92724948D01*
X177830261Y-92724960D01*
X177799500Y-92879603D01*
X177799500Y-93037296D01*
X177830261Y-93191939D01*
X177830264Y-93191951D01*
X177890602Y-93337622D01*
X177890609Y-93337635D01*
X177910938Y-93368059D01*
X177931816Y-93434737D01*
X177913331Y-93502117D01*
X177861353Y-93548807D01*
X177807836Y-93560950D01*
X173885811Y-93560950D01*
X173818772Y-93541265D01*
X173798130Y-93524631D01*
X172474041Y-92200540D01*
X172474034Y-92200534D01*
X172326548Y-92101988D01*
X172162666Y-92034105D01*
X172162658Y-92034103D01*
X171988696Y-91999500D01*
X171988692Y-91999500D01*
X171811308Y-91999500D01*
X171811303Y-91999500D01*
X171637341Y-92034103D01*
X171637333Y-92034105D01*
X171473451Y-92101988D01*
X171325965Y-92200534D01*
X171325958Y-92200540D01*
X171200540Y-92325958D01*
X171200534Y-92325965D01*
X171101988Y-92473451D01*
X171034105Y-92637333D01*
X171034103Y-92637341D01*
X170999500Y-92811303D01*
X170999500Y-92988696D01*
X171034103Y-93162658D01*
X171034105Y-93162666D01*
X171101988Y-93326548D01*
X171200534Y-93474034D01*
X171200540Y-93474041D01*
X172376770Y-94650269D01*
X172410255Y-94711592D01*
X172405271Y-94781283D01*
X172363400Y-94837217D01*
X172297935Y-94861634D01*
X172289089Y-94861950D01*
X158932703Y-94861950D01*
X158865664Y-94842265D01*
X158819909Y-94789461D01*
X158809965Y-94720303D01*
X158811086Y-94713759D01*
X158825499Y-94641296D01*
X158825500Y-94641294D01*
X158825500Y-94483605D01*
X158825499Y-94483603D01*
X158823887Y-94475499D01*
X158794737Y-94328953D01*
X158789578Y-94316498D01*
X158734397Y-94183277D01*
X158734390Y-94183264D01*
X158646789Y-94052161D01*
X158646786Y-94052157D01*
X158535292Y-93940663D01*
X158535288Y-93940660D01*
X158440915Y-93877602D01*
X158396110Y-93823990D01*
X158387403Y-93754665D01*
X158417557Y-93691638D01*
X158477000Y-93654918D01*
X158509806Y-93650500D01*
X158578844Y-93650500D01*
X158578845Y-93650499D01*
X158733497Y-93619737D01*
X158790434Y-93596153D01*
X160099500Y-93596153D01*
X160099500Y-93753846D01*
X160130261Y-93908489D01*
X160130264Y-93908501D01*
X160190602Y-94054172D01*
X160190609Y-94054185D01*
X160278210Y-94185288D01*
X160278213Y-94185292D01*
X160389707Y-94296786D01*
X160389711Y-94296789D01*
X160520814Y-94384390D01*
X160520827Y-94384397D01*
X160643954Y-94435397D01*
X160666503Y-94444737D01*
X160821153Y-94475499D01*
X160821156Y-94475500D01*
X160821158Y-94475500D01*
X160978844Y-94475500D01*
X160978845Y-94475499D01*
X161133497Y-94444737D01*
X161279179Y-94384394D01*
X161410289Y-94296789D01*
X161521789Y-94185289D01*
X161609394Y-94054179D01*
X161615389Y-94039707D01*
X161628864Y-94007175D01*
X161669737Y-93908497D01*
X161700500Y-93753842D01*
X161700500Y-93596158D01*
X161700500Y-93596155D01*
X161700499Y-93596153D01*
X161689262Y-93539660D01*
X161669737Y-93441503D01*
X161669735Y-93441498D01*
X161609397Y-93295827D01*
X161609390Y-93295814D01*
X161521789Y-93164711D01*
X161521786Y-93164707D01*
X161410292Y-93053213D01*
X161410288Y-93053210D01*
X161279185Y-92965609D01*
X161279172Y-92965602D01*
X161133501Y-92905264D01*
X161133489Y-92905261D01*
X160978845Y-92874500D01*
X160978842Y-92874500D01*
X160821158Y-92874500D01*
X160821155Y-92874500D01*
X160666510Y-92905261D01*
X160666498Y-92905264D01*
X160520827Y-92965602D01*
X160520814Y-92965609D01*
X160389711Y-93053210D01*
X160389707Y-93053213D01*
X160278213Y-93164707D01*
X160278210Y-93164711D01*
X160190609Y-93295814D01*
X160190602Y-93295827D01*
X160130264Y-93441498D01*
X160130261Y-93441510D01*
X160099500Y-93596153D01*
X158790434Y-93596153D01*
X158867975Y-93564035D01*
X158879172Y-93559397D01*
X158879172Y-93559396D01*
X158879179Y-93559394D01*
X159010289Y-93471789D01*
X159121789Y-93360289D01*
X159209394Y-93229179D01*
X159269737Y-93083497D01*
X159300500Y-92928842D01*
X159300500Y-92771158D01*
X159295832Y-92747690D01*
X159302060Y-92678099D01*
X159344924Y-92622922D01*
X159410814Y-92599678D01*
X159417450Y-92599500D01*
X167704638Y-92599500D01*
X167771677Y-92619185D01*
X167792319Y-92635819D01*
X168745960Y-93589460D01*
X168745964Y-93589463D01*
X168893446Y-93688008D01*
X168893452Y-93688011D01*
X168893453Y-93688012D01*
X169057334Y-93755894D01*
X169057338Y-93755894D01*
X169057339Y-93755895D01*
X169231305Y-93790500D01*
X169231308Y-93790500D01*
X169408693Y-93790500D01*
X169408694Y-93790499D01*
X169582666Y-93755894D01*
X169746546Y-93688012D01*
X169894035Y-93589463D01*
X170019463Y-93464035D01*
X170118012Y-93316546D01*
X170185894Y-93152666D01*
X170220500Y-92978691D01*
X170220500Y-92801308D01*
X170220500Y-92801305D01*
X170185895Y-92627339D01*
X170185894Y-92627338D01*
X170185894Y-92627334D01*
X170118012Y-92463453D01*
X170118011Y-92463452D01*
X170118008Y-92463446D01*
X170019463Y-92315964D01*
X170019460Y-92315960D01*
X168703041Y-90999540D01*
X168703040Y-90999539D01*
X168670949Y-90978097D01*
X168643959Y-90960063D01*
X168555547Y-90900987D01*
X168473606Y-90867046D01*
X168391666Y-90833105D01*
X168391658Y-90833103D01*
X168217696Y-90798500D01*
X168217692Y-90798500D01*
X168217691Y-90798500D01*
X133019692Y-90798500D01*
X132842308Y-90798500D01*
X132842303Y-90798500D01*
X132668341Y-90833103D01*
X132668329Y-90833106D01*
X132586392Y-90867045D01*
X132586393Y-90867046D01*
X132504455Y-90900985D01*
X132416040Y-90960063D01*
X132416039Y-90960064D01*
X132356961Y-90999537D01*
X131060540Y-92295958D01*
X131060534Y-92295965D01*
X130961988Y-92443451D01*
X130894105Y-92607333D01*
X130894103Y-92607341D01*
X130859500Y-92781303D01*
X130859500Y-92958696D01*
X130894103Y-93132658D01*
X130894105Y-93132666D01*
X130961988Y-93296548D01*
X131060534Y-93444034D01*
X131060540Y-93444041D01*
X131185958Y-93569459D01*
X131185965Y-93569465D01*
X131333451Y-93668011D01*
X131333452Y-93668011D01*
X131333453Y-93668012D01*
X131497334Y-93735895D01*
X131628324Y-93761950D01*
X131671303Y-93770499D01*
X131671307Y-93770500D01*
X131671308Y-93770500D01*
X131848693Y-93770500D01*
X131848694Y-93770499D01*
X132022666Y-93735895D01*
X132186547Y-93668012D01*
X132334036Y-93569464D01*
X133267681Y-92635819D01*
X133329004Y-92602334D01*
X133355362Y-92599500D01*
X143440635Y-92599500D01*
X143507674Y-92619185D01*
X143553429Y-92671989D01*
X143563373Y-92741147D01*
X143555196Y-92770952D01*
X143505264Y-92891498D01*
X143505261Y-92891510D01*
X143474500Y-93046153D01*
X143474500Y-93203846D01*
X143505261Y-93358489D01*
X143505264Y-93358501D01*
X143565602Y-93504172D01*
X143565609Y-93504185D01*
X143653210Y-93635288D01*
X143653213Y-93635292D01*
X143764707Y-93746786D01*
X143764711Y-93746789D01*
X143895814Y-93834390D01*
X143895827Y-93834397D01*
X144000135Y-93877602D01*
X144041503Y-93894737D01*
X144099249Y-93906223D01*
X144198065Y-93925880D01*
X144259976Y-93958265D01*
X144294551Y-94018981D01*
X144290811Y-94088750D01*
X144276976Y-94116387D01*
X144240612Y-94170809D01*
X144240602Y-94170827D01*
X144180264Y-94316498D01*
X144180261Y-94316510D01*
X144149500Y-94471153D01*
X144149500Y-94471158D01*
X144149500Y-94628842D01*
X144149500Y-94628844D01*
X144149499Y-94628844D01*
X144166391Y-94713758D01*
X144160164Y-94783350D01*
X144117301Y-94838527D01*
X144051412Y-94861772D01*
X144044774Y-94861950D01*
X127605226Y-94861950D01*
X127538187Y-94842265D01*
X127492432Y-94789461D01*
X127482488Y-94720303D01*
X127483609Y-94713758D01*
X127500500Y-94628844D01*
X127500500Y-94471155D01*
X127500499Y-94471153D01*
X127495245Y-94444738D01*
X127469737Y-94316503D01*
X127438451Y-94240971D01*
X127409397Y-94170827D01*
X127409390Y-94170814D01*
X127321789Y-94039711D01*
X127321786Y-94039707D01*
X127210292Y-93928213D01*
X127210288Y-93928210D01*
X127079185Y-93840609D01*
X127079172Y-93840602D01*
X126933501Y-93780264D01*
X126933489Y-93780261D01*
X126778845Y-93749500D01*
X126778842Y-93749500D01*
X126621158Y-93749500D01*
X126621155Y-93749500D01*
X126466510Y-93780261D01*
X126466498Y-93780264D01*
X126320827Y-93840602D01*
X126320814Y-93840609D01*
X126189711Y-93928210D01*
X126189707Y-93928213D01*
X126078213Y-94039707D01*
X126078210Y-94039711D01*
X125990609Y-94170814D01*
X125990602Y-94170827D01*
X125930264Y-94316498D01*
X125930261Y-94316510D01*
X125899500Y-94471153D01*
X125899500Y-94471158D01*
X125899500Y-94628842D01*
X125899500Y-94628844D01*
X125899499Y-94628844D01*
X125916391Y-94713758D01*
X125910164Y-94783350D01*
X125867301Y-94838527D01*
X125801412Y-94861772D01*
X125794774Y-94861950D01*
X113739500Y-94861950D01*
X113672461Y-94842265D01*
X113626706Y-94789461D01*
X113615500Y-94737950D01*
X113615500Y-79985372D01*
X113635185Y-79918333D01*
X113687989Y-79872578D01*
X113757147Y-79862634D01*
X113808387Y-79882268D01*
X113920821Y-79957394D01*
X113920823Y-79957395D01*
X113920827Y-79957397D01*
X114066498Y-80017735D01*
X114066503Y-80017737D01*
X114199581Y-80044208D01*
X114221153Y-80048499D01*
X114221156Y-80048500D01*
X114221158Y-80048500D01*
X114378844Y-80048500D01*
X114378845Y-80048499D01*
X114533497Y-80017737D01*
X114679179Y-79957394D01*
X114810289Y-79869789D01*
X114921789Y-79758289D01*
X115009394Y-79627179D01*
X115069737Y-79481497D01*
X115100500Y-79326842D01*
X115100500Y-79169158D01*
X115100500Y-79169155D01*
X115100499Y-79169153D01*
X115069738Y-79014510D01*
X115069737Y-79014503D01*
X115029242Y-78916738D01*
X115009397Y-78868827D01*
X115009390Y-78868814D01*
X114921789Y-78737711D01*
X114921786Y-78737707D01*
X114810292Y-78626213D01*
X114810288Y-78626210D01*
X114679185Y-78538609D01*
X114679172Y-78538602D01*
X114533501Y-78478264D01*
X114533489Y-78478261D01*
X114378845Y-78447500D01*
X114378842Y-78447500D01*
X114221158Y-78447500D01*
X114221155Y-78447500D01*
X114066510Y-78478261D01*
X114066498Y-78478264D01*
X113920827Y-78538602D01*
X113920814Y-78538609D01*
X113808391Y-78613729D01*
X113741714Y-78634607D01*
X113674333Y-78616123D01*
X113627643Y-78564144D01*
X113615500Y-78510627D01*
X113615500Y-77773952D01*
X117549500Y-77773952D01*
X117549500Y-78066047D01*
X117582199Y-78356271D01*
X117582202Y-78356285D01*
X117647196Y-78641044D01*
X117647197Y-78641046D01*
X117743665Y-78916738D01*
X117870393Y-79179890D01*
X117880180Y-79195466D01*
X118025792Y-79427206D01*
X118207902Y-79655565D01*
X118414435Y-79862098D01*
X118642794Y-80044208D01*
X118890107Y-80199605D01*
X119153263Y-80326335D01*
X119428955Y-80422803D01*
X119713714Y-80487798D01*
X119713723Y-80487799D01*
X119713728Y-80487800D01*
X119907210Y-80509599D01*
X120003953Y-80520499D01*
X120003956Y-80520500D01*
X120003959Y-80520500D01*
X120296044Y-80520500D01*
X120296045Y-80520499D01*
X120444371Y-80503787D01*
X120586271Y-80487800D01*
X120586274Y-80487799D01*
X120586286Y-80487798D01*
X120871045Y-80422803D01*
X121146737Y-80326335D01*
X121409893Y-80199605D01*
X121657206Y-80044208D01*
X121885565Y-79862098D01*
X122092098Y-79655565D01*
X122274208Y-79427206D01*
X122429605Y-79179893D01*
X122556335Y-78916737D01*
X122652803Y-78641045D01*
X122717798Y-78356286D01*
X122750500Y-78066041D01*
X122750500Y-77773959D01*
X122717798Y-77483714D01*
X122652803Y-77198955D01*
X122556335Y-76923263D01*
X122429605Y-76660107D01*
X122274208Y-76412794D01*
X122092098Y-76184435D01*
X121995311Y-76087648D01*
X184213205Y-76087648D01*
X184213205Y-76292351D01*
X184245227Y-76494534D01*
X184308486Y-76689223D01*
X184401420Y-76871613D01*
X184521733Y-77037213D01*
X184666491Y-77181971D01*
X184821454Y-77294556D01*
X184832095Y-77302287D01*
X184948312Y-77361503D01*
X185014481Y-77395218D01*
X185014483Y-77395218D01*
X185014486Y-77395220D01*
X185118842Y-77429127D01*
X185209170Y-77458477D01*
X185310262Y-77474488D01*
X185411353Y-77490500D01*
X185411354Y-77490500D01*
X185616056Y-77490500D01*
X185616057Y-77490500D01*
X185818239Y-77458477D01*
X186012924Y-77395220D01*
X186195315Y-77302287D01*
X186288295Y-77234732D01*
X186360918Y-77181971D01*
X186360920Y-77181968D01*
X186360924Y-77181966D01*
X186505671Y-77037219D01*
X186505673Y-77037215D01*
X186505676Y-77037213D01*
X186588464Y-76923263D01*
X186625992Y-76871610D01*
X186718925Y-76689219D01*
X186782182Y-76494534D01*
X186814205Y-76292352D01*
X186814205Y-76087648D01*
X186782182Y-75885466D01*
X186718925Y-75690781D01*
X186718923Y-75690778D01*
X186718923Y-75690776D01*
X186685208Y-75624607D01*
X186625992Y-75508390D01*
X186618261Y-75497749D01*
X186505676Y-75342786D01*
X186360918Y-75198028D01*
X186195318Y-75077715D01*
X186195317Y-75077714D01*
X186195315Y-75077713D01*
X186126149Y-75042471D01*
X186012928Y-74984781D01*
X185818239Y-74921522D01*
X185643700Y-74893878D01*
X185616057Y-74889500D01*
X185411353Y-74889500D01*
X185387034Y-74893351D01*
X185209170Y-74921522D01*
X185014481Y-74984781D01*
X184832091Y-75077715D01*
X184666491Y-75198028D01*
X184521733Y-75342786D01*
X184401420Y-75508386D01*
X184308486Y-75690776D01*
X184245227Y-75885465D01*
X184213205Y-76087648D01*
X121995311Y-76087648D01*
X121885565Y-75977902D01*
X121657206Y-75795792D01*
X121409893Y-75640395D01*
X121409890Y-75640393D01*
X121146738Y-75513665D01*
X120871046Y-75417197D01*
X120871044Y-75417196D01*
X120651280Y-75367036D01*
X120586286Y-75352202D01*
X120586283Y-75352201D01*
X120586271Y-75352199D01*
X120296047Y-75319500D01*
X120296041Y-75319500D01*
X120003959Y-75319500D01*
X120003952Y-75319500D01*
X119713728Y-75352199D01*
X119713714Y-75352202D01*
X119428955Y-75417196D01*
X119428953Y-75417197D01*
X119153261Y-75513665D01*
X118890109Y-75640393D01*
X118642795Y-75795791D01*
X118414435Y-75977901D01*
X118207901Y-76184435D01*
X118025791Y-76412795D01*
X117870393Y-76660109D01*
X117743665Y-76923261D01*
X117647197Y-77198953D01*
X117647196Y-77198955D01*
X117582202Y-77483714D01*
X117582199Y-77483728D01*
X117549500Y-77773952D01*
X113615500Y-77773952D01*
X113615500Y-70037648D01*
X120309500Y-70037648D01*
X120309500Y-70242351D01*
X120341522Y-70444534D01*
X120404781Y-70639223D01*
X120497715Y-70821613D01*
X120618028Y-70987213D01*
X120762786Y-71131971D01*
X120874193Y-71212911D01*
X120928390Y-71252287D01*
X121044607Y-71311503D01*
X121110776Y-71345218D01*
X121110778Y-71345218D01*
X121110781Y-71345220D01*
X121192300Y-71371707D01*
X121305465Y-71408477D01*
X121406557Y-71424488D01*
X121507648Y-71440500D01*
X121507649Y-71440500D01*
X121712351Y-71440500D01*
X121712352Y-71440500D01*
X121914534Y-71408477D01*
X122109219Y-71345220D01*
X122291610Y-71252287D01*
X122401278Y-71172609D01*
X122457213Y-71131971D01*
X122457215Y-71131968D01*
X122457219Y-71131966D01*
X122601966Y-70987219D01*
X122601968Y-70987215D01*
X122601971Y-70987213D01*
X122654732Y-70914590D01*
X122722287Y-70821610D01*
X122815220Y-70639219D01*
X122878477Y-70444534D01*
X122910500Y-70242352D01*
X122910500Y-70037648D01*
X123379500Y-70037648D01*
X123379500Y-70242351D01*
X123411522Y-70444534D01*
X123474781Y-70639223D01*
X123567715Y-70821613D01*
X123688028Y-70987213D01*
X123832786Y-71131971D01*
X123944193Y-71212911D01*
X123998390Y-71252287D01*
X124114607Y-71311503D01*
X124180776Y-71345218D01*
X124180778Y-71345218D01*
X124180781Y-71345220D01*
X124262300Y-71371707D01*
X124375465Y-71408477D01*
X124476557Y-71424488D01*
X124577648Y-71440500D01*
X124577649Y-71440500D01*
X124782351Y-71440500D01*
X124782352Y-71440500D01*
X124984534Y-71408477D01*
X125179219Y-71345220D01*
X125361610Y-71252287D01*
X125471278Y-71172609D01*
X125527213Y-71131971D01*
X125527215Y-71131968D01*
X125527219Y-71131966D01*
X125671966Y-70987219D01*
X125671968Y-70987215D01*
X125671971Y-70987213D01*
X125724732Y-70914590D01*
X125792287Y-70821610D01*
X125885220Y-70639219D01*
X125948477Y-70444534D01*
X125980500Y-70242352D01*
X125980500Y-70037648D01*
X126479500Y-70037648D01*
X126479500Y-70242351D01*
X126511522Y-70444534D01*
X126574781Y-70639223D01*
X126667715Y-70821613D01*
X126788028Y-70987213D01*
X126932786Y-71131971D01*
X127044193Y-71212911D01*
X127098390Y-71252287D01*
X127214607Y-71311503D01*
X127280776Y-71345218D01*
X127280778Y-71345218D01*
X127280781Y-71345220D01*
X127362300Y-71371707D01*
X127475465Y-71408477D01*
X127576557Y-71424488D01*
X127677648Y-71440500D01*
X127677649Y-71440500D01*
X127882351Y-71440500D01*
X127882352Y-71440500D01*
X128084534Y-71408477D01*
X128279219Y-71345220D01*
X128461610Y-71252287D01*
X128571278Y-71172609D01*
X128627213Y-71131971D01*
X128627215Y-71131968D01*
X128627219Y-71131966D01*
X128771966Y-70987219D01*
X128771968Y-70987215D01*
X128771971Y-70987213D01*
X128824732Y-70914590D01*
X128892287Y-70821610D01*
X128985220Y-70639219D01*
X129048477Y-70444534D01*
X129080500Y-70242352D01*
X129080500Y-70037648D01*
X129549500Y-70037648D01*
X129549500Y-70242351D01*
X129581522Y-70444534D01*
X129644781Y-70639223D01*
X129737715Y-70821613D01*
X129858028Y-70987213D01*
X130002786Y-71131971D01*
X130114193Y-71212911D01*
X130168390Y-71252287D01*
X130284607Y-71311503D01*
X130350776Y-71345218D01*
X130350778Y-71345218D01*
X130350781Y-71345220D01*
X130432300Y-71371707D01*
X130545465Y-71408477D01*
X130646557Y-71424488D01*
X130747648Y-71440500D01*
X130747649Y-71440500D01*
X130952351Y-71440500D01*
X130952352Y-71440500D01*
X131154534Y-71408477D01*
X131349219Y-71345220D01*
X131531610Y-71252287D01*
X131641278Y-71172609D01*
X131697213Y-71131971D01*
X131697215Y-71131968D01*
X131697219Y-71131966D01*
X131841966Y-70987219D01*
X131841968Y-70987215D01*
X131841971Y-70987213D01*
X131894732Y-70914590D01*
X131962287Y-70821610D01*
X132055220Y-70639219D01*
X132118477Y-70444534D01*
X132150500Y-70242352D01*
X132150500Y-70037648D01*
X132619500Y-70037648D01*
X132619500Y-70242351D01*
X132651522Y-70444534D01*
X132714781Y-70639223D01*
X132807715Y-70821613D01*
X132928028Y-70987213D01*
X133072786Y-71131971D01*
X133184193Y-71212911D01*
X133238390Y-71252287D01*
X133354607Y-71311503D01*
X133420776Y-71345218D01*
X133420778Y-71345218D01*
X133420781Y-71345220D01*
X133502300Y-71371707D01*
X133615465Y-71408477D01*
X133716557Y-71424488D01*
X133817648Y-71440500D01*
X133817649Y-71440500D01*
X134022351Y-71440500D01*
X134022352Y-71440500D01*
X134224534Y-71408477D01*
X134419219Y-71345220D01*
X134601610Y-71252287D01*
X134711278Y-71172609D01*
X134767213Y-71131971D01*
X134767215Y-71131968D01*
X134767219Y-71131966D01*
X134911966Y-70987219D01*
X134911968Y-70987215D01*
X134911971Y-70987213D01*
X134964732Y-70914590D01*
X135032287Y-70821610D01*
X135125220Y-70639219D01*
X135188477Y-70444534D01*
X135220500Y-70242352D01*
X135220500Y-70037648D01*
X135709500Y-70037648D01*
X135709500Y-70242351D01*
X135741522Y-70444534D01*
X135804781Y-70639223D01*
X135897715Y-70821613D01*
X136018028Y-70987213D01*
X136162786Y-71131971D01*
X136274193Y-71212911D01*
X136328390Y-71252287D01*
X136444607Y-71311503D01*
X136510776Y-71345218D01*
X136510778Y-71345218D01*
X136510781Y-71345220D01*
X136592300Y-71371707D01*
X136705465Y-71408477D01*
X136806557Y-71424488D01*
X136907648Y-71440500D01*
X136907649Y-71440500D01*
X137112351Y-71440500D01*
X137112352Y-71440500D01*
X137314534Y-71408477D01*
X137509219Y-71345220D01*
X137691610Y-71252287D01*
X137801278Y-71172609D01*
X137857213Y-71131971D01*
X137857215Y-71131968D01*
X137857219Y-71131966D01*
X138001966Y-70987219D01*
X138001968Y-70987215D01*
X138001971Y-70987213D01*
X138054732Y-70914590D01*
X138122287Y-70821610D01*
X138215220Y-70639219D01*
X138278477Y-70444534D01*
X138310500Y-70242352D01*
X138310500Y-70037648D01*
X138769500Y-70037648D01*
X138769500Y-70242351D01*
X138801522Y-70444534D01*
X138864781Y-70639223D01*
X138957715Y-70821613D01*
X139078028Y-70987213D01*
X139222786Y-71131971D01*
X139334193Y-71212911D01*
X139388390Y-71252287D01*
X139504607Y-71311503D01*
X139570776Y-71345218D01*
X139570778Y-71345218D01*
X139570781Y-71345220D01*
X139652300Y-71371707D01*
X139765465Y-71408477D01*
X139866557Y-71424488D01*
X139967648Y-71440500D01*
X139967649Y-71440500D01*
X140172351Y-71440500D01*
X140172352Y-71440500D01*
X140374534Y-71408477D01*
X140569219Y-71345220D01*
X140751610Y-71252287D01*
X140861278Y-71172609D01*
X140917213Y-71131971D01*
X140917215Y-71131968D01*
X140917219Y-71131966D01*
X141061966Y-70987219D01*
X141061968Y-70987215D01*
X141061971Y-70987213D01*
X141114732Y-70914590D01*
X141182287Y-70821610D01*
X141275220Y-70639219D01*
X141338477Y-70444534D01*
X141370500Y-70242352D01*
X141370500Y-70037648D01*
X141839500Y-70037648D01*
X141839500Y-70242351D01*
X141871522Y-70444534D01*
X141934781Y-70639223D01*
X142027715Y-70821613D01*
X142148028Y-70987213D01*
X142292786Y-71131971D01*
X142404193Y-71212911D01*
X142458390Y-71252287D01*
X142574607Y-71311503D01*
X142640776Y-71345218D01*
X142640778Y-71345218D01*
X142640781Y-71345220D01*
X142722300Y-71371707D01*
X142835465Y-71408477D01*
X142936557Y-71424488D01*
X143037648Y-71440500D01*
X143037649Y-71440500D01*
X143242351Y-71440500D01*
X143242352Y-71440500D01*
X143444534Y-71408477D01*
X143639219Y-71345220D01*
X143821610Y-71252287D01*
X143931278Y-71172609D01*
X143987213Y-71131971D01*
X143987215Y-71131968D01*
X143987219Y-71131966D01*
X144131966Y-70987219D01*
X144131968Y-70987215D01*
X144131971Y-70987213D01*
X144184732Y-70914590D01*
X144252287Y-70821610D01*
X144345220Y-70639219D01*
X144408477Y-70444534D01*
X144440500Y-70242352D01*
X144440500Y-70037648D01*
X144909500Y-70037648D01*
X144909500Y-70242351D01*
X144941522Y-70444534D01*
X145004781Y-70639223D01*
X145097715Y-70821613D01*
X145218028Y-70987213D01*
X145362786Y-71131971D01*
X145474193Y-71212911D01*
X145528390Y-71252287D01*
X145644607Y-71311503D01*
X145710776Y-71345218D01*
X145710778Y-71345218D01*
X145710781Y-71345220D01*
X145792300Y-71371707D01*
X145905465Y-71408477D01*
X146006557Y-71424488D01*
X146107648Y-71440500D01*
X146107649Y-71440500D01*
X146312351Y-71440500D01*
X146312352Y-71440500D01*
X146514534Y-71408477D01*
X146709219Y-71345220D01*
X146891610Y-71252287D01*
X147001278Y-71172609D01*
X147057213Y-71131971D01*
X147057215Y-71131968D01*
X147057219Y-71131966D01*
X147201966Y-70987219D01*
X147201968Y-70987215D01*
X147201971Y-70987213D01*
X147254732Y-70914590D01*
X147322287Y-70821610D01*
X147415220Y-70639219D01*
X147478477Y-70444534D01*
X147510500Y-70242352D01*
X147510500Y-70037648D01*
X147999500Y-70037648D01*
X147999500Y-70242351D01*
X148031522Y-70444534D01*
X148094781Y-70639223D01*
X148187715Y-70821613D01*
X148308028Y-70987213D01*
X148452786Y-71131971D01*
X148564193Y-71212911D01*
X148618390Y-71252287D01*
X148734607Y-71311503D01*
X148800776Y-71345218D01*
X148800778Y-71345218D01*
X148800781Y-71345220D01*
X148882300Y-71371707D01*
X148995465Y-71408477D01*
X149096557Y-71424488D01*
X149197648Y-71440500D01*
X149197649Y-71440500D01*
X149402351Y-71440500D01*
X149402352Y-71440500D01*
X149604534Y-71408477D01*
X149799219Y-71345220D01*
X149981610Y-71252287D01*
X150091278Y-71172609D01*
X150147213Y-71131971D01*
X150147215Y-71131968D01*
X150147219Y-71131966D01*
X150291966Y-70987219D01*
X150291968Y-70987215D01*
X150291971Y-70987213D01*
X150344732Y-70914590D01*
X150412287Y-70821610D01*
X150505220Y-70639219D01*
X150568477Y-70444534D01*
X150600500Y-70242352D01*
X150600500Y-70037648D01*
X151119500Y-70037648D01*
X151119500Y-70242351D01*
X151151522Y-70444534D01*
X151214781Y-70639223D01*
X151307715Y-70821613D01*
X151428028Y-70987213D01*
X151572786Y-71131971D01*
X151684193Y-71212911D01*
X151738390Y-71252287D01*
X151854607Y-71311503D01*
X151920776Y-71345218D01*
X151920778Y-71345218D01*
X151920781Y-71345220D01*
X152002300Y-71371707D01*
X152115465Y-71408477D01*
X152216557Y-71424488D01*
X152317648Y-71440500D01*
X152317649Y-71440500D01*
X152522351Y-71440500D01*
X152522352Y-71440500D01*
X152724534Y-71408477D01*
X152919219Y-71345220D01*
X153101610Y-71252287D01*
X153211278Y-71172609D01*
X153267213Y-71131971D01*
X153267215Y-71131968D01*
X153267219Y-71131966D01*
X153411966Y-70987219D01*
X153411968Y-70987215D01*
X153411971Y-70987213D01*
X153464732Y-70914590D01*
X153532287Y-70821610D01*
X153625220Y-70639219D01*
X153688477Y-70444534D01*
X153720500Y-70242352D01*
X153720500Y-70037648D01*
X154219500Y-70037648D01*
X154219500Y-70242351D01*
X154251522Y-70444534D01*
X154314781Y-70639223D01*
X154407715Y-70821613D01*
X154528028Y-70987213D01*
X154672786Y-71131971D01*
X154784193Y-71212911D01*
X154838390Y-71252287D01*
X154954607Y-71311503D01*
X155020776Y-71345218D01*
X155020778Y-71345218D01*
X155020781Y-71345220D01*
X155102300Y-71371707D01*
X155215465Y-71408477D01*
X155316557Y-71424488D01*
X155417648Y-71440500D01*
X155417649Y-71440500D01*
X155622351Y-71440500D01*
X155622352Y-71440500D01*
X155824534Y-71408477D01*
X156019219Y-71345220D01*
X156201610Y-71252287D01*
X156311278Y-71172609D01*
X156367213Y-71131971D01*
X156367215Y-71131968D01*
X156367219Y-71131966D01*
X156511966Y-70987219D01*
X156511968Y-70987215D01*
X156511971Y-70987213D01*
X156564732Y-70914590D01*
X156632287Y-70821610D01*
X156725220Y-70639219D01*
X156788477Y-70444534D01*
X156820500Y-70242352D01*
X156820500Y-70037648D01*
X157249500Y-70037648D01*
X157249500Y-70242351D01*
X157281522Y-70444534D01*
X157344781Y-70639223D01*
X157437715Y-70821613D01*
X157558028Y-70987213D01*
X157702786Y-71131971D01*
X157814193Y-71212911D01*
X157868390Y-71252287D01*
X157984607Y-71311503D01*
X158050776Y-71345218D01*
X158050778Y-71345218D01*
X158050781Y-71345220D01*
X158132300Y-71371707D01*
X158245465Y-71408477D01*
X158346557Y-71424488D01*
X158447648Y-71440500D01*
X158447649Y-71440500D01*
X158652351Y-71440500D01*
X158652352Y-71440500D01*
X158854534Y-71408477D01*
X159049219Y-71345220D01*
X159231610Y-71252287D01*
X159341278Y-71172609D01*
X159397213Y-71131971D01*
X159397215Y-71131968D01*
X159397219Y-71131966D01*
X159541966Y-70987219D01*
X159541968Y-70987215D01*
X159541971Y-70987213D01*
X159594732Y-70914590D01*
X159662287Y-70821610D01*
X159755220Y-70639219D01*
X159818477Y-70444534D01*
X159850500Y-70242352D01*
X159850500Y-70037648D01*
X160299500Y-70037648D01*
X160299500Y-70242351D01*
X160331522Y-70444534D01*
X160394781Y-70639223D01*
X160487715Y-70821613D01*
X160608028Y-70987213D01*
X160752786Y-71131971D01*
X160864193Y-71212911D01*
X160918390Y-71252287D01*
X161034607Y-71311503D01*
X161100776Y-71345218D01*
X161100778Y-71345218D01*
X161100781Y-71345220D01*
X161182300Y-71371707D01*
X161295465Y-71408477D01*
X161396557Y-71424488D01*
X161497648Y-71440500D01*
X161497649Y-71440500D01*
X161702351Y-71440500D01*
X161702352Y-71440500D01*
X161904534Y-71408477D01*
X162099219Y-71345220D01*
X162281610Y-71252287D01*
X162391278Y-71172609D01*
X162447213Y-71131971D01*
X162447215Y-71131968D01*
X162447219Y-71131966D01*
X162591966Y-70987219D01*
X162591968Y-70987215D01*
X162591971Y-70987213D01*
X162644732Y-70914590D01*
X162712287Y-70821610D01*
X162805220Y-70639219D01*
X162868477Y-70444534D01*
X162900500Y-70242352D01*
X162900500Y-70037648D01*
X163369500Y-70037648D01*
X163369500Y-70242351D01*
X163401522Y-70444534D01*
X163464781Y-70639223D01*
X163557715Y-70821613D01*
X163678028Y-70987213D01*
X163822786Y-71131971D01*
X163934193Y-71212911D01*
X163988390Y-71252287D01*
X164104607Y-71311503D01*
X164170776Y-71345218D01*
X164170778Y-71345218D01*
X164170781Y-71345220D01*
X164252300Y-71371707D01*
X164365465Y-71408477D01*
X164466557Y-71424488D01*
X164567648Y-71440500D01*
X164567649Y-71440500D01*
X164772351Y-71440500D01*
X164772352Y-71440500D01*
X164974534Y-71408477D01*
X165169219Y-71345220D01*
X165351610Y-71252287D01*
X165461278Y-71172609D01*
X165517213Y-71131971D01*
X165517215Y-71131968D01*
X165517219Y-71131966D01*
X165661966Y-70987219D01*
X165661968Y-70987215D01*
X165661971Y-70987213D01*
X165714732Y-70914590D01*
X165782287Y-70821610D01*
X165875220Y-70639219D01*
X165938477Y-70444534D01*
X165970500Y-70242352D01*
X165970500Y-70037648D01*
X166419500Y-70037648D01*
X166419500Y-70242351D01*
X166451522Y-70444534D01*
X166514781Y-70639223D01*
X166607715Y-70821613D01*
X166728028Y-70987213D01*
X166872786Y-71131971D01*
X166984193Y-71212911D01*
X167038390Y-71252287D01*
X167154607Y-71311503D01*
X167220776Y-71345218D01*
X167220778Y-71345218D01*
X167220781Y-71345220D01*
X167302300Y-71371707D01*
X167415465Y-71408477D01*
X167516557Y-71424488D01*
X167617648Y-71440500D01*
X167617649Y-71440500D01*
X167822351Y-71440500D01*
X167822352Y-71440500D01*
X168024534Y-71408477D01*
X168219219Y-71345220D01*
X168401610Y-71252287D01*
X168511278Y-71172609D01*
X168567213Y-71131971D01*
X168567215Y-71131968D01*
X168567219Y-71131966D01*
X168711966Y-70987219D01*
X168711968Y-70987215D01*
X168711971Y-70987213D01*
X168764732Y-70914590D01*
X168832287Y-70821610D01*
X168925220Y-70639219D01*
X168988477Y-70444534D01*
X169020500Y-70242352D01*
X169020500Y-70037648D01*
X169509500Y-70037648D01*
X169509500Y-70242351D01*
X169541522Y-70444534D01*
X169604781Y-70639223D01*
X169697715Y-70821613D01*
X169818028Y-70987213D01*
X169962786Y-71131971D01*
X170074193Y-71212911D01*
X170128390Y-71252287D01*
X170244607Y-71311503D01*
X170310776Y-71345218D01*
X170310778Y-71345218D01*
X170310781Y-71345220D01*
X170392300Y-71371707D01*
X170505465Y-71408477D01*
X170606557Y-71424488D01*
X170707648Y-71440500D01*
X170707649Y-71440500D01*
X170912351Y-71440500D01*
X170912352Y-71440500D01*
X171114534Y-71408477D01*
X171309219Y-71345220D01*
X171491610Y-71252287D01*
X171601278Y-71172609D01*
X171657213Y-71131971D01*
X171657215Y-71131968D01*
X171657219Y-71131966D01*
X171801966Y-70987219D01*
X171801968Y-70987215D01*
X171801971Y-70987213D01*
X171854732Y-70914590D01*
X171922287Y-70821610D01*
X172015220Y-70639219D01*
X172078477Y-70444534D01*
X172110500Y-70242352D01*
X172110500Y-70037648D01*
X172599500Y-70037648D01*
X172599500Y-70242351D01*
X172631522Y-70444534D01*
X172694781Y-70639223D01*
X172787715Y-70821613D01*
X172908028Y-70987213D01*
X173052786Y-71131971D01*
X173164193Y-71212911D01*
X173218390Y-71252287D01*
X173334607Y-71311503D01*
X173400776Y-71345218D01*
X173400778Y-71345218D01*
X173400781Y-71345220D01*
X173482300Y-71371707D01*
X173595465Y-71408477D01*
X173696557Y-71424488D01*
X173797648Y-71440500D01*
X173797649Y-71440500D01*
X174002351Y-71440500D01*
X174002352Y-71440500D01*
X174204534Y-71408477D01*
X174399219Y-71345220D01*
X174581610Y-71252287D01*
X174691278Y-71172609D01*
X174747213Y-71131971D01*
X174747215Y-71131968D01*
X174747219Y-71131966D01*
X174891966Y-70987219D01*
X174891968Y-70987215D01*
X174891971Y-70987213D01*
X174944732Y-70914590D01*
X175012287Y-70821610D01*
X175105220Y-70639219D01*
X175168477Y-70444534D01*
X175200500Y-70242352D01*
X175200500Y-70037648D01*
X175168477Y-69835466D01*
X175105220Y-69640781D01*
X175105218Y-69640778D01*
X175105218Y-69640776D01*
X175071503Y-69574607D01*
X175012287Y-69458390D01*
X175004556Y-69447749D01*
X174891971Y-69292786D01*
X174747213Y-69148028D01*
X174581613Y-69027715D01*
X174581612Y-69027714D01*
X174581610Y-69027713D01*
X174524653Y-68998691D01*
X174399223Y-68934781D01*
X174204534Y-68871522D01*
X174029995Y-68843878D01*
X174002352Y-68839500D01*
X173797648Y-68839500D01*
X173773329Y-68843351D01*
X173595465Y-68871522D01*
X173400776Y-68934781D01*
X173218386Y-69027715D01*
X173052786Y-69148028D01*
X172908028Y-69292786D01*
X172787715Y-69458386D01*
X172694781Y-69640776D01*
X172631522Y-69835465D01*
X172599500Y-70037648D01*
X172110500Y-70037648D01*
X172078477Y-69835466D01*
X172015220Y-69640781D01*
X172015218Y-69640778D01*
X172015218Y-69640776D01*
X171981503Y-69574607D01*
X171922287Y-69458390D01*
X171914556Y-69447749D01*
X171801971Y-69292786D01*
X171657213Y-69148028D01*
X171491613Y-69027715D01*
X171491612Y-69027714D01*
X171491610Y-69027713D01*
X171434653Y-68998691D01*
X171309223Y-68934781D01*
X171114534Y-68871522D01*
X170939995Y-68843878D01*
X170912352Y-68839500D01*
X170707648Y-68839500D01*
X170683329Y-68843351D01*
X170505465Y-68871522D01*
X170310776Y-68934781D01*
X170128386Y-69027715D01*
X169962786Y-69148028D01*
X169818028Y-69292786D01*
X169697715Y-69458386D01*
X169604781Y-69640776D01*
X169541522Y-69835465D01*
X169509500Y-70037648D01*
X169020500Y-70037648D01*
X168988477Y-69835466D01*
X168925220Y-69640781D01*
X168925218Y-69640778D01*
X168925218Y-69640776D01*
X168891503Y-69574607D01*
X168832287Y-69458390D01*
X168824556Y-69447749D01*
X168711971Y-69292786D01*
X168567213Y-69148028D01*
X168401613Y-69027715D01*
X168401612Y-69027714D01*
X168401610Y-69027713D01*
X168344653Y-68998691D01*
X168219223Y-68934781D01*
X168024534Y-68871522D01*
X167849995Y-68843878D01*
X167822352Y-68839500D01*
X167617648Y-68839500D01*
X167593329Y-68843351D01*
X167415465Y-68871522D01*
X167220776Y-68934781D01*
X167038386Y-69027715D01*
X166872786Y-69148028D01*
X166728028Y-69292786D01*
X166607715Y-69458386D01*
X166514781Y-69640776D01*
X166451522Y-69835465D01*
X166419500Y-70037648D01*
X165970500Y-70037648D01*
X165938477Y-69835466D01*
X165875220Y-69640781D01*
X165875218Y-69640778D01*
X165875218Y-69640776D01*
X165841503Y-69574607D01*
X165782287Y-69458390D01*
X165774556Y-69447749D01*
X165661971Y-69292786D01*
X165517213Y-69148028D01*
X165351613Y-69027715D01*
X165351612Y-69027714D01*
X165351610Y-69027713D01*
X165294653Y-68998691D01*
X165169223Y-68934781D01*
X164974534Y-68871522D01*
X164799995Y-68843878D01*
X164772352Y-68839500D01*
X164567648Y-68839500D01*
X164543329Y-68843351D01*
X164365465Y-68871522D01*
X164170776Y-68934781D01*
X163988386Y-69027715D01*
X163822786Y-69148028D01*
X163678028Y-69292786D01*
X163557715Y-69458386D01*
X163464781Y-69640776D01*
X163401522Y-69835465D01*
X163369500Y-70037648D01*
X162900500Y-70037648D01*
X162868477Y-69835466D01*
X162805220Y-69640781D01*
X162805218Y-69640778D01*
X162805218Y-69640776D01*
X162771503Y-69574607D01*
X162712287Y-69458390D01*
X162704556Y-69447749D01*
X162591971Y-69292786D01*
X162447213Y-69148028D01*
X162281613Y-69027715D01*
X162281612Y-69027714D01*
X162281610Y-69027713D01*
X162224653Y-68998691D01*
X162099223Y-68934781D01*
X161904534Y-68871522D01*
X161729995Y-68843878D01*
X161702352Y-68839500D01*
X161497648Y-68839500D01*
X161473329Y-68843351D01*
X161295465Y-68871522D01*
X161100776Y-68934781D01*
X160918386Y-69027715D01*
X160752786Y-69148028D01*
X160608028Y-69292786D01*
X160487715Y-69458386D01*
X160394781Y-69640776D01*
X160331522Y-69835465D01*
X160299500Y-70037648D01*
X159850500Y-70037648D01*
X159818477Y-69835466D01*
X159755220Y-69640781D01*
X159755218Y-69640778D01*
X159755218Y-69640776D01*
X159721503Y-69574607D01*
X159662287Y-69458390D01*
X159654556Y-69447749D01*
X159541971Y-69292786D01*
X159397213Y-69148028D01*
X159231613Y-69027715D01*
X159231612Y-69027714D01*
X159231610Y-69027713D01*
X159174653Y-68998691D01*
X159049223Y-68934781D01*
X158854534Y-68871522D01*
X158679995Y-68843878D01*
X158652352Y-68839500D01*
X158447648Y-68839500D01*
X158423329Y-68843351D01*
X158245465Y-68871522D01*
X158050776Y-68934781D01*
X157868386Y-69027715D01*
X157702786Y-69148028D01*
X157558028Y-69292786D01*
X157437715Y-69458386D01*
X157344781Y-69640776D01*
X157281522Y-69835465D01*
X157249500Y-70037648D01*
X156820500Y-70037648D01*
X156788477Y-69835466D01*
X156725220Y-69640781D01*
X156725218Y-69640778D01*
X156725218Y-69640776D01*
X156691503Y-69574607D01*
X156632287Y-69458390D01*
X156624556Y-69447749D01*
X156511971Y-69292786D01*
X156367213Y-69148028D01*
X156201613Y-69027715D01*
X156201612Y-69027714D01*
X156201610Y-69027713D01*
X156144653Y-68998691D01*
X156019223Y-68934781D01*
X155824534Y-68871522D01*
X155649995Y-68843878D01*
X155622352Y-68839500D01*
X155417648Y-68839500D01*
X155393329Y-68843351D01*
X155215465Y-68871522D01*
X155020776Y-68934781D01*
X154838386Y-69027715D01*
X154672786Y-69148028D01*
X154528028Y-69292786D01*
X154407715Y-69458386D01*
X154314781Y-69640776D01*
X154251522Y-69835465D01*
X154219500Y-70037648D01*
X153720500Y-70037648D01*
X153688477Y-69835466D01*
X153625220Y-69640781D01*
X153625218Y-69640778D01*
X153625218Y-69640776D01*
X153591503Y-69574607D01*
X153532287Y-69458390D01*
X153524556Y-69447749D01*
X153411971Y-69292786D01*
X153267213Y-69148028D01*
X153101613Y-69027715D01*
X153101612Y-69027714D01*
X153101610Y-69027713D01*
X153044653Y-68998691D01*
X152919223Y-68934781D01*
X152724534Y-68871522D01*
X152549995Y-68843878D01*
X152522352Y-68839500D01*
X152317648Y-68839500D01*
X152293329Y-68843351D01*
X152115465Y-68871522D01*
X151920776Y-68934781D01*
X151738386Y-69027715D01*
X151572786Y-69148028D01*
X151428028Y-69292786D01*
X151307715Y-69458386D01*
X151214781Y-69640776D01*
X151151522Y-69835465D01*
X151119500Y-70037648D01*
X150600500Y-70037648D01*
X150568477Y-69835466D01*
X150505220Y-69640781D01*
X150505218Y-69640778D01*
X150505218Y-69640776D01*
X150471503Y-69574607D01*
X150412287Y-69458390D01*
X150404556Y-69447749D01*
X150291971Y-69292786D01*
X150147213Y-69148028D01*
X149981613Y-69027715D01*
X149981612Y-69027714D01*
X149981610Y-69027713D01*
X149924653Y-68998691D01*
X149799223Y-68934781D01*
X149604534Y-68871522D01*
X149429995Y-68843878D01*
X149402352Y-68839500D01*
X149197648Y-68839500D01*
X149173329Y-68843351D01*
X148995465Y-68871522D01*
X148800776Y-68934781D01*
X148618386Y-69027715D01*
X148452786Y-69148028D01*
X148308028Y-69292786D01*
X148187715Y-69458386D01*
X148094781Y-69640776D01*
X148031522Y-69835465D01*
X147999500Y-70037648D01*
X147510500Y-70037648D01*
X147478477Y-69835466D01*
X147415220Y-69640781D01*
X147415218Y-69640778D01*
X147415218Y-69640776D01*
X147381503Y-69574607D01*
X147322287Y-69458390D01*
X147314556Y-69447749D01*
X147201971Y-69292786D01*
X147057213Y-69148028D01*
X146891613Y-69027715D01*
X146891612Y-69027714D01*
X146891610Y-69027713D01*
X146834653Y-68998691D01*
X146709223Y-68934781D01*
X146514534Y-68871522D01*
X146339995Y-68843878D01*
X146312352Y-68839500D01*
X146107648Y-68839500D01*
X146083329Y-68843351D01*
X145905465Y-68871522D01*
X145710776Y-68934781D01*
X145528386Y-69027715D01*
X145362786Y-69148028D01*
X145218028Y-69292786D01*
X145097715Y-69458386D01*
X145004781Y-69640776D01*
X144941522Y-69835465D01*
X144909500Y-70037648D01*
X144440500Y-70037648D01*
X144408477Y-69835466D01*
X144345220Y-69640781D01*
X144345218Y-69640778D01*
X144345218Y-69640776D01*
X144311503Y-69574607D01*
X144252287Y-69458390D01*
X144244556Y-69447749D01*
X144131971Y-69292786D01*
X143987213Y-69148028D01*
X143821613Y-69027715D01*
X143821612Y-69027714D01*
X143821610Y-69027713D01*
X143764653Y-68998691D01*
X143639223Y-68934781D01*
X143444534Y-68871522D01*
X143269995Y-68843878D01*
X143242352Y-68839500D01*
X143037648Y-68839500D01*
X143013329Y-68843351D01*
X142835465Y-68871522D01*
X142640776Y-68934781D01*
X142458386Y-69027715D01*
X142292786Y-69148028D01*
X142148028Y-69292786D01*
X142027715Y-69458386D01*
X141934781Y-69640776D01*
X141871522Y-69835465D01*
X141839500Y-70037648D01*
X141370500Y-70037648D01*
X141338477Y-69835466D01*
X141275220Y-69640781D01*
X141275218Y-69640778D01*
X141275218Y-69640776D01*
X141241503Y-69574607D01*
X141182287Y-69458390D01*
X141174556Y-69447749D01*
X141061971Y-69292786D01*
X140917213Y-69148028D01*
X140751613Y-69027715D01*
X140751612Y-69027714D01*
X140751610Y-69027713D01*
X140694653Y-68998691D01*
X140569223Y-68934781D01*
X140374534Y-68871522D01*
X140199995Y-68843878D01*
X140172352Y-68839500D01*
X139967648Y-68839500D01*
X139943329Y-68843351D01*
X139765465Y-68871522D01*
X139570776Y-68934781D01*
X139388386Y-69027715D01*
X139222786Y-69148028D01*
X139078028Y-69292786D01*
X138957715Y-69458386D01*
X138864781Y-69640776D01*
X138801522Y-69835465D01*
X138769500Y-70037648D01*
X138310500Y-70037648D01*
X138278477Y-69835466D01*
X138215220Y-69640781D01*
X138215218Y-69640778D01*
X138215218Y-69640776D01*
X138181503Y-69574607D01*
X138122287Y-69458390D01*
X138114556Y-69447749D01*
X138001971Y-69292786D01*
X137857213Y-69148028D01*
X137691613Y-69027715D01*
X137691612Y-69027714D01*
X137691610Y-69027713D01*
X137634653Y-68998691D01*
X137509223Y-68934781D01*
X137314534Y-68871522D01*
X137139995Y-68843878D01*
X137112352Y-68839500D01*
X136907648Y-68839500D01*
X136883329Y-68843351D01*
X136705465Y-68871522D01*
X136510776Y-68934781D01*
X136328386Y-69027715D01*
X136162786Y-69148028D01*
X136018028Y-69292786D01*
X135897715Y-69458386D01*
X135804781Y-69640776D01*
X135741522Y-69835465D01*
X135709500Y-70037648D01*
X135220500Y-70037648D01*
X135188477Y-69835466D01*
X135125220Y-69640781D01*
X135125218Y-69640778D01*
X135125218Y-69640776D01*
X135091503Y-69574607D01*
X135032287Y-69458390D01*
X135024556Y-69447749D01*
X134911971Y-69292786D01*
X134767213Y-69148028D01*
X134601613Y-69027715D01*
X134601612Y-69027714D01*
X134601610Y-69027713D01*
X134544653Y-68998691D01*
X134419223Y-68934781D01*
X134224534Y-68871522D01*
X134049995Y-68843878D01*
X134022352Y-68839500D01*
X133817648Y-68839500D01*
X133793329Y-68843351D01*
X133615465Y-68871522D01*
X133420776Y-68934781D01*
X133238386Y-69027715D01*
X133072786Y-69148028D01*
X132928028Y-69292786D01*
X132807715Y-69458386D01*
X132714781Y-69640776D01*
X132651522Y-69835465D01*
X132619500Y-70037648D01*
X132150500Y-70037648D01*
X132118477Y-69835466D01*
X132055220Y-69640781D01*
X132055218Y-69640778D01*
X132055218Y-69640776D01*
X132021503Y-69574607D01*
X131962287Y-69458390D01*
X131954556Y-69447749D01*
X131841971Y-69292786D01*
X131697213Y-69148028D01*
X131531613Y-69027715D01*
X131531612Y-69027714D01*
X131531610Y-69027713D01*
X131474653Y-68998691D01*
X131349223Y-68934781D01*
X131154534Y-68871522D01*
X130979995Y-68843878D01*
X130952352Y-68839500D01*
X130747648Y-68839500D01*
X130723329Y-68843351D01*
X130545465Y-68871522D01*
X130350776Y-68934781D01*
X130168386Y-69027715D01*
X130002786Y-69148028D01*
X129858028Y-69292786D01*
X129737715Y-69458386D01*
X129644781Y-69640776D01*
X129581522Y-69835465D01*
X129549500Y-70037648D01*
X129080500Y-70037648D01*
X129048477Y-69835466D01*
X128985220Y-69640781D01*
X128985218Y-69640778D01*
X128985218Y-69640776D01*
X128951503Y-69574607D01*
X128892287Y-69458390D01*
X128884556Y-69447749D01*
X128771971Y-69292786D01*
X128627213Y-69148028D01*
X128461613Y-69027715D01*
X128461612Y-69027714D01*
X128461610Y-69027713D01*
X128404653Y-68998691D01*
X128279223Y-68934781D01*
X128084534Y-68871522D01*
X127909995Y-68843878D01*
X127882352Y-68839500D01*
X127677648Y-68839500D01*
X127653329Y-68843351D01*
X127475465Y-68871522D01*
X127280776Y-68934781D01*
X127098386Y-69027715D01*
X126932786Y-69148028D01*
X126788028Y-69292786D01*
X126667715Y-69458386D01*
X126574781Y-69640776D01*
X126511522Y-69835465D01*
X126479500Y-70037648D01*
X125980500Y-70037648D01*
X125948477Y-69835466D01*
X125885220Y-69640781D01*
X125885218Y-69640778D01*
X125885218Y-69640776D01*
X125851503Y-69574607D01*
X125792287Y-69458390D01*
X125784556Y-69447749D01*
X125671971Y-69292786D01*
X125527213Y-69148028D01*
X125361613Y-69027715D01*
X125361612Y-69027714D01*
X125361610Y-69027713D01*
X125304653Y-68998691D01*
X125179223Y-68934781D01*
X124984534Y-68871522D01*
X124809995Y-68843878D01*
X124782352Y-68839500D01*
X124577648Y-68839500D01*
X124553329Y-68843351D01*
X124375465Y-68871522D01*
X124180776Y-68934781D01*
X123998386Y-69027715D01*
X123832786Y-69148028D01*
X123688028Y-69292786D01*
X123567715Y-69458386D01*
X123474781Y-69640776D01*
X123411522Y-69835465D01*
X123379500Y-70037648D01*
X122910500Y-70037648D01*
X122878477Y-69835466D01*
X122815220Y-69640781D01*
X122815218Y-69640778D01*
X122815218Y-69640776D01*
X122781503Y-69574607D01*
X122722287Y-69458390D01*
X122714556Y-69447749D01*
X122601971Y-69292786D01*
X122457213Y-69148028D01*
X122291613Y-69027715D01*
X122291612Y-69027714D01*
X122291610Y-69027713D01*
X122234653Y-68998691D01*
X122109223Y-68934781D01*
X121914534Y-68871522D01*
X121739995Y-68843878D01*
X121712352Y-68839500D01*
X121507648Y-68839500D01*
X121483329Y-68843351D01*
X121305465Y-68871522D01*
X121110776Y-68934781D01*
X120928386Y-69027715D01*
X120762786Y-69148028D01*
X120618028Y-69292786D01*
X120497715Y-69458386D01*
X120404781Y-69640776D01*
X120341522Y-69835465D01*
X120309500Y-70037648D01*
X113615500Y-70037648D01*
X113615500Y-53630703D01*
X154949500Y-53630703D01*
X154949500Y-53788396D01*
X154980261Y-53943039D01*
X154980264Y-53943051D01*
X155040602Y-54088722D01*
X155040609Y-54088735D01*
X155128210Y-54219838D01*
X155128213Y-54219842D01*
X155239707Y-54331336D01*
X155239711Y-54331339D01*
X155370814Y-54418940D01*
X155370827Y-54418947D01*
X155507358Y-54475499D01*
X155516503Y-54479287D01*
X155671153Y-54510049D01*
X155671156Y-54510050D01*
X155671158Y-54510050D01*
X155828844Y-54510050D01*
X155828845Y-54510049D01*
X155983497Y-54479287D01*
X156129179Y-54418944D01*
X156260289Y-54331339D01*
X156371789Y-54219839D01*
X156459394Y-54088729D01*
X156519737Y-53943047D01*
X156550500Y-53788392D01*
X156550500Y-53630708D01*
X156550500Y-53630705D01*
X156550499Y-53630703D01*
X156547761Y-53616940D01*
X156519737Y-53476053D01*
X156500124Y-53428703D01*
X156459397Y-53330377D01*
X156459390Y-53330364D01*
X156371789Y-53199261D01*
X156371786Y-53199257D01*
X156260292Y-53087763D01*
X156260288Y-53087760D01*
X156129185Y-53000159D01*
X156129172Y-53000152D01*
X155983501Y-52939814D01*
X155983489Y-52939811D01*
X155828845Y-52909050D01*
X155828842Y-52909050D01*
X155671158Y-52909050D01*
X155671155Y-52909050D01*
X155516510Y-52939811D01*
X155516498Y-52939814D01*
X155370827Y-53000152D01*
X155370814Y-53000159D01*
X155239711Y-53087760D01*
X155239707Y-53087763D01*
X155128213Y-53199257D01*
X155128210Y-53199261D01*
X155040609Y-53330364D01*
X155040602Y-53330377D01*
X154980264Y-53476048D01*
X154980261Y-53476060D01*
X154949500Y-53630703D01*
X113615500Y-53630703D01*
X113615500Y-52653950D01*
X113635185Y-52586911D01*
X113687989Y-52541156D01*
X113739500Y-52529950D01*
X158372159Y-52529950D01*
X158439198Y-52549635D01*
G37*
G04 #@! TD.AperFunction*
G04 #@! TA.AperFunction,Conductor*
G36*
X151824454Y-92619185D02*
G01*
X151870209Y-92671989D01*
X151880153Y-92741147D01*
X151879032Y-92747692D01*
X151849500Y-92896155D01*
X151849500Y-93053846D01*
X151880261Y-93208489D01*
X151880264Y-93208501D01*
X151940602Y-93354172D01*
X151940609Y-93354185D01*
X152028210Y-93485288D01*
X152028213Y-93485292D01*
X152139707Y-93596786D01*
X152139711Y-93596789D01*
X152270814Y-93684390D01*
X152270827Y-93684397D01*
X152416498Y-93744735D01*
X152416503Y-93744737D01*
X152568489Y-93774969D01*
X152571153Y-93775499D01*
X152571156Y-93775500D01*
X152571158Y-93775500D01*
X152728844Y-93775500D01*
X152728845Y-93775499D01*
X152883497Y-93744737D01*
X153029179Y-93684394D01*
X153160289Y-93596789D01*
X153271789Y-93485289D01*
X153359394Y-93354179D01*
X153419737Y-93208497D01*
X153450500Y-93053842D01*
X153450500Y-92896158D01*
X153450500Y-92896155D01*
X153420968Y-92747692D01*
X153427195Y-92678100D01*
X153470058Y-92622923D01*
X153535947Y-92599678D01*
X153542585Y-92599500D01*
X157582550Y-92599500D01*
X157649589Y-92619185D01*
X157695344Y-92671989D01*
X157705288Y-92741147D01*
X157704168Y-92747690D01*
X157699500Y-92771158D01*
X157699500Y-92928846D01*
X157730261Y-93083489D01*
X157730264Y-93083501D01*
X157790602Y-93229172D01*
X157790609Y-93229185D01*
X157878210Y-93360288D01*
X157878213Y-93360292D01*
X157989707Y-93471786D01*
X157989711Y-93471789D01*
X158084085Y-93534848D01*
X158128890Y-93588460D01*
X158137597Y-93657785D01*
X158107443Y-93720812D01*
X158048000Y-93757532D01*
X158015194Y-93761950D01*
X157946155Y-93761950D01*
X157791510Y-93792711D01*
X157791498Y-93792714D01*
X157645827Y-93853052D01*
X157645814Y-93853059D01*
X157514711Y-93940660D01*
X157434824Y-94020547D01*
X157373500Y-94054031D01*
X157303809Y-94049047D01*
X157247875Y-94007175D01*
X157225526Y-93957058D01*
X157219737Y-93927953D01*
X157188714Y-93853056D01*
X157159397Y-93782277D01*
X157159390Y-93782264D01*
X157071789Y-93651161D01*
X157071786Y-93651157D01*
X156960292Y-93539663D01*
X156960288Y-93539660D01*
X156829185Y-93452059D01*
X156829172Y-93452052D01*
X156683501Y-93391714D01*
X156683489Y-93391711D01*
X156528845Y-93360950D01*
X156528842Y-93360950D01*
X156371158Y-93360950D01*
X156371155Y-93360950D01*
X156216510Y-93391711D01*
X156216498Y-93391714D01*
X156070827Y-93452052D01*
X156070814Y-93452059D01*
X155939711Y-93539660D01*
X155939707Y-93539663D01*
X155828213Y-93651157D01*
X155828210Y-93651161D01*
X155740609Y-93782264D01*
X155740602Y-93782277D01*
X155680264Y-93927948D01*
X155680261Y-93927960D01*
X155649500Y-94082603D01*
X155649500Y-94240296D01*
X155680261Y-94394939D01*
X155680264Y-94394951D01*
X155740602Y-94540622D01*
X155740609Y-94540635D01*
X155826420Y-94669059D01*
X155847298Y-94735736D01*
X155828814Y-94803117D01*
X155776835Y-94849807D01*
X155723318Y-94861950D01*
X145855226Y-94861950D01*
X145788187Y-94842265D01*
X145742432Y-94789461D01*
X145732488Y-94720303D01*
X145733609Y-94713758D01*
X145750500Y-94628844D01*
X145750500Y-94471155D01*
X145750499Y-94471153D01*
X145745245Y-94444738D01*
X145719737Y-94316503D01*
X145688451Y-94240971D01*
X145659397Y-94170827D01*
X145659390Y-94170814D01*
X145571789Y-94039711D01*
X145571786Y-94039707D01*
X145460292Y-93928213D01*
X145460288Y-93928210D01*
X145329185Y-93840609D01*
X145329172Y-93840602D01*
X145183501Y-93780264D01*
X145183491Y-93780261D01*
X145026933Y-93749119D01*
X144965022Y-93716734D01*
X144930448Y-93656018D01*
X144934189Y-93586248D01*
X144948024Y-93558610D01*
X144960686Y-93539661D01*
X144984394Y-93504179D01*
X145044737Y-93358497D01*
X145075500Y-93203842D01*
X145075500Y-93046158D01*
X145075500Y-93046155D01*
X145075499Y-93046153D01*
X145069797Y-93017488D01*
X145044737Y-92891503D01*
X145026366Y-92847150D01*
X144994804Y-92770952D01*
X144987335Y-92701483D01*
X145018610Y-92639004D01*
X145078700Y-92603352D01*
X145109365Y-92599500D01*
X151757415Y-92599500D01*
X151824454Y-92619185D01*
G37*
G04 #@! TD.AperFunction*
M02*
