G04 #@! TF.GenerationSoftware,KiCad,Pcbnew,9.0.1*
G04 #@! TF.CreationDate,2025-06-29T19:09:30+12:00*
G04 #@! TF.ProjectId,pdp-11-colour,7064702d-3131-42d6-936f-6c6f75722e6b,rev?*
G04 #@! TF.SameCoordinates,Original*
G04 #@! TF.FileFunction,Copper,L3,Inr*
G04 #@! TF.FilePolarity,Positive*
%FSLAX46Y46*%
G04 Gerber Fmt 4.6, Leading zero omitted, Abs format (unit mm)*
G04 Created by KiCad (PCBNEW 9.0.1) date 2025-06-29 19:09:30*
%MOMM*%
%LPD*%
G01*
G04 APERTURE LIST*
G04 #@! TA.AperFunction,ViaPad*
%ADD10C,0.600000*%
G04 #@! TD*
G04 #@! TA.AperFunction,Conductor*
%ADD11C,0.200000*%
G04 #@! TD*
G04 APERTURE END LIST*
D10*
X194750000Y-93050000D03*
X211410000Y-92990000D03*
X160900000Y-93675000D03*
X186944000Y-53340000D03*
X169320000Y-92890000D03*
X174430130Y-52907550D03*
X126700000Y-94550000D03*
X144950000Y-94550000D03*
X187470000Y-92540000D03*
X162798472Y-53308550D03*
X171900000Y-92900000D03*
X131760000Y-92870000D03*
X180225343Y-93159635D03*
X207125000Y-92575000D03*
X151400000Y-93325000D03*
X141075000Y-54225000D03*
X160750000Y-53308550D03*
X141425000Y-93675000D03*
X166300000Y-53875000D03*
X155475000Y-92600000D03*
X114300000Y-80518000D03*
X185287500Y-55626000D03*
X179832000Y-55880000D03*
X171107135Y-53308550D03*
X180850000Y-53650000D03*
X149550000Y-93350000D03*
X179832000Y-55372000D03*
X136150000Y-53600000D03*
X181350000Y-55626000D03*
X212315000Y-64825995D03*
X176075000Y-53507550D03*
X169048527Y-53875000D03*
X212315000Y-65625998D03*
X172675000Y-53575000D03*
X168200000Y-53875000D03*
X212275000Y-66425000D03*
X162050000Y-53675000D03*
X159025000Y-53308550D03*
X155750000Y-53709550D03*
X210825000Y-73277071D03*
X152650000Y-92975000D03*
X156450000Y-94161450D03*
X144275000Y-93125000D03*
X212175000Y-71882000D03*
X158025000Y-94562450D03*
X158500000Y-92850000D03*
X211575000Y-72677071D03*
X183861639Y-92682393D03*
X211650000Y-57150000D03*
X193294000Y-52907550D03*
X182372000Y-92710000D03*
X211650000Y-59182000D03*
X178600000Y-92958450D03*
X184658000Y-92758635D03*
X211650000Y-58166000D03*
X191770000Y-53594000D03*
X115316000Y-89154000D03*
X189830000Y-53594000D03*
X115316000Y-84074000D03*
X211582000Y-56134000D03*
X118110000Y-93726000D03*
X118110000Y-92925997D03*
X114300000Y-79248000D03*
X192570003Y-53594000D03*
X115316000Y-86614000D03*
X190754000Y-53594000D03*
D11*
X171126057Y-54176000D02*
X173161680Y-54176000D01*
X170225057Y-53275000D02*
X171126057Y-54176000D01*
X162832022Y-53275000D02*
X170225057Y-53275000D01*
X162798472Y-53308550D02*
X162832022Y-53275000D01*
X144950000Y-94550000D02*
X126700000Y-94550000D01*
X173161680Y-54176000D02*
X174430130Y-52907550D01*
X180848000Y-93159635D02*
X181246815Y-93558450D01*
X180225343Y-93159635D02*
X180848000Y-93159635D01*
X190776000Y-91999000D02*
X206549000Y-91999000D01*
X206549000Y-91999000D02*
X207125000Y-92575000D01*
X181246815Y-93558450D02*
X189216550Y-93558450D01*
X189216550Y-93558450D02*
X190776000Y-91999000D01*
X211225000Y-54650000D02*
X177217450Y-54650000D01*
X177217450Y-54650000D02*
X176075000Y-53507550D01*
X212250000Y-55675000D02*
X211225000Y-54650000D01*
X212250000Y-64760995D02*
X212250000Y-55675000D01*
X212315000Y-64825995D02*
X212250000Y-64760995D01*
X169050000Y-53875000D02*
X180800998Y-65625998D01*
X169048527Y-53875000D02*
X169050000Y-53875000D01*
X180800998Y-65625998D02*
X212315000Y-65625998D01*
X162050000Y-53125000D02*
X162466450Y-52708550D01*
X168200000Y-53875000D02*
X180824194Y-66499194D01*
X171808550Y-52708550D02*
X172675000Y-53575000D01*
X162466450Y-52708550D02*
X171808550Y-52708550D01*
X162050000Y-53675000D02*
X162050000Y-53125000D01*
X212200806Y-66499194D02*
X212275000Y-66425000D01*
X180824194Y-66499194D02*
X212200806Y-66499194D01*
X159025000Y-53308550D02*
X158825000Y-53308550D01*
X156184550Y-53275000D02*
X155750000Y-53709550D01*
X158825000Y-53308550D02*
X158791450Y-53275000D01*
X158791450Y-53275000D02*
X156184550Y-53275000D01*
X158275000Y-92100000D02*
X157182131Y-93192869D01*
X210825000Y-73277071D02*
X210820000Y-73282071D01*
X154574000Y-93949000D02*
X153600000Y-92975000D01*
X210820000Y-90505000D02*
X207365550Y-93959450D01*
X165384450Y-93959450D02*
X163525000Y-92100000D01*
X207365550Y-93959450D02*
X165384450Y-93959450D01*
X157182131Y-93192869D02*
X156978066Y-93192869D01*
X156451000Y-93198943D02*
X155700943Y-93949000D01*
X153600000Y-92975000D02*
X152650000Y-92975000D01*
X156971992Y-93198943D02*
X156451000Y-93198943D01*
X155700943Y-93949000D02*
X154574000Y-93949000D01*
X210820000Y-73282071D02*
X210820000Y-90505000D01*
X156978066Y-93192869D02*
X156971992Y-93198943D01*
X163525000Y-92100000D02*
X158275000Y-92100000D01*
X156261450Y-94350000D02*
X146500000Y-94350000D01*
X146500000Y-94350000D02*
X145275000Y-93125000D01*
X156450000Y-94161450D02*
X156261450Y-94350000D01*
X145275000Y-93125000D02*
X144275000Y-93125000D01*
X212175000Y-90925000D02*
X208338550Y-94761450D01*
X208338550Y-94761450D02*
X158761450Y-94761450D01*
X158761450Y-94761450D02*
X158562450Y-94562450D01*
X212175000Y-71882000D02*
X212175000Y-90925000D01*
X158562450Y-94562450D02*
X158025000Y-94562450D01*
X207839550Y-94360450D02*
X160010450Y-94360450D01*
X211575000Y-72677071D02*
X211582000Y-72684071D01*
X211582000Y-72684071D02*
X211582000Y-90618000D01*
X160010450Y-94360450D02*
X158500000Y-92850000D01*
X211582000Y-90618000D02*
X207839550Y-94360450D01*
X118110000Y-83058000D02*
X118110000Y-92925997D01*
X114300000Y-79248000D02*
X118110000Y-83058000D01*
G04 #@! TA.AperFunction,Conductor*
G36*
X155838316Y-52537900D02*
G01*
X155866120Y-52542756D01*
X155871397Y-52547614D01*
X155878278Y-52549635D01*
X155896756Y-52570960D01*
X155917524Y-52590079D01*
X155919337Y-52597019D01*
X155924033Y-52602439D01*
X155928049Y-52630371D01*
X155935183Y-52657680D01*
X155932956Y-52664497D01*
X155933977Y-52671597D01*
X155922253Y-52697268D01*
X155913491Y-52724097D01*
X155906565Y-52731619D01*
X155904952Y-52735153D01*
X155898117Y-52740795D01*
X155889586Y-52750063D01*
X155881862Y-52756358D01*
X155815834Y-52794480D01*
X155730888Y-52879425D01*
X155726003Y-52883408D01*
X155681586Y-52904325D01*
X155674013Y-52908461D01*
X155672964Y-52908386D01*
X155671848Y-52908912D01*
X155516508Y-52939811D01*
X155516498Y-52939814D01*
X155370827Y-53000152D01*
X155370814Y-53000159D01*
X155239711Y-53087760D01*
X155239707Y-53087763D01*
X155128213Y-53199257D01*
X155128210Y-53199261D01*
X155040609Y-53330364D01*
X155040602Y-53330377D01*
X154980264Y-53476048D01*
X154980261Y-53476060D01*
X154949500Y-53630703D01*
X154949500Y-53788396D01*
X154980261Y-53943039D01*
X154980264Y-53943051D01*
X155040602Y-54088722D01*
X155040609Y-54088735D01*
X155128210Y-54219838D01*
X155128213Y-54219842D01*
X155239707Y-54331336D01*
X155239711Y-54331339D01*
X155370814Y-54418940D01*
X155370827Y-54418947D01*
X155507358Y-54475499D01*
X155516503Y-54479287D01*
X155671153Y-54510049D01*
X155671156Y-54510050D01*
X155671158Y-54510050D01*
X155828844Y-54510050D01*
X155828845Y-54510049D01*
X155983497Y-54479287D01*
X156129179Y-54418944D01*
X156260289Y-54331339D01*
X156371789Y-54219839D01*
X156459394Y-54088729D01*
X156463720Y-54078285D01*
X156516009Y-53952048D01*
X156559850Y-53897644D01*
X156626144Y-53875579D01*
X156630570Y-53875500D01*
X158408509Y-53875500D01*
X158475548Y-53895185D01*
X158496190Y-53911819D01*
X158514707Y-53930336D01*
X158514711Y-53930339D01*
X158645814Y-54017940D01*
X158645827Y-54017947D01*
X158733315Y-54054185D01*
X158791503Y-54078287D01*
X158943348Y-54108491D01*
X158946153Y-54109049D01*
X158946156Y-54109050D01*
X158946158Y-54109050D01*
X159103844Y-54109050D01*
X159103845Y-54109049D01*
X159258497Y-54078287D01*
X159404179Y-54017944D01*
X159535289Y-53930339D01*
X159646789Y-53818839D01*
X159734394Y-53687729D01*
X159794737Y-53542047D01*
X159825500Y-53387392D01*
X159825500Y-53229708D01*
X159825500Y-53229705D01*
X159825499Y-53229703D01*
X159807864Y-53141047D01*
X159794737Y-53075053D01*
X159780184Y-53039919D01*
X159734397Y-52929377D01*
X159734390Y-52929364D01*
X159646789Y-52798261D01*
X159646786Y-52798257D01*
X159590160Y-52741631D01*
X159556675Y-52680308D01*
X159561659Y-52610616D01*
X159603531Y-52554683D01*
X159668995Y-52530266D01*
X159677841Y-52529950D01*
X161496452Y-52529950D01*
X161563491Y-52549635D01*
X161609246Y-52602439D01*
X161619190Y-52671597D01*
X161599245Y-52723302D01*
X161592573Y-52733190D01*
X161569480Y-52756284D01*
X161527087Y-52829711D01*
X161511218Y-52857195D01*
X161490611Y-52892890D01*
X161490423Y-52893215D01*
X161449499Y-53045943D01*
X161449499Y-53045945D01*
X161449499Y-53095235D01*
X161429814Y-53162274D01*
X161428601Y-53164126D01*
X161340609Y-53295814D01*
X161340602Y-53295827D01*
X161280264Y-53441498D01*
X161280261Y-53441510D01*
X161249500Y-53596153D01*
X161249500Y-53753846D01*
X161280261Y-53908489D01*
X161280264Y-53908501D01*
X161340602Y-54054172D01*
X161340609Y-54054185D01*
X161428210Y-54185288D01*
X161428213Y-54185292D01*
X161539707Y-54296786D01*
X161539711Y-54296789D01*
X161670814Y-54384390D01*
X161670827Y-54384397D01*
X161816498Y-54444735D01*
X161816503Y-54444737D01*
X161971153Y-54475499D01*
X161971156Y-54475500D01*
X161971158Y-54475500D01*
X162128844Y-54475500D01*
X162128845Y-54475499D01*
X162283497Y-54444737D01*
X162429179Y-54384394D01*
X162560289Y-54296789D01*
X162671789Y-54185289D01*
X162685908Y-54164159D01*
X162739520Y-54119354D01*
X162789010Y-54109050D01*
X162877316Y-54109050D01*
X162877317Y-54109049D01*
X163031969Y-54078287D01*
X163177651Y-54017944D01*
X163308761Y-53930339D01*
X163316573Y-53922527D01*
X163327282Y-53911819D01*
X163388605Y-53878334D01*
X163414963Y-53875500D01*
X167282152Y-53875500D01*
X167349191Y-53895185D01*
X167394946Y-53947989D01*
X167403769Y-53975308D01*
X167430261Y-54108491D01*
X167430264Y-54108501D01*
X167490602Y-54254172D01*
X167490609Y-54254185D01*
X167578210Y-54385288D01*
X167578213Y-54385292D01*
X167689707Y-54496786D01*
X167689711Y-54496789D01*
X167820814Y-54584390D01*
X167820827Y-54584397D01*
X167966498Y-54644735D01*
X167966503Y-54644737D01*
X168025735Y-54656519D01*
X168121849Y-54675638D01*
X168183760Y-54708023D01*
X168185339Y-54709574D01*
X180339333Y-66863568D01*
X180339343Y-66863579D01*
X180343673Y-66867909D01*
X180343674Y-66867910D01*
X180455478Y-66979714D01*
X180455480Y-66979715D01*
X180455484Y-66979718D01*
X180592403Y-67058767D01*
X180592410Y-67058771D01*
X180704213Y-67088728D01*
X180745136Y-67099694D01*
X180745137Y-67099694D01*
X211806273Y-67099694D01*
X211873312Y-67119379D01*
X211875164Y-67120592D01*
X211895814Y-67134390D01*
X211895827Y-67134397D01*
X212041498Y-67194735D01*
X212041503Y-67194737D01*
X212196153Y-67225499D01*
X212196156Y-67225500D01*
X212196158Y-67225500D01*
X212353844Y-67225500D01*
X212466308Y-67203129D01*
X212535900Y-67209356D01*
X212591077Y-67252219D01*
X212614322Y-67318108D01*
X212614500Y-67324746D01*
X212614500Y-71012013D01*
X212594815Y-71079052D01*
X212542011Y-71124807D01*
X212472853Y-71134751D01*
X212443048Y-71126574D01*
X212408501Y-71112264D01*
X212408489Y-71112261D01*
X212253845Y-71081500D01*
X212253842Y-71081500D01*
X212096158Y-71081500D01*
X212096155Y-71081500D01*
X211941510Y-71112261D01*
X211941498Y-71112264D01*
X211795827Y-71172602D01*
X211795814Y-71172609D01*
X211664711Y-71260210D01*
X211664707Y-71260213D01*
X211553213Y-71371707D01*
X211553210Y-71371711D01*
X211465609Y-71502814D01*
X211465602Y-71502827D01*
X211405264Y-71648498D01*
X211405261Y-71648510D01*
X211374500Y-71803153D01*
X211374500Y-71810811D01*
X211354815Y-71877850D01*
X211302011Y-71923605D01*
X211297953Y-71925372D01*
X211195824Y-71967675D01*
X211195814Y-71967680D01*
X211064711Y-72055281D01*
X211064707Y-72055284D01*
X210953213Y-72166778D01*
X210953210Y-72166782D01*
X210865609Y-72297885D01*
X210865604Y-72297895D01*
X210821038Y-72405487D01*
X210777197Y-72459890D01*
X210730669Y-72479651D01*
X210591508Y-72507332D01*
X210591498Y-72507335D01*
X210445827Y-72567673D01*
X210445814Y-72567680D01*
X210314711Y-72655281D01*
X210314707Y-72655284D01*
X210203213Y-72766778D01*
X210203210Y-72766782D01*
X210115609Y-72897885D01*
X210115602Y-72897898D01*
X210055264Y-73043569D01*
X210055261Y-73043581D01*
X210024500Y-73198224D01*
X210024500Y-73355917D01*
X210055261Y-73510560D01*
X210055264Y-73510572D01*
X210115602Y-73656243D01*
X210115609Y-73656256D01*
X210198602Y-73780462D01*
X210219480Y-73847139D01*
X210219500Y-73849353D01*
X210219500Y-90204903D01*
X210199815Y-90271942D01*
X210183181Y-90292584D01*
X208096116Y-92379648D01*
X208034793Y-92413133D01*
X207965101Y-92408149D01*
X207909168Y-92366277D01*
X207893874Y-92339419D01*
X207834397Y-92195827D01*
X207834390Y-92195814D01*
X207746789Y-92064711D01*
X207746786Y-92064707D01*
X207635292Y-91953213D01*
X207635288Y-91953210D01*
X207504185Y-91865609D01*
X207504172Y-91865602D01*
X207358501Y-91805264D01*
X207358491Y-91805261D01*
X207203149Y-91774361D01*
X207186392Y-91765595D01*
X207167914Y-91761576D01*
X207142877Y-91742833D01*
X207141238Y-91741976D01*
X207139660Y-91740425D01*
X207036590Y-91637355D01*
X207036588Y-91637352D01*
X206917717Y-91518481D01*
X206917716Y-91518480D01*
X206830904Y-91468360D01*
X206830904Y-91468359D01*
X206830900Y-91468358D01*
X206780785Y-91439423D01*
X206628057Y-91398499D01*
X206469943Y-91398499D01*
X206462347Y-91398499D01*
X206462331Y-91398500D01*
X190855057Y-91398500D01*
X190696942Y-91398500D01*
X190670744Y-91405520D01*
X190628568Y-91416821D01*
X190544214Y-91439423D01*
X190544209Y-91439426D01*
X190407290Y-91518475D01*
X190407282Y-91518481D01*
X190306285Y-91619479D01*
X190295480Y-91630284D01*
X190295478Y-91630286D01*
X189645159Y-92280606D01*
X189004134Y-92921631D01*
X188942811Y-92955116D01*
X188916453Y-92957950D01*
X188348913Y-92957950D01*
X188281874Y-92938265D01*
X188236119Y-92885461D01*
X188226175Y-92816303D01*
X188234352Y-92786497D01*
X188236560Y-92781166D01*
X188239737Y-92773497D01*
X188270500Y-92618842D01*
X188270500Y-92461158D01*
X188270500Y-92461155D01*
X188270499Y-92461153D01*
X188257225Y-92394419D01*
X188239737Y-92306503D01*
X188222797Y-92265606D01*
X188179397Y-92160827D01*
X188179390Y-92160814D01*
X188091789Y-92029711D01*
X188091786Y-92029707D01*
X187980292Y-91918213D01*
X187980288Y-91918210D01*
X187849185Y-91830609D01*
X187849172Y-91830602D01*
X187703501Y-91770264D01*
X187703489Y-91770261D01*
X187548845Y-91739500D01*
X187548842Y-91739500D01*
X187391158Y-91739500D01*
X187391155Y-91739500D01*
X187236510Y-91770261D01*
X187236498Y-91770264D01*
X187090827Y-91830602D01*
X187090814Y-91830609D01*
X186959711Y-91918210D01*
X186959707Y-91918213D01*
X186848213Y-92029707D01*
X186848210Y-92029711D01*
X186760609Y-92160814D01*
X186760602Y-92160827D01*
X186700264Y-92306498D01*
X186700261Y-92306510D01*
X186669500Y-92461153D01*
X186669500Y-92618846D01*
X186700162Y-92772989D01*
X186700263Y-92773497D01*
X186703145Y-92780456D01*
X186705648Y-92786497D01*
X186713117Y-92855966D01*
X186681842Y-92918446D01*
X186621753Y-92954098D01*
X186591087Y-92957950D01*
X185582500Y-92957950D01*
X185515461Y-92938265D01*
X185469706Y-92885461D01*
X185458500Y-92833950D01*
X185458500Y-92679790D01*
X185458499Y-92679788D01*
X185451476Y-92644480D01*
X185427737Y-92525138D01*
X185418817Y-92503602D01*
X185367397Y-92379462D01*
X185367390Y-92379449D01*
X185279789Y-92248346D01*
X185279786Y-92248342D01*
X185168292Y-92136848D01*
X185168288Y-92136845D01*
X185037185Y-92049244D01*
X185037172Y-92049237D01*
X184891501Y-91988899D01*
X184891489Y-91988896D01*
X184736845Y-91958135D01*
X184736842Y-91958135D01*
X184579158Y-91958135D01*
X184579155Y-91958135D01*
X184424505Y-91988896D01*
X184424497Y-91988899D01*
X184387030Y-92004418D01*
X184317561Y-92011885D01*
X184270690Y-91992958D01*
X184240828Y-91973005D01*
X184240821Y-91973001D01*
X184240818Y-91972999D01*
X184240814Y-91972997D01*
X184240810Y-91972995D01*
X184095140Y-91912657D01*
X184095128Y-91912654D01*
X183940484Y-91881893D01*
X183940481Y-91881893D01*
X183782797Y-91881893D01*
X183782794Y-91881893D01*
X183628149Y-91912654D01*
X183628137Y-91912657D01*
X183482466Y-91972995D01*
X183482453Y-91973002D01*
X183351350Y-92060603D01*
X183351346Y-92060606D01*
X183239852Y-92172100D01*
X183239849Y-92172104D01*
X183210698Y-92215732D01*
X183157085Y-92260537D01*
X183087760Y-92269244D01*
X183024733Y-92239089D01*
X183004493Y-92215731D01*
X182993787Y-92199708D01*
X182882292Y-92088213D01*
X182882288Y-92088210D01*
X182751185Y-92000609D01*
X182751172Y-92000602D01*
X182605501Y-91940264D01*
X182605489Y-91940261D01*
X182450845Y-91909500D01*
X182450842Y-91909500D01*
X182293158Y-91909500D01*
X182293155Y-91909500D01*
X182138510Y-91940261D01*
X182138498Y-91940264D01*
X181992827Y-92000602D01*
X181992814Y-92000609D01*
X181861711Y-92088210D01*
X181861707Y-92088213D01*
X181750213Y-92199707D01*
X181750210Y-92199711D01*
X181662609Y-92330814D01*
X181662602Y-92330827D01*
X181602264Y-92476498D01*
X181602261Y-92476510D01*
X181571500Y-92631153D01*
X181571500Y-92734537D01*
X181551815Y-92801576D01*
X181499011Y-92847331D01*
X181429853Y-92857275D01*
X181366297Y-92828250D01*
X181359819Y-92822218D01*
X181216717Y-92679116D01*
X181216716Y-92679115D01*
X181111422Y-92618324D01*
X181111421Y-92618323D01*
X181088261Y-92604952D01*
X181079785Y-92600058D01*
X181079784Y-92600057D01*
X181079783Y-92600057D01*
X181002230Y-92579277D01*
X180927057Y-92559134D01*
X180805107Y-92559134D01*
X180738068Y-92539449D01*
X180736216Y-92538236D01*
X180604528Y-92450244D01*
X180604515Y-92450237D01*
X180458844Y-92389899D01*
X180458832Y-92389896D01*
X180304188Y-92359135D01*
X180304185Y-92359135D01*
X180146501Y-92359135D01*
X180146498Y-92359135D01*
X179991853Y-92389896D01*
X179991841Y-92389899D01*
X179846170Y-92450237D01*
X179846157Y-92450244D01*
X179715054Y-92537845D01*
X179715050Y-92537848D01*
X179603556Y-92649342D01*
X179603553Y-92649346D01*
X179568767Y-92701407D01*
X179515154Y-92746212D01*
X179445829Y-92754919D01*
X179382802Y-92724764D01*
X179351104Y-92679968D01*
X179309397Y-92579277D01*
X179309390Y-92579264D01*
X179221789Y-92448161D01*
X179221786Y-92448157D01*
X179110292Y-92336663D01*
X179110288Y-92336660D01*
X178979185Y-92249059D01*
X178979172Y-92249052D01*
X178833501Y-92188714D01*
X178833489Y-92188711D01*
X178678845Y-92157950D01*
X178678842Y-92157950D01*
X178521158Y-92157950D01*
X178521155Y-92157950D01*
X178366510Y-92188711D01*
X178366498Y-92188714D01*
X178220827Y-92249052D01*
X178220814Y-92249059D01*
X178089711Y-92336660D01*
X178089707Y-92336663D01*
X177978213Y-92448157D01*
X177978210Y-92448161D01*
X177890609Y-92579264D01*
X177890602Y-92579277D01*
X177830264Y-92724948D01*
X177830261Y-92724960D01*
X177799500Y-92879603D01*
X177799500Y-93037296D01*
X177830261Y-93191939D01*
X177832031Y-93197774D01*
X177829603Y-93198510D01*
X177835890Y-93256962D01*
X177804617Y-93319442D01*
X177744530Y-93355097D01*
X177713859Y-93358950D01*
X172761930Y-93358950D01*
X172694891Y-93339265D01*
X172649136Y-93286461D01*
X172639192Y-93217303D01*
X172647369Y-93187498D01*
X172669737Y-93133497D01*
X172700500Y-92978842D01*
X172700500Y-92821158D01*
X172700500Y-92821155D01*
X172700499Y-92821153D01*
X172692404Y-92780456D01*
X172669737Y-92666503D01*
X172664493Y-92653842D01*
X172609397Y-92520827D01*
X172609390Y-92520814D01*
X172521789Y-92389711D01*
X172521786Y-92389707D01*
X172410292Y-92278213D01*
X172410288Y-92278210D01*
X172279185Y-92190609D01*
X172279172Y-92190602D01*
X172133501Y-92130264D01*
X172133489Y-92130261D01*
X171978845Y-92099500D01*
X171978842Y-92099500D01*
X171821158Y-92099500D01*
X171821155Y-92099500D01*
X171666510Y-92130261D01*
X171666498Y-92130264D01*
X171520827Y-92190602D01*
X171520814Y-92190609D01*
X171389711Y-92278210D01*
X171389707Y-92278213D01*
X171278213Y-92389707D01*
X171278210Y-92389711D01*
X171190609Y-92520814D01*
X171190602Y-92520827D01*
X171130264Y-92666498D01*
X171130261Y-92666510D01*
X171099500Y-92821153D01*
X171099500Y-92978846D01*
X171129337Y-93128842D01*
X171130263Y-93133497D01*
X171152631Y-93187498D01*
X171160100Y-93256966D01*
X171128825Y-93319445D01*
X171068736Y-93355098D01*
X171038070Y-93358950D01*
X170177789Y-93358950D01*
X170110750Y-93339265D01*
X170064995Y-93286461D01*
X170055051Y-93217303D01*
X170063227Y-93187498D01*
X170089737Y-93123497D01*
X170120500Y-92968842D01*
X170120500Y-92811158D01*
X170120500Y-92811155D01*
X170120499Y-92811153D01*
X170107505Y-92745827D01*
X170089737Y-92656503D01*
X170088635Y-92653842D01*
X170029397Y-92510827D01*
X170029390Y-92510814D01*
X169941789Y-92379711D01*
X169941786Y-92379707D01*
X169830292Y-92268213D01*
X169830288Y-92268210D01*
X169699185Y-92180609D01*
X169699172Y-92180602D01*
X169553501Y-92120264D01*
X169553489Y-92120261D01*
X169398845Y-92089500D01*
X169398842Y-92089500D01*
X169241158Y-92089500D01*
X169241155Y-92089500D01*
X169086510Y-92120261D01*
X169086498Y-92120264D01*
X168940827Y-92180602D01*
X168940814Y-92180609D01*
X168809711Y-92268210D01*
X168809707Y-92268213D01*
X168698213Y-92379707D01*
X168698210Y-92379711D01*
X168610609Y-92510814D01*
X168610602Y-92510827D01*
X168550264Y-92656498D01*
X168550261Y-92656510D01*
X168519500Y-92811153D01*
X168519500Y-92968846D01*
X168550261Y-93123489D01*
X168550263Y-93123497D01*
X168576773Y-93187498D01*
X168584241Y-93256968D01*
X168552965Y-93319447D01*
X168492876Y-93355099D01*
X168462211Y-93358950D01*
X165684547Y-93358950D01*
X165617508Y-93339265D01*
X165596866Y-93322631D01*
X164012590Y-91738355D01*
X164012588Y-91738352D01*
X163893717Y-91619481D01*
X163893716Y-91619480D01*
X163806904Y-91569360D01*
X163806904Y-91569359D01*
X163806900Y-91569358D01*
X163756785Y-91540423D01*
X163604057Y-91499499D01*
X163445943Y-91499499D01*
X163438347Y-91499499D01*
X163438331Y-91499500D01*
X158354057Y-91499500D01*
X158195943Y-91499500D01*
X158043215Y-91540423D01*
X158043214Y-91540423D01*
X158043212Y-91540424D01*
X158043209Y-91540425D01*
X157993096Y-91569359D01*
X157993095Y-91569360D01*
X157949689Y-91594420D01*
X157906285Y-91619479D01*
X157906282Y-91619481D01*
X156968374Y-92557390D01*
X156953077Y-92565850D01*
X156941295Y-92577891D01*
X156916280Y-92586203D01*
X156908362Y-92590583D01*
X156900564Y-92592368D01*
X156899009Y-92592368D01*
X156889892Y-92594810D01*
X156887681Y-92595317D01*
X156884993Y-92595154D01*
X156860012Y-92598443D01*
X156537670Y-92598443D01*
X156537654Y-92598442D01*
X156530058Y-92598442D01*
X156371943Y-92598442D01*
X156311243Y-92614707D01*
X156219214Y-92639366D01*
X156219209Y-92639369D01*
X156082290Y-92718418D01*
X156082282Y-92718424D01*
X155488527Y-93312181D01*
X155427204Y-93345666D01*
X155400846Y-93348500D01*
X154874097Y-93348500D01*
X154807058Y-93328815D01*
X154786416Y-93312181D01*
X154087590Y-92613355D01*
X154087588Y-92613352D01*
X153968717Y-92494481D01*
X153968709Y-92494475D01*
X153853935Y-92428211D01*
X153853934Y-92428210D01*
X153838365Y-92419222D01*
X153831785Y-92415423D01*
X153679057Y-92374499D01*
X153520943Y-92374499D01*
X153513347Y-92374499D01*
X153513331Y-92374500D01*
X153229766Y-92374500D01*
X153162727Y-92354815D01*
X153160875Y-92353602D01*
X153029185Y-92265609D01*
X153029172Y-92265602D01*
X152883501Y-92205264D01*
X152883489Y-92205261D01*
X152728845Y-92174500D01*
X152728842Y-92174500D01*
X152571158Y-92174500D01*
X152571155Y-92174500D01*
X152416510Y-92205261D01*
X152416498Y-92205264D01*
X152270827Y-92265602D01*
X152270814Y-92265609D01*
X152139711Y-92353210D01*
X152139707Y-92353213D01*
X152028213Y-92464707D01*
X152028210Y-92464711D01*
X151940609Y-92595814D01*
X151940602Y-92595827D01*
X151880264Y-92741498D01*
X151880261Y-92741510D01*
X151849500Y-92896153D01*
X151849500Y-93053846D01*
X151880261Y-93208489D01*
X151880264Y-93208501D01*
X151940602Y-93354172D01*
X151940609Y-93354185D01*
X152028210Y-93485288D01*
X152028213Y-93485292D01*
X152080740Y-93537819D01*
X152114225Y-93599142D01*
X152109241Y-93668834D01*
X152067369Y-93724767D01*
X152001905Y-93749184D01*
X151993059Y-93749500D01*
X146800098Y-93749500D01*
X146733059Y-93729815D01*
X146712417Y-93713181D01*
X145762590Y-92763355D01*
X145762588Y-92763352D01*
X145643717Y-92644481D01*
X145643716Y-92644480D01*
X145537523Y-92583170D01*
X145537522Y-92583169D01*
X145515020Y-92570178D01*
X145506785Y-92565423D01*
X145506784Y-92565422D01*
X145506783Y-92565422D01*
X145450215Y-92550265D01*
X145354057Y-92524499D01*
X145195943Y-92524499D01*
X145188347Y-92524499D01*
X145188331Y-92524500D01*
X144854766Y-92524500D01*
X144787727Y-92504815D01*
X144785875Y-92503602D01*
X144654185Y-92415609D01*
X144654172Y-92415602D01*
X144508501Y-92355264D01*
X144508489Y-92355261D01*
X144353845Y-92324500D01*
X144353842Y-92324500D01*
X144196158Y-92324500D01*
X144196155Y-92324500D01*
X144041510Y-92355261D01*
X144041498Y-92355264D01*
X143895827Y-92415602D01*
X143895814Y-92415609D01*
X143764711Y-92503210D01*
X143764707Y-92503213D01*
X143653213Y-92614707D01*
X143653210Y-92614711D01*
X143565609Y-92745814D01*
X143565602Y-92745827D01*
X143505264Y-92891498D01*
X143505261Y-92891510D01*
X143474500Y-93046153D01*
X143474500Y-93203846D01*
X143505261Y-93358489D01*
X143505264Y-93358501D01*
X143565602Y-93504172D01*
X143565609Y-93504185D01*
X143653210Y-93635288D01*
X143653213Y-93635292D01*
X143755740Y-93737819D01*
X143789225Y-93799142D01*
X143784241Y-93868834D01*
X143742369Y-93924767D01*
X143676905Y-93949184D01*
X143668059Y-93949500D01*
X127279766Y-93949500D01*
X127212727Y-93929815D01*
X127210875Y-93928602D01*
X127079185Y-93840609D01*
X127079172Y-93840602D01*
X126933501Y-93780264D01*
X126933489Y-93780261D01*
X126778845Y-93749500D01*
X126778842Y-93749500D01*
X126621158Y-93749500D01*
X126621155Y-93749500D01*
X126466510Y-93780261D01*
X126466498Y-93780264D01*
X126320827Y-93840602D01*
X126320814Y-93840609D01*
X126189711Y-93928210D01*
X126189707Y-93928213D01*
X126078213Y-94039707D01*
X126078210Y-94039711D01*
X125990609Y-94170814D01*
X125990602Y-94170827D01*
X125930264Y-94316498D01*
X125930261Y-94316510D01*
X125899500Y-94471153D01*
X125899500Y-94471158D01*
X125899500Y-94628842D01*
X125899500Y-94628844D01*
X125899499Y-94628844D01*
X125916391Y-94713758D01*
X125910164Y-94783350D01*
X125867301Y-94838527D01*
X125801412Y-94861772D01*
X125794774Y-94861950D01*
X113739500Y-94861950D01*
X113672461Y-94842265D01*
X113626706Y-94789461D01*
X113615500Y-94737950D01*
X113615500Y-89075153D01*
X114515500Y-89075153D01*
X114515500Y-89232846D01*
X114546261Y-89387489D01*
X114546264Y-89387501D01*
X114606602Y-89533172D01*
X114606609Y-89533185D01*
X114694210Y-89664288D01*
X114694213Y-89664292D01*
X114805707Y-89775786D01*
X114805711Y-89775789D01*
X114936814Y-89863390D01*
X114936827Y-89863397D01*
X115082498Y-89923735D01*
X115082503Y-89923737D01*
X115237153Y-89954499D01*
X115237156Y-89954500D01*
X115237158Y-89954500D01*
X115394844Y-89954500D01*
X115394845Y-89954499D01*
X115549497Y-89923737D01*
X115695179Y-89863394D01*
X115826289Y-89775789D01*
X115937789Y-89664289D01*
X116025394Y-89533179D01*
X116085737Y-89387497D01*
X116116500Y-89232842D01*
X116116500Y-89075158D01*
X116116500Y-89075155D01*
X116116499Y-89075153D01*
X116085738Y-88920510D01*
X116085737Y-88920503D01*
X116085735Y-88920498D01*
X116025397Y-88774827D01*
X116025390Y-88774814D01*
X115937789Y-88643711D01*
X115937786Y-88643707D01*
X115826292Y-88532213D01*
X115826288Y-88532210D01*
X115695185Y-88444609D01*
X115695172Y-88444602D01*
X115549501Y-88384264D01*
X115549489Y-88384261D01*
X115394845Y-88353500D01*
X115394842Y-88353500D01*
X115237158Y-88353500D01*
X115237155Y-88353500D01*
X115082510Y-88384261D01*
X115082498Y-88384264D01*
X114936827Y-88444602D01*
X114936814Y-88444609D01*
X114805711Y-88532210D01*
X114805707Y-88532213D01*
X114694213Y-88643707D01*
X114694210Y-88643711D01*
X114606609Y-88774814D01*
X114606602Y-88774827D01*
X114546264Y-88920498D01*
X114546261Y-88920510D01*
X114515500Y-89075153D01*
X113615500Y-89075153D01*
X113615500Y-86535153D01*
X114515500Y-86535153D01*
X114515500Y-86692846D01*
X114546261Y-86847489D01*
X114546264Y-86847501D01*
X114606602Y-86993172D01*
X114606609Y-86993185D01*
X114694210Y-87124288D01*
X114694213Y-87124292D01*
X114805707Y-87235786D01*
X114805711Y-87235789D01*
X114936814Y-87323390D01*
X114936827Y-87323397D01*
X115082498Y-87383735D01*
X115082503Y-87383737D01*
X115237153Y-87414499D01*
X115237156Y-87414500D01*
X115237158Y-87414500D01*
X115394844Y-87414500D01*
X115394845Y-87414499D01*
X115549497Y-87383737D01*
X115695179Y-87323394D01*
X115826289Y-87235789D01*
X115937789Y-87124289D01*
X116025394Y-86993179D01*
X116085737Y-86847497D01*
X116116500Y-86692842D01*
X116116500Y-86535158D01*
X116116500Y-86535155D01*
X116116499Y-86535153D01*
X116085738Y-86380510D01*
X116085737Y-86380503D01*
X116085735Y-86380498D01*
X116025397Y-86234827D01*
X116025390Y-86234814D01*
X115937789Y-86103711D01*
X115937786Y-86103707D01*
X115826292Y-85992213D01*
X115826288Y-85992210D01*
X115695185Y-85904609D01*
X115695172Y-85904602D01*
X115549501Y-85844264D01*
X115549489Y-85844261D01*
X115394845Y-85813500D01*
X115394842Y-85813500D01*
X115237158Y-85813500D01*
X115237155Y-85813500D01*
X115082510Y-85844261D01*
X115082498Y-85844264D01*
X114936827Y-85904602D01*
X114936814Y-85904609D01*
X114805711Y-85992210D01*
X114805707Y-85992213D01*
X114694213Y-86103707D01*
X114694210Y-86103711D01*
X114606609Y-86234814D01*
X114606602Y-86234827D01*
X114546264Y-86380498D01*
X114546261Y-86380510D01*
X114515500Y-86535153D01*
X113615500Y-86535153D01*
X113615500Y-83995153D01*
X114515500Y-83995153D01*
X114515500Y-84152846D01*
X114546261Y-84307489D01*
X114546264Y-84307501D01*
X114606602Y-84453172D01*
X114606609Y-84453185D01*
X114694210Y-84584288D01*
X114694213Y-84584292D01*
X114805707Y-84695786D01*
X114805711Y-84695789D01*
X114936814Y-84783390D01*
X114936827Y-84783397D01*
X115082498Y-84843735D01*
X115082503Y-84843737D01*
X115237153Y-84874499D01*
X115237156Y-84874500D01*
X115237158Y-84874500D01*
X115394844Y-84874500D01*
X115394845Y-84874499D01*
X115549497Y-84843737D01*
X115695179Y-84783394D01*
X115826289Y-84695789D01*
X115937789Y-84584289D01*
X116025394Y-84453179D01*
X116085737Y-84307497D01*
X116116500Y-84152842D01*
X116116500Y-83995158D01*
X116116500Y-83995155D01*
X116116499Y-83995153D01*
X116085738Y-83840510D01*
X116085737Y-83840503D01*
X116085735Y-83840498D01*
X116025397Y-83694827D01*
X116025390Y-83694814D01*
X115937789Y-83563711D01*
X115937786Y-83563707D01*
X115826292Y-83452213D01*
X115826288Y-83452210D01*
X115695185Y-83364609D01*
X115695172Y-83364602D01*
X115549501Y-83304264D01*
X115549489Y-83304261D01*
X115394845Y-83273500D01*
X115394842Y-83273500D01*
X115237158Y-83273500D01*
X115237155Y-83273500D01*
X115082510Y-83304261D01*
X115082498Y-83304264D01*
X114936827Y-83364602D01*
X114936814Y-83364609D01*
X114805711Y-83452210D01*
X114805707Y-83452213D01*
X114694213Y-83563707D01*
X114694210Y-83563711D01*
X114606609Y-83694814D01*
X114606602Y-83694827D01*
X114546264Y-83840498D01*
X114546261Y-83840510D01*
X114515500Y-83995153D01*
X113615500Y-83995153D01*
X113615500Y-79985372D01*
X113635185Y-79918333D01*
X113687989Y-79872578D01*
X113757147Y-79862634D01*
X113808387Y-79882268D01*
X113920821Y-79957394D01*
X113920823Y-79957395D01*
X113920827Y-79957397D01*
X114066498Y-80017735D01*
X114066503Y-80017737D01*
X114131147Y-80030595D01*
X114221849Y-80048638D01*
X114283760Y-80081023D01*
X114285339Y-80082574D01*
X117473181Y-83270416D01*
X117506666Y-83331739D01*
X117509500Y-83358097D01*
X117509500Y-92346231D01*
X117489815Y-92413270D01*
X117488602Y-92415122D01*
X117400609Y-92546811D01*
X117400602Y-92546824D01*
X117340264Y-92692495D01*
X117340261Y-92692507D01*
X117309500Y-92847150D01*
X117309500Y-93004843D01*
X117340261Y-93159486D01*
X117340264Y-93159498D01*
X117389575Y-93278546D01*
X117397044Y-93348015D01*
X117389575Y-93373450D01*
X117340264Y-93492498D01*
X117340261Y-93492510D01*
X117309500Y-93647153D01*
X117309500Y-93804846D01*
X117340261Y-93959489D01*
X117340264Y-93959501D01*
X117400602Y-94105172D01*
X117400609Y-94105185D01*
X117488210Y-94236288D01*
X117488213Y-94236292D01*
X117599707Y-94347786D01*
X117599711Y-94347789D01*
X117730814Y-94435390D01*
X117730827Y-94435397D01*
X117876498Y-94495735D01*
X117876503Y-94495737D01*
X118031153Y-94526499D01*
X118031156Y-94526500D01*
X118031158Y-94526500D01*
X118188844Y-94526500D01*
X118188845Y-94526499D01*
X118343497Y-94495737D01*
X118489179Y-94435394D01*
X118620289Y-94347789D01*
X118731789Y-94236289D01*
X118819394Y-94105179D01*
X118879737Y-93959497D01*
X118910500Y-93804842D01*
X118910500Y-93647158D01*
X118910500Y-93647155D01*
X118910499Y-93647153D01*
X118893478Y-93561582D01*
X118879737Y-93492503D01*
X118830423Y-93373449D01*
X118822955Y-93303981D01*
X118830424Y-93278546D01*
X118879737Y-93159494D01*
X118910500Y-93004839D01*
X118910500Y-92847155D01*
X118910500Y-92847152D01*
X118902962Y-92809258D01*
X118902962Y-92809257D01*
X118899361Y-92791153D01*
X130959500Y-92791153D01*
X130959500Y-92948846D01*
X130990261Y-93103489D01*
X130990264Y-93103501D01*
X131050602Y-93249172D01*
X131050609Y-93249185D01*
X131138210Y-93380288D01*
X131138213Y-93380292D01*
X131249707Y-93491786D01*
X131249711Y-93491789D01*
X131380814Y-93579390D01*
X131380827Y-93579397D01*
X131517360Y-93635950D01*
X131526503Y-93639737D01*
X131654197Y-93665137D01*
X131681153Y-93670499D01*
X131681156Y-93670500D01*
X131681158Y-93670500D01*
X131838844Y-93670500D01*
X131838845Y-93670499D01*
X131993497Y-93639737D01*
X132139179Y-93579394D01*
X132270289Y-93491789D01*
X132381789Y-93380289D01*
X132469394Y-93249179D01*
X132529737Y-93103497D01*
X132560500Y-92948842D01*
X132560500Y-92791158D01*
X132560500Y-92791155D01*
X132560499Y-92791153D01*
X132553563Y-92756284D01*
X132529737Y-92636503D01*
X132522423Y-92618846D01*
X132469397Y-92490827D01*
X132469390Y-92490814D01*
X132381789Y-92359711D01*
X132381786Y-92359707D01*
X132270292Y-92248213D01*
X132270288Y-92248210D01*
X132139185Y-92160609D01*
X132139172Y-92160602D01*
X131993501Y-92100264D01*
X131993489Y-92100261D01*
X131838845Y-92069500D01*
X131838842Y-92069500D01*
X131681158Y-92069500D01*
X131681155Y-92069500D01*
X131526510Y-92100261D01*
X131526498Y-92100264D01*
X131380827Y-92160602D01*
X131380814Y-92160609D01*
X131249711Y-92248210D01*
X131249707Y-92248213D01*
X131138213Y-92359707D01*
X131138210Y-92359711D01*
X131050609Y-92490814D01*
X131050602Y-92490827D01*
X130990264Y-92636498D01*
X130990261Y-92636510D01*
X130959500Y-92791153D01*
X118899361Y-92791153D01*
X118885244Y-92720185D01*
X118879737Y-92692500D01*
X118870757Y-92670821D01*
X118819397Y-92546824D01*
X118819390Y-92546811D01*
X118731398Y-92415122D01*
X118710520Y-92348444D01*
X118710500Y-92346231D01*
X118710500Y-83147060D01*
X118710501Y-83147047D01*
X118710501Y-82978944D01*
X118669576Y-82826214D01*
X118669573Y-82826209D01*
X118590524Y-82689290D01*
X118590518Y-82689282D01*
X115134573Y-79233337D01*
X115101088Y-79172014D01*
X115100637Y-79169847D01*
X115069738Y-79014510D01*
X115069737Y-79014503D01*
X115029242Y-78916738D01*
X115009397Y-78868827D01*
X115009390Y-78868814D01*
X114921789Y-78737711D01*
X114921786Y-78737707D01*
X114810292Y-78626213D01*
X114810288Y-78626210D01*
X114679185Y-78538609D01*
X114679172Y-78538602D01*
X114533501Y-78478264D01*
X114533489Y-78478261D01*
X114378845Y-78447500D01*
X114378842Y-78447500D01*
X114221158Y-78447500D01*
X114221155Y-78447500D01*
X114066510Y-78478261D01*
X114066498Y-78478264D01*
X113920827Y-78538602D01*
X113920814Y-78538609D01*
X113808391Y-78613729D01*
X113741714Y-78634607D01*
X113674333Y-78616123D01*
X113627643Y-78564144D01*
X113615500Y-78510627D01*
X113615500Y-77773952D01*
X117549500Y-77773952D01*
X117549500Y-78066047D01*
X117582199Y-78356271D01*
X117582202Y-78356285D01*
X117647196Y-78641044D01*
X117647197Y-78641046D01*
X117743665Y-78916738D01*
X117870393Y-79179890D01*
X117880180Y-79195466D01*
X118025792Y-79427206D01*
X118207902Y-79655565D01*
X118414435Y-79862098D01*
X118642794Y-80044208D01*
X118890107Y-80199605D01*
X119153263Y-80326335D01*
X119428955Y-80422803D01*
X119713714Y-80487798D01*
X119713723Y-80487799D01*
X119713728Y-80487800D01*
X119907210Y-80509599D01*
X120003953Y-80520499D01*
X120003956Y-80520500D01*
X120003959Y-80520500D01*
X120296044Y-80520500D01*
X120296045Y-80520499D01*
X120444371Y-80503787D01*
X120586271Y-80487800D01*
X120586274Y-80487799D01*
X120586286Y-80487798D01*
X120871045Y-80422803D01*
X121146737Y-80326335D01*
X121409893Y-80199605D01*
X121657206Y-80044208D01*
X121885565Y-79862098D01*
X122092098Y-79655565D01*
X122274208Y-79427206D01*
X122424732Y-79187648D01*
X126489500Y-79187648D01*
X126489500Y-79392351D01*
X126521522Y-79594534D01*
X126584781Y-79789223D01*
X126677715Y-79971613D01*
X126798028Y-80137213D01*
X126942786Y-80281971D01*
X127097749Y-80394556D01*
X127108390Y-80402287D01*
X127224607Y-80461503D01*
X127290776Y-80495218D01*
X127290778Y-80495218D01*
X127290781Y-80495220D01*
X127368582Y-80520499D01*
X127485465Y-80558477D01*
X127586557Y-80574488D01*
X127687648Y-80590500D01*
X127687649Y-80590500D01*
X127892351Y-80590500D01*
X127892352Y-80590500D01*
X128094534Y-80558477D01*
X128289219Y-80495220D01*
X128471610Y-80402287D01*
X128576151Y-80326334D01*
X128637213Y-80281971D01*
X128637215Y-80281968D01*
X128637219Y-80281966D01*
X128781966Y-80137219D01*
X128781968Y-80137215D01*
X128781971Y-80137213D01*
X128846323Y-80048638D01*
X128902287Y-79971610D01*
X128995220Y-79789219D01*
X129058477Y-79594534D01*
X129090500Y-79392352D01*
X129090500Y-79187648D01*
X129549500Y-79187648D01*
X129549500Y-79392351D01*
X129581522Y-79594534D01*
X129644781Y-79789223D01*
X129737715Y-79971613D01*
X129858028Y-80137213D01*
X130002786Y-80281971D01*
X130157749Y-80394556D01*
X130168390Y-80402287D01*
X130284607Y-80461503D01*
X130350776Y-80495218D01*
X130350778Y-80495218D01*
X130350781Y-80495220D01*
X130428582Y-80520499D01*
X130545465Y-80558477D01*
X130646557Y-80574488D01*
X130747648Y-80590500D01*
X130747649Y-80590500D01*
X130952351Y-80590500D01*
X130952352Y-80590500D01*
X131154534Y-80558477D01*
X131349219Y-80495220D01*
X131531610Y-80402287D01*
X131636151Y-80326334D01*
X131697213Y-80281971D01*
X131697215Y-80281968D01*
X131697219Y-80281966D01*
X131841966Y-80137219D01*
X131841968Y-80137215D01*
X131841971Y-80137213D01*
X131906323Y-80048638D01*
X131962287Y-79971610D01*
X132055220Y-79789219D01*
X132118477Y-79594534D01*
X132150500Y-79392352D01*
X132150500Y-79187648D01*
X132629500Y-79187648D01*
X132629500Y-79392351D01*
X132661522Y-79594534D01*
X132724781Y-79789223D01*
X132817715Y-79971613D01*
X132938028Y-80137213D01*
X133082786Y-80281971D01*
X133237749Y-80394556D01*
X133248390Y-80402287D01*
X133364607Y-80461503D01*
X133430776Y-80495218D01*
X133430778Y-80495218D01*
X133430781Y-80495220D01*
X133508582Y-80520499D01*
X133625465Y-80558477D01*
X133726557Y-80574488D01*
X133827648Y-80590500D01*
X133827649Y-80590500D01*
X134032351Y-80590500D01*
X134032352Y-80590500D01*
X134234534Y-80558477D01*
X134429219Y-80495220D01*
X134611610Y-80402287D01*
X134716151Y-80326334D01*
X134777213Y-80281971D01*
X134777215Y-80281968D01*
X134777219Y-80281966D01*
X134921966Y-80137219D01*
X134921968Y-80137215D01*
X134921971Y-80137213D01*
X134986323Y-80048638D01*
X135042287Y-79971610D01*
X135135220Y-79789219D01*
X135198477Y-79594534D01*
X135230500Y-79392352D01*
X135230500Y-79187648D01*
X135709500Y-79187648D01*
X135709500Y-79392351D01*
X135741522Y-79594534D01*
X135804781Y-79789223D01*
X135897715Y-79971613D01*
X136018028Y-80137213D01*
X136162786Y-80281971D01*
X136317749Y-80394556D01*
X136328390Y-80402287D01*
X136444607Y-80461503D01*
X136510776Y-80495218D01*
X136510778Y-80495218D01*
X136510781Y-80495220D01*
X136588582Y-80520499D01*
X136705465Y-80558477D01*
X136806557Y-80574488D01*
X136907648Y-80590500D01*
X136907649Y-80590500D01*
X137112351Y-80590500D01*
X137112352Y-80590500D01*
X137314534Y-80558477D01*
X137509219Y-80495220D01*
X137691610Y-80402287D01*
X137796151Y-80326334D01*
X137857213Y-80281971D01*
X137857215Y-80281968D01*
X137857219Y-80281966D01*
X138001966Y-80137219D01*
X138001968Y-80137215D01*
X138001971Y-80137213D01*
X138066323Y-80048638D01*
X138122287Y-79971610D01*
X138215220Y-79789219D01*
X138278477Y-79594534D01*
X138310500Y-79392352D01*
X138310500Y-79187648D01*
X138759500Y-79187648D01*
X138759500Y-79392351D01*
X138791522Y-79594534D01*
X138854781Y-79789223D01*
X138947715Y-79971613D01*
X139068028Y-80137213D01*
X139212786Y-80281971D01*
X139367749Y-80394556D01*
X139378390Y-80402287D01*
X139494607Y-80461503D01*
X139560776Y-80495218D01*
X139560778Y-80495218D01*
X139560781Y-80495220D01*
X139638582Y-80520499D01*
X139755465Y-80558477D01*
X139856557Y-80574488D01*
X139957648Y-80590500D01*
X139957649Y-80590500D01*
X140162351Y-80590500D01*
X140162352Y-80590500D01*
X140364534Y-80558477D01*
X140559219Y-80495220D01*
X140741610Y-80402287D01*
X140846151Y-80326334D01*
X140907213Y-80281971D01*
X140907215Y-80281968D01*
X140907219Y-80281966D01*
X141051966Y-80137219D01*
X141051968Y-80137215D01*
X141051971Y-80137213D01*
X141116323Y-80048638D01*
X141172287Y-79971610D01*
X141265220Y-79789219D01*
X141328477Y-79594534D01*
X141360500Y-79392352D01*
X141360500Y-79187648D01*
X141839500Y-79187648D01*
X141839500Y-79392351D01*
X141871522Y-79594534D01*
X141934781Y-79789223D01*
X142027715Y-79971613D01*
X142148028Y-80137213D01*
X142292786Y-80281971D01*
X142447749Y-80394556D01*
X142458390Y-80402287D01*
X142574607Y-80461503D01*
X142640776Y-80495218D01*
X142640778Y-80495218D01*
X142640781Y-80495220D01*
X142718582Y-80520499D01*
X142835465Y-80558477D01*
X142936557Y-80574488D01*
X143037648Y-80590500D01*
X143037649Y-80590500D01*
X143242351Y-80590500D01*
X143242352Y-80590500D01*
X143444534Y-80558477D01*
X143639219Y-80495220D01*
X143821610Y-80402287D01*
X143926151Y-80326334D01*
X143987213Y-80281971D01*
X143987215Y-80281968D01*
X143987219Y-80281966D01*
X144131966Y-80137219D01*
X144131968Y-80137215D01*
X144131971Y-80137213D01*
X144196323Y-80048638D01*
X144252287Y-79971610D01*
X144345220Y-79789219D01*
X144408477Y-79594534D01*
X144440500Y-79392352D01*
X144440500Y-79187648D01*
X144909500Y-79187648D01*
X144909500Y-79392351D01*
X144941522Y-79594534D01*
X145004781Y-79789223D01*
X145097715Y-79971613D01*
X145218028Y-80137213D01*
X145362786Y-80281971D01*
X145517749Y-80394556D01*
X145528390Y-80402287D01*
X145644607Y-80461503D01*
X145710776Y-80495218D01*
X145710778Y-80495218D01*
X145710781Y-80495220D01*
X145788582Y-80520499D01*
X145905465Y-80558477D01*
X146006557Y-80574488D01*
X146107648Y-80590500D01*
X146107649Y-80590500D01*
X146312351Y-80590500D01*
X146312352Y-80590500D01*
X146514534Y-80558477D01*
X146709219Y-80495220D01*
X146891610Y-80402287D01*
X146996151Y-80326334D01*
X147057213Y-80281971D01*
X147057215Y-80281968D01*
X147057219Y-80281966D01*
X147201966Y-80137219D01*
X147201968Y-80137215D01*
X147201971Y-80137213D01*
X147266323Y-80048638D01*
X147322287Y-79971610D01*
X147415220Y-79789219D01*
X147478477Y-79594534D01*
X147510500Y-79392352D01*
X147510500Y-79187648D01*
X147999500Y-79187648D01*
X147999500Y-79392351D01*
X148031522Y-79594534D01*
X148094781Y-79789223D01*
X148187715Y-79971613D01*
X148308028Y-80137213D01*
X148452786Y-80281971D01*
X148607749Y-80394556D01*
X148618390Y-80402287D01*
X148734607Y-80461503D01*
X148800776Y-80495218D01*
X148800778Y-80495218D01*
X148800781Y-80495220D01*
X148878582Y-80520499D01*
X148995465Y-80558477D01*
X149096557Y-80574488D01*
X149197648Y-80590500D01*
X149197649Y-80590500D01*
X149402351Y-80590500D01*
X149402352Y-80590500D01*
X149604534Y-80558477D01*
X149799219Y-80495220D01*
X149981610Y-80402287D01*
X150086151Y-80326334D01*
X150147213Y-80281971D01*
X150147215Y-80281968D01*
X150147219Y-80281966D01*
X150291966Y-80137219D01*
X150291968Y-80137215D01*
X150291971Y-80137213D01*
X150356323Y-80048638D01*
X150412287Y-79971610D01*
X150505220Y-79789219D01*
X150568477Y-79594534D01*
X150600500Y-79392352D01*
X150600500Y-79187648D01*
X151099500Y-79187648D01*
X151099500Y-79392351D01*
X151131522Y-79594534D01*
X151194781Y-79789223D01*
X151287715Y-79971613D01*
X151408028Y-80137213D01*
X151552786Y-80281971D01*
X151707749Y-80394556D01*
X151718390Y-80402287D01*
X151834607Y-80461503D01*
X151900776Y-80495218D01*
X151900778Y-80495218D01*
X151900781Y-80495220D01*
X151978582Y-80520499D01*
X152095465Y-80558477D01*
X152196557Y-80574488D01*
X152297648Y-80590500D01*
X152297649Y-80590500D01*
X152502351Y-80590500D01*
X152502352Y-80590500D01*
X152704534Y-80558477D01*
X152899219Y-80495220D01*
X153081610Y-80402287D01*
X153186151Y-80326334D01*
X153247213Y-80281971D01*
X153247215Y-80281968D01*
X153247219Y-80281966D01*
X153391966Y-80137219D01*
X153391968Y-80137215D01*
X153391971Y-80137213D01*
X153456323Y-80048638D01*
X153512287Y-79971610D01*
X153605220Y-79789219D01*
X153668477Y-79594534D01*
X153700500Y-79392352D01*
X153700500Y-79187648D01*
X154219500Y-79187648D01*
X154219500Y-79392351D01*
X154251522Y-79594534D01*
X154314781Y-79789223D01*
X154407715Y-79971613D01*
X154528028Y-80137213D01*
X154672786Y-80281971D01*
X154827749Y-80394556D01*
X154838390Y-80402287D01*
X154954607Y-80461503D01*
X155020776Y-80495218D01*
X155020778Y-80495218D01*
X155020781Y-80495220D01*
X155098582Y-80520499D01*
X155215465Y-80558477D01*
X155316557Y-80574488D01*
X155417648Y-80590500D01*
X155417649Y-80590500D01*
X155622351Y-80590500D01*
X155622352Y-80590500D01*
X155824534Y-80558477D01*
X156019219Y-80495220D01*
X156201610Y-80402287D01*
X156306151Y-80326334D01*
X156367213Y-80281971D01*
X156367215Y-80281968D01*
X156367219Y-80281966D01*
X156511966Y-80137219D01*
X156511968Y-80137215D01*
X156511971Y-80137213D01*
X156576323Y-80048638D01*
X156632287Y-79971610D01*
X156725220Y-79789219D01*
X156788477Y-79594534D01*
X156820500Y-79392352D01*
X156820500Y-79187648D01*
X157249500Y-79187648D01*
X157249500Y-79392351D01*
X157281522Y-79594534D01*
X157344781Y-79789223D01*
X157437715Y-79971613D01*
X157558028Y-80137213D01*
X157702786Y-80281971D01*
X157857749Y-80394556D01*
X157868390Y-80402287D01*
X157984607Y-80461503D01*
X158050776Y-80495218D01*
X158050778Y-80495218D01*
X158050781Y-80495220D01*
X158128582Y-80520499D01*
X158245465Y-80558477D01*
X158346557Y-80574488D01*
X158447648Y-80590500D01*
X158447649Y-80590500D01*
X158652351Y-80590500D01*
X158652352Y-80590500D01*
X158854534Y-80558477D01*
X159049219Y-80495220D01*
X159231610Y-80402287D01*
X159336151Y-80326334D01*
X159397213Y-80281971D01*
X159397215Y-80281968D01*
X159397219Y-80281966D01*
X159541966Y-80137219D01*
X159541968Y-80137215D01*
X159541971Y-80137213D01*
X159606323Y-80048638D01*
X159662287Y-79971610D01*
X159755220Y-79789219D01*
X159818477Y-79594534D01*
X159850500Y-79392352D01*
X159850500Y-79187648D01*
X160309500Y-79187648D01*
X160309500Y-79392351D01*
X160341522Y-79594534D01*
X160404781Y-79789223D01*
X160497715Y-79971613D01*
X160618028Y-80137213D01*
X160762786Y-80281971D01*
X160917749Y-80394556D01*
X160928390Y-80402287D01*
X161044607Y-80461503D01*
X161110776Y-80495218D01*
X161110778Y-80495218D01*
X161110781Y-80495220D01*
X161188582Y-80520499D01*
X161305465Y-80558477D01*
X161406557Y-80574488D01*
X161507648Y-80590500D01*
X161507649Y-80590500D01*
X161712351Y-80590500D01*
X161712352Y-80590500D01*
X161914534Y-80558477D01*
X162109219Y-80495220D01*
X162291610Y-80402287D01*
X162396151Y-80326334D01*
X162457213Y-80281971D01*
X162457215Y-80281968D01*
X162457219Y-80281966D01*
X162601966Y-80137219D01*
X162601968Y-80137215D01*
X162601971Y-80137213D01*
X162666323Y-80048638D01*
X162722287Y-79971610D01*
X162815220Y-79789219D01*
X162878477Y-79594534D01*
X162910500Y-79392352D01*
X162910500Y-79187648D01*
X163359500Y-79187648D01*
X163359500Y-79392351D01*
X163391522Y-79594534D01*
X163454781Y-79789223D01*
X163547715Y-79971613D01*
X163668028Y-80137213D01*
X163812786Y-80281971D01*
X163967749Y-80394556D01*
X163978390Y-80402287D01*
X164094607Y-80461503D01*
X164160776Y-80495218D01*
X164160778Y-80495218D01*
X164160781Y-80495220D01*
X164238582Y-80520499D01*
X164355465Y-80558477D01*
X164456557Y-80574488D01*
X164557648Y-80590500D01*
X164557649Y-80590500D01*
X164762351Y-80590500D01*
X164762352Y-80590500D01*
X164964534Y-80558477D01*
X165159219Y-80495220D01*
X165341610Y-80402287D01*
X165446151Y-80326334D01*
X165507213Y-80281971D01*
X165507215Y-80281968D01*
X165507219Y-80281966D01*
X165651966Y-80137219D01*
X165651968Y-80137215D01*
X165651971Y-80137213D01*
X165716323Y-80048638D01*
X165772287Y-79971610D01*
X165865220Y-79789219D01*
X165928477Y-79594534D01*
X165960500Y-79392352D01*
X165960500Y-79187648D01*
X166419500Y-79187648D01*
X166419500Y-79392351D01*
X166451522Y-79594534D01*
X166514781Y-79789223D01*
X166607715Y-79971613D01*
X166728028Y-80137213D01*
X166872786Y-80281971D01*
X167027749Y-80394556D01*
X167038390Y-80402287D01*
X167154607Y-80461503D01*
X167220776Y-80495218D01*
X167220778Y-80495218D01*
X167220781Y-80495220D01*
X167298582Y-80520499D01*
X167415465Y-80558477D01*
X167516557Y-80574488D01*
X167617648Y-80590500D01*
X167617649Y-80590500D01*
X167822351Y-80590500D01*
X167822352Y-80590500D01*
X168024534Y-80558477D01*
X168219219Y-80495220D01*
X168401610Y-80402287D01*
X168506151Y-80326334D01*
X168567213Y-80281971D01*
X168567215Y-80281968D01*
X168567219Y-80281966D01*
X168711966Y-80137219D01*
X168711968Y-80137215D01*
X168711971Y-80137213D01*
X168776323Y-80048638D01*
X168832287Y-79971610D01*
X168925220Y-79789219D01*
X168988477Y-79594534D01*
X169020500Y-79392352D01*
X169020500Y-79187648D01*
X169509500Y-79187648D01*
X169509500Y-79392351D01*
X169541522Y-79594534D01*
X169604781Y-79789223D01*
X169697715Y-79971613D01*
X169818028Y-80137213D01*
X169962786Y-80281971D01*
X170117749Y-80394556D01*
X170128390Y-80402287D01*
X170244607Y-80461503D01*
X170310776Y-80495218D01*
X170310778Y-80495218D01*
X170310781Y-80495220D01*
X170388582Y-80520499D01*
X170505465Y-80558477D01*
X170606557Y-80574488D01*
X170707648Y-80590500D01*
X170707649Y-80590500D01*
X170912351Y-80590500D01*
X170912352Y-80590500D01*
X171114534Y-80558477D01*
X171309219Y-80495220D01*
X171491610Y-80402287D01*
X171596151Y-80326334D01*
X171657213Y-80281971D01*
X171657215Y-80281968D01*
X171657219Y-80281966D01*
X171801966Y-80137219D01*
X171801968Y-80137215D01*
X171801971Y-80137213D01*
X171866323Y-80048638D01*
X171922287Y-79971610D01*
X172015220Y-79789219D01*
X172078477Y-79594534D01*
X172110500Y-79392352D01*
X172110500Y-79187648D01*
X172599500Y-79187648D01*
X172599500Y-79392351D01*
X172631522Y-79594534D01*
X172694781Y-79789223D01*
X172787715Y-79971613D01*
X172908028Y-80137213D01*
X173052786Y-80281971D01*
X173207749Y-80394556D01*
X173218390Y-80402287D01*
X173334607Y-80461503D01*
X173400776Y-80495218D01*
X173400778Y-80495218D01*
X173400781Y-80495220D01*
X173478582Y-80520499D01*
X173595465Y-80558477D01*
X173696557Y-80574488D01*
X173797648Y-80590500D01*
X173797649Y-80590500D01*
X174002351Y-80590500D01*
X174002352Y-80590500D01*
X174204534Y-80558477D01*
X174399219Y-80495220D01*
X174581610Y-80402287D01*
X174686151Y-80326334D01*
X174747213Y-80281971D01*
X174747215Y-80281968D01*
X174747219Y-80281966D01*
X174891966Y-80137219D01*
X174891968Y-80137215D01*
X174891971Y-80137213D01*
X174956323Y-80048638D01*
X175012287Y-79971610D01*
X175105220Y-79789219D01*
X175168477Y-79594534D01*
X175199661Y-79397648D01*
X184213205Y-79397648D01*
X184213205Y-79602351D01*
X184245227Y-79804534D01*
X184308486Y-79999223D01*
X184401420Y-80181613D01*
X184521733Y-80347213D01*
X184666491Y-80491971D01*
X184821454Y-80604556D01*
X184832095Y-80612287D01*
X184948312Y-80671503D01*
X185014481Y-80705218D01*
X185014483Y-80705218D01*
X185014486Y-80705220D01*
X185118842Y-80739127D01*
X185209170Y-80768477D01*
X185310262Y-80784488D01*
X185411353Y-80800500D01*
X185411354Y-80800500D01*
X185616056Y-80800500D01*
X185616057Y-80800500D01*
X185818239Y-80768477D01*
X186012924Y-80705220D01*
X186195315Y-80612287D01*
X186321650Y-80520500D01*
X186360918Y-80491971D01*
X186360920Y-80491968D01*
X186360924Y-80491966D01*
X186505671Y-80347219D01*
X186505673Y-80347215D01*
X186505676Y-80347213D01*
X186612917Y-80199606D01*
X186625992Y-80181610D01*
X186718925Y-79999219D01*
X186782182Y-79804534D01*
X186814205Y-79602352D01*
X186814205Y-79397648D01*
X191533205Y-79397648D01*
X191533205Y-79602351D01*
X191565227Y-79804534D01*
X191628486Y-79999223D01*
X191721420Y-80181613D01*
X191841733Y-80347213D01*
X191986491Y-80491971D01*
X192141454Y-80604556D01*
X192152095Y-80612287D01*
X192268312Y-80671503D01*
X192334481Y-80705218D01*
X192334483Y-80705218D01*
X192334486Y-80705220D01*
X192438842Y-80739127D01*
X192529170Y-80768477D01*
X192630262Y-80784488D01*
X192731353Y-80800500D01*
X192731354Y-80800500D01*
X192936056Y-80800500D01*
X192936057Y-80800500D01*
X193138239Y-80768477D01*
X193332924Y-80705220D01*
X193515315Y-80612287D01*
X193641650Y-80520500D01*
X193680918Y-80491971D01*
X193680920Y-80491968D01*
X193680924Y-80491966D01*
X193825671Y-80347219D01*
X193825673Y-80347215D01*
X193825676Y-80347213D01*
X193932917Y-80199606D01*
X193945992Y-80181610D01*
X194038925Y-79999219D01*
X194102182Y-79804534D01*
X194134205Y-79602352D01*
X194134205Y-79397648D01*
X199103205Y-79397648D01*
X199103205Y-79602351D01*
X199135227Y-79804534D01*
X199198486Y-79999223D01*
X199291420Y-80181613D01*
X199411733Y-80347213D01*
X199556491Y-80491971D01*
X199711454Y-80604556D01*
X199722095Y-80612287D01*
X199838312Y-80671503D01*
X199904481Y-80705218D01*
X199904483Y-80705218D01*
X199904486Y-80705220D01*
X200008842Y-80739127D01*
X200099170Y-80768477D01*
X200200262Y-80784488D01*
X200301353Y-80800500D01*
X200301354Y-80800500D01*
X200506056Y-80800500D01*
X200506057Y-80800500D01*
X200708239Y-80768477D01*
X200902924Y-80705220D01*
X201085315Y-80612287D01*
X201211650Y-80520500D01*
X201250918Y-80491971D01*
X201250920Y-80491968D01*
X201250924Y-80491966D01*
X201395671Y-80347219D01*
X201395673Y-80347215D01*
X201395676Y-80347213D01*
X201502917Y-80199606D01*
X201515992Y-80181610D01*
X201608925Y-79999219D01*
X201672182Y-79804534D01*
X201704205Y-79602352D01*
X201704205Y-79397648D01*
X201672182Y-79195466D01*
X201650577Y-79128974D01*
X201642832Y-79105137D01*
X201608925Y-79000781D01*
X201608923Y-79000778D01*
X201608923Y-79000776D01*
X201566102Y-78916737D01*
X201515992Y-78818390D01*
X201495933Y-78790781D01*
X201395676Y-78652786D01*
X201250918Y-78508028D01*
X201085318Y-78387715D01*
X201085317Y-78387714D01*
X201085315Y-78387713D01*
X201023607Y-78356271D01*
X200902928Y-78294781D01*
X200708239Y-78231522D01*
X200533700Y-78203878D01*
X200506057Y-78199500D01*
X200301353Y-78199500D01*
X200277034Y-78203351D01*
X200099170Y-78231522D01*
X199904481Y-78294781D01*
X199722091Y-78387715D01*
X199556491Y-78508028D01*
X199411733Y-78652786D01*
X199291420Y-78818386D01*
X199198486Y-79000776D01*
X199135227Y-79195465D01*
X199103205Y-79397648D01*
X194134205Y-79397648D01*
X194102182Y-79195466D01*
X194080577Y-79128974D01*
X194072832Y-79105137D01*
X194038925Y-79000781D01*
X194038923Y-79000778D01*
X194038923Y-79000776D01*
X193996102Y-78916737D01*
X193945992Y-78818390D01*
X193925933Y-78790781D01*
X193825676Y-78652786D01*
X193680918Y-78508028D01*
X193515318Y-78387715D01*
X193515317Y-78387714D01*
X193515315Y-78387713D01*
X193453607Y-78356271D01*
X193332928Y-78294781D01*
X193138239Y-78231522D01*
X192963700Y-78203878D01*
X192936057Y-78199500D01*
X192731353Y-78199500D01*
X192707034Y-78203351D01*
X192529170Y-78231522D01*
X192334481Y-78294781D01*
X192152091Y-78387715D01*
X191986491Y-78508028D01*
X191841733Y-78652786D01*
X191721420Y-78818386D01*
X191628486Y-79000776D01*
X191565227Y-79195465D01*
X191533205Y-79397648D01*
X186814205Y-79397648D01*
X186782182Y-79195466D01*
X186760577Y-79128974D01*
X186752832Y-79105137D01*
X186718925Y-79000781D01*
X186718923Y-79000778D01*
X186718923Y-79000776D01*
X186676102Y-78916737D01*
X186625992Y-78818390D01*
X186605933Y-78790781D01*
X186505676Y-78652786D01*
X186360918Y-78508028D01*
X186195318Y-78387715D01*
X186195317Y-78387714D01*
X186195315Y-78387713D01*
X186133607Y-78356271D01*
X186012928Y-78294781D01*
X185818239Y-78231522D01*
X185643700Y-78203878D01*
X185616057Y-78199500D01*
X185411353Y-78199500D01*
X185387034Y-78203351D01*
X185209170Y-78231522D01*
X185014481Y-78294781D01*
X184832091Y-78387715D01*
X184666491Y-78508028D01*
X184521733Y-78652786D01*
X184401420Y-78818386D01*
X184308486Y-79000776D01*
X184245227Y-79195465D01*
X184213205Y-79397648D01*
X175199661Y-79397648D01*
X175200500Y-79392352D01*
X175200500Y-79187648D01*
X175168477Y-78985466D01*
X175105220Y-78790781D01*
X175105218Y-78790778D01*
X175105218Y-78790776D01*
X175071503Y-78724607D01*
X175012287Y-78608390D01*
X174961589Y-78538609D01*
X174891971Y-78442786D01*
X174747213Y-78298028D01*
X174581613Y-78177715D01*
X174581612Y-78177714D01*
X174581610Y-78177713D01*
X174524653Y-78148691D01*
X174399223Y-78084781D01*
X174204534Y-78021522D01*
X174029995Y-77993878D01*
X174002352Y-77989500D01*
X173797648Y-77989500D01*
X173773329Y-77993351D01*
X173595465Y-78021522D01*
X173400776Y-78084781D01*
X173218386Y-78177715D01*
X173052786Y-78298028D01*
X172908028Y-78442786D01*
X172787715Y-78608386D01*
X172694781Y-78790776D01*
X172631522Y-78985465D01*
X172599500Y-79187648D01*
X172110500Y-79187648D01*
X172078477Y-78985466D01*
X172015220Y-78790781D01*
X172015218Y-78790778D01*
X172015218Y-78790776D01*
X171981503Y-78724607D01*
X171922287Y-78608390D01*
X171871589Y-78538609D01*
X171801971Y-78442786D01*
X171657213Y-78298028D01*
X171491613Y-78177715D01*
X171491612Y-78177714D01*
X171491610Y-78177713D01*
X171434653Y-78148691D01*
X171309223Y-78084781D01*
X171114534Y-78021522D01*
X170939995Y-77993878D01*
X170912352Y-77989500D01*
X170707648Y-77989500D01*
X170683329Y-77993351D01*
X170505465Y-78021522D01*
X170310776Y-78084781D01*
X170128386Y-78177715D01*
X169962786Y-78298028D01*
X169818028Y-78442786D01*
X169697715Y-78608386D01*
X169604781Y-78790776D01*
X169541522Y-78985465D01*
X169509500Y-79187648D01*
X169020500Y-79187648D01*
X168988477Y-78985466D01*
X168925220Y-78790781D01*
X168925218Y-78790778D01*
X168925218Y-78790776D01*
X168891503Y-78724607D01*
X168832287Y-78608390D01*
X168781589Y-78538609D01*
X168711971Y-78442786D01*
X168567213Y-78298028D01*
X168401613Y-78177715D01*
X168401612Y-78177714D01*
X168401610Y-78177713D01*
X168344653Y-78148691D01*
X168219223Y-78084781D01*
X168024534Y-78021522D01*
X167849995Y-77993878D01*
X167822352Y-77989500D01*
X167617648Y-77989500D01*
X167593329Y-77993351D01*
X167415465Y-78021522D01*
X167220776Y-78084781D01*
X167038386Y-78177715D01*
X166872786Y-78298028D01*
X166728028Y-78442786D01*
X166607715Y-78608386D01*
X166514781Y-78790776D01*
X166451522Y-78985465D01*
X166419500Y-79187648D01*
X165960500Y-79187648D01*
X165928477Y-78985466D01*
X165865220Y-78790781D01*
X165865218Y-78790778D01*
X165865218Y-78790776D01*
X165831503Y-78724607D01*
X165772287Y-78608390D01*
X165721589Y-78538609D01*
X165651971Y-78442786D01*
X165507213Y-78298028D01*
X165341613Y-78177715D01*
X165341612Y-78177714D01*
X165341610Y-78177713D01*
X165284653Y-78148691D01*
X165159223Y-78084781D01*
X164964534Y-78021522D01*
X164789995Y-77993878D01*
X164762352Y-77989500D01*
X164557648Y-77989500D01*
X164533329Y-77993351D01*
X164355465Y-78021522D01*
X164160776Y-78084781D01*
X163978386Y-78177715D01*
X163812786Y-78298028D01*
X163668028Y-78442786D01*
X163547715Y-78608386D01*
X163454781Y-78790776D01*
X163391522Y-78985465D01*
X163359500Y-79187648D01*
X162910500Y-79187648D01*
X162878477Y-78985466D01*
X162815220Y-78790781D01*
X162815218Y-78790778D01*
X162815218Y-78790776D01*
X162781503Y-78724607D01*
X162722287Y-78608390D01*
X162671589Y-78538609D01*
X162601971Y-78442786D01*
X162457213Y-78298028D01*
X162291613Y-78177715D01*
X162291612Y-78177714D01*
X162291610Y-78177713D01*
X162234653Y-78148691D01*
X162109223Y-78084781D01*
X161914534Y-78021522D01*
X161739995Y-77993878D01*
X161712352Y-77989500D01*
X161507648Y-77989500D01*
X161483329Y-77993351D01*
X161305465Y-78021522D01*
X161110776Y-78084781D01*
X160928386Y-78177715D01*
X160762786Y-78298028D01*
X160618028Y-78442786D01*
X160497715Y-78608386D01*
X160404781Y-78790776D01*
X160341522Y-78985465D01*
X160309500Y-79187648D01*
X159850500Y-79187648D01*
X159818477Y-78985466D01*
X159755220Y-78790781D01*
X159755218Y-78790778D01*
X159755218Y-78790776D01*
X159721503Y-78724607D01*
X159662287Y-78608390D01*
X159611589Y-78538609D01*
X159541971Y-78442786D01*
X159397213Y-78298028D01*
X159231613Y-78177715D01*
X159231612Y-78177714D01*
X159231610Y-78177713D01*
X159174653Y-78148691D01*
X159049223Y-78084781D01*
X158854534Y-78021522D01*
X158679995Y-77993878D01*
X158652352Y-77989500D01*
X158447648Y-77989500D01*
X158423329Y-77993351D01*
X158245465Y-78021522D01*
X158050776Y-78084781D01*
X157868386Y-78177715D01*
X157702786Y-78298028D01*
X157558028Y-78442786D01*
X157437715Y-78608386D01*
X157344781Y-78790776D01*
X157281522Y-78985465D01*
X157249500Y-79187648D01*
X156820500Y-79187648D01*
X156788477Y-78985466D01*
X156725220Y-78790781D01*
X156725218Y-78790778D01*
X156725218Y-78790776D01*
X156691503Y-78724607D01*
X156632287Y-78608390D01*
X156581589Y-78538609D01*
X156511971Y-78442786D01*
X156367213Y-78298028D01*
X156201613Y-78177715D01*
X156201612Y-78177714D01*
X156201610Y-78177713D01*
X156144653Y-78148691D01*
X156019223Y-78084781D01*
X155824534Y-78021522D01*
X155649995Y-77993878D01*
X155622352Y-77989500D01*
X155417648Y-77989500D01*
X155393329Y-77993351D01*
X155215465Y-78021522D01*
X155020776Y-78084781D01*
X154838386Y-78177715D01*
X154672786Y-78298028D01*
X154528028Y-78442786D01*
X154407715Y-78608386D01*
X154314781Y-78790776D01*
X154251522Y-78985465D01*
X154219500Y-79187648D01*
X153700500Y-79187648D01*
X153668477Y-78985466D01*
X153605220Y-78790781D01*
X153605218Y-78790778D01*
X153605218Y-78790776D01*
X153571503Y-78724607D01*
X153512287Y-78608390D01*
X153461589Y-78538609D01*
X153391971Y-78442786D01*
X153247213Y-78298028D01*
X153081613Y-78177715D01*
X153081612Y-78177714D01*
X153081610Y-78177713D01*
X153024653Y-78148691D01*
X152899223Y-78084781D01*
X152704534Y-78021522D01*
X152529995Y-77993878D01*
X152502352Y-77989500D01*
X152297648Y-77989500D01*
X152273329Y-77993351D01*
X152095465Y-78021522D01*
X151900776Y-78084781D01*
X151718386Y-78177715D01*
X151552786Y-78298028D01*
X151408028Y-78442786D01*
X151287715Y-78608386D01*
X151194781Y-78790776D01*
X151131522Y-78985465D01*
X151099500Y-79187648D01*
X150600500Y-79187648D01*
X150568477Y-78985466D01*
X150505220Y-78790781D01*
X150505218Y-78790778D01*
X150505218Y-78790776D01*
X150471503Y-78724607D01*
X150412287Y-78608390D01*
X150361589Y-78538609D01*
X150291971Y-78442786D01*
X150147213Y-78298028D01*
X149981613Y-78177715D01*
X149981612Y-78177714D01*
X149981610Y-78177713D01*
X149924653Y-78148691D01*
X149799223Y-78084781D01*
X149604534Y-78021522D01*
X149429995Y-77993878D01*
X149402352Y-77989500D01*
X149197648Y-77989500D01*
X149173329Y-77993351D01*
X148995465Y-78021522D01*
X148800776Y-78084781D01*
X148618386Y-78177715D01*
X148452786Y-78298028D01*
X148308028Y-78442786D01*
X148187715Y-78608386D01*
X148094781Y-78790776D01*
X148031522Y-78985465D01*
X147999500Y-79187648D01*
X147510500Y-79187648D01*
X147478477Y-78985466D01*
X147415220Y-78790781D01*
X147415218Y-78790778D01*
X147415218Y-78790776D01*
X147381503Y-78724607D01*
X147322287Y-78608390D01*
X147271589Y-78538609D01*
X147201971Y-78442786D01*
X147057213Y-78298028D01*
X146891613Y-78177715D01*
X146891612Y-78177714D01*
X146891610Y-78177713D01*
X146834653Y-78148691D01*
X146709223Y-78084781D01*
X146514534Y-78021522D01*
X146339995Y-77993878D01*
X146312352Y-77989500D01*
X146107648Y-77989500D01*
X146083329Y-77993351D01*
X145905465Y-78021522D01*
X145710776Y-78084781D01*
X145528386Y-78177715D01*
X145362786Y-78298028D01*
X145218028Y-78442786D01*
X145097715Y-78608386D01*
X145004781Y-78790776D01*
X144941522Y-78985465D01*
X144909500Y-79187648D01*
X144440500Y-79187648D01*
X144408477Y-78985466D01*
X144345220Y-78790781D01*
X144345218Y-78790778D01*
X144345218Y-78790776D01*
X144311503Y-78724607D01*
X144252287Y-78608390D01*
X144201589Y-78538609D01*
X144131971Y-78442786D01*
X143987213Y-78298028D01*
X143821613Y-78177715D01*
X143821612Y-78177714D01*
X143821610Y-78177713D01*
X143764653Y-78148691D01*
X143639223Y-78084781D01*
X143444534Y-78021522D01*
X143269995Y-77993878D01*
X143242352Y-77989500D01*
X143037648Y-77989500D01*
X143013329Y-77993351D01*
X142835465Y-78021522D01*
X142640776Y-78084781D01*
X142458386Y-78177715D01*
X142292786Y-78298028D01*
X142148028Y-78442786D01*
X142027715Y-78608386D01*
X141934781Y-78790776D01*
X141871522Y-78985465D01*
X141839500Y-79187648D01*
X141360500Y-79187648D01*
X141328477Y-78985466D01*
X141265220Y-78790781D01*
X141265218Y-78790778D01*
X141265218Y-78790776D01*
X141231503Y-78724607D01*
X141172287Y-78608390D01*
X141121589Y-78538609D01*
X141051971Y-78442786D01*
X140907213Y-78298028D01*
X140741613Y-78177715D01*
X140741612Y-78177714D01*
X140741610Y-78177713D01*
X140684653Y-78148691D01*
X140559223Y-78084781D01*
X140364534Y-78021522D01*
X140189995Y-77993878D01*
X140162352Y-77989500D01*
X139957648Y-77989500D01*
X139933329Y-77993351D01*
X139755465Y-78021522D01*
X139560776Y-78084781D01*
X139378386Y-78177715D01*
X139212786Y-78298028D01*
X139068028Y-78442786D01*
X138947715Y-78608386D01*
X138854781Y-78790776D01*
X138791522Y-78985465D01*
X138759500Y-79187648D01*
X138310500Y-79187648D01*
X138278477Y-78985466D01*
X138215220Y-78790781D01*
X138215218Y-78790778D01*
X138215218Y-78790776D01*
X138181503Y-78724607D01*
X138122287Y-78608390D01*
X138071589Y-78538609D01*
X138001971Y-78442786D01*
X137857213Y-78298028D01*
X137691613Y-78177715D01*
X137691612Y-78177714D01*
X137691610Y-78177713D01*
X137634653Y-78148691D01*
X137509223Y-78084781D01*
X137314534Y-78021522D01*
X137139995Y-77993878D01*
X137112352Y-77989500D01*
X136907648Y-77989500D01*
X136883329Y-77993351D01*
X136705465Y-78021522D01*
X136510776Y-78084781D01*
X136328386Y-78177715D01*
X136162786Y-78298028D01*
X136018028Y-78442786D01*
X135897715Y-78608386D01*
X135804781Y-78790776D01*
X135741522Y-78985465D01*
X135709500Y-79187648D01*
X135230500Y-79187648D01*
X135198477Y-78985466D01*
X135135220Y-78790781D01*
X135135218Y-78790778D01*
X135135218Y-78790776D01*
X135101503Y-78724607D01*
X135042287Y-78608390D01*
X134991589Y-78538609D01*
X134921971Y-78442786D01*
X134777213Y-78298028D01*
X134611613Y-78177715D01*
X134611612Y-78177714D01*
X134611610Y-78177713D01*
X134554653Y-78148691D01*
X134429223Y-78084781D01*
X134234534Y-78021522D01*
X134059995Y-77993878D01*
X134032352Y-77989500D01*
X133827648Y-77989500D01*
X133803329Y-77993351D01*
X133625465Y-78021522D01*
X133430776Y-78084781D01*
X133248386Y-78177715D01*
X133082786Y-78298028D01*
X132938028Y-78442786D01*
X132817715Y-78608386D01*
X132724781Y-78790776D01*
X132661522Y-78985465D01*
X132629500Y-79187648D01*
X132150500Y-79187648D01*
X132118477Y-78985466D01*
X132055220Y-78790781D01*
X132055218Y-78790778D01*
X132055218Y-78790776D01*
X132021503Y-78724607D01*
X131962287Y-78608390D01*
X131911589Y-78538609D01*
X131841971Y-78442786D01*
X131697213Y-78298028D01*
X131531613Y-78177715D01*
X131531612Y-78177714D01*
X131531610Y-78177713D01*
X131474653Y-78148691D01*
X131349223Y-78084781D01*
X131154534Y-78021522D01*
X130979995Y-77993878D01*
X130952352Y-77989500D01*
X130747648Y-77989500D01*
X130723329Y-77993351D01*
X130545465Y-78021522D01*
X130350776Y-78084781D01*
X130168386Y-78177715D01*
X130002786Y-78298028D01*
X129858028Y-78442786D01*
X129737715Y-78608386D01*
X129644781Y-78790776D01*
X129581522Y-78985465D01*
X129549500Y-79187648D01*
X129090500Y-79187648D01*
X129058477Y-78985466D01*
X128995220Y-78790781D01*
X128995218Y-78790778D01*
X128995218Y-78790776D01*
X128961503Y-78724607D01*
X128902287Y-78608390D01*
X128851589Y-78538609D01*
X128781971Y-78442786D01*
X128637213Y-78298028D01*
X128471613Y-78177715D01*
X128471612Y-78177714D01*
X128471610Y-78177713D01*
X128414653Y-78148691D01*
X128289223Y-78084781D01*
X128094534Y-78021522D01*
X127919995Y-77993878D01*
X127892352Y-77989500D01*
X127687648Y-77989500D01*
X127663329Y-77993351D01*
X127485465Y-78021522D01*
X127290776Y-78084781D01*
X127108386Y-78177715D01*
X126942786Y-78298028D01*
X126798028Y-78442786D01*
X126677715Y-78608386D01*
X126584781Y-78790776D01*
X126521522Y-78985465D01*
X126489500Y-79187648D01*
X122424732Y-79187648D01*
X122429605Y-79179893D01*
X122440493Y-79157283D01*
X122454127Y-79128974D01*
X122509253Y-79014503D01*
X122556335Y-78916737D01*
X122652803Y-78641045D01*
X122717798Y-78356286D01*
X122750500Y-78066041D01*
X122750500Y-77773959D01*
X122717798Y-77483714D01*
X122652803Y-77198955D01*
X122556335Y-76923263D01*
X122429605Y-76660107D01*
X122274208Y-76412794D01*
X122092098Y-76184435D01*
X121995311Y-76087648D01*
X184213205Y-76087648D01*
X184213205Y-76292351D01*
X184245227Y-76494534D01*
X184308486Y-76689223D01*
X184401420Y-76871613D01*
X184521733Y-77037213D01*
X184666491Y-77181971D01*
X184821454Y-77294556D01*
X184832095Y-77302287D01*
X184948312Y-77361503D01*
X185014481Y-77395218D01*
X185014483Y-77395218D01*
X185014486Y-77395220D01*
X185118842Y-77429127D01*
X185209170Y-77458477D01*
X185310262Y-77474488D01*
X185411353Y-77490500D01*
X185411354Y-77490500D01*
X185616056Y-77490500D01*
X185616057Y-77490500D01*
X185818239Y-77458477D01*
X186012924Y-77395220D01*
X186195315Y-77302287D01*
X186288295Y-77234732D01*
X186360918Y-77181971D01*
X186360920Y-77181968D01*
X186360924Y-77181966D01*
X186505671Y-77037219D01*
X186505673Y-77037215D01*
X186505676Y-77037213D01*
X186588464Y-76923263D01*
X186625992Y-76871610D01*
X186718925Y-76689219D01*
X186782182Y-76494534D01*
X186814205Y-76292352D01*
X186814205Y-76087648D01*
X191533205Y-76087648D01*
X191533205Y-76292351D01*
X191565227Y-76494534D01*
X191628486Y-76689223D01*
X191721420Y-76871613D01*
X191841733Y-77037213D01*
X191986491Y-77181971D01*
X192141454Y-77294556D01*
X192152095Y-77302287D01*
X192268312Y-77361503D01*
X192334481Y-77395218D01*
X192334483Y-77395218D01*
X192334486Y-77395220D01*
X192438842Y-77429127D01*
X192529170Y-77458477D01*
X192630262Y-77474488D01*
X192731353Y-77490500D01*
X192731354Y-77490500D01*
X192936056Y-77490500D01*
X192936057Y-77490500D01*
X193138239Y-77458477D01*
X193332924Y-77395220D01*
X193515315Y-77302287D01*
X193608295Y-77234732D01*
X193680918Y-77181971D01*
X193680920Y-77181968D01*
X193680924Y-77181966D01*
X193825671Y-77037219D01*
X193825673Y-77037215D01*
X193825676Y-77037213D01*
X193908464Y-76923263D01*
X193945992Y-76871610D01*
X194038925Y-76689219D01*
X194102182Y-76494534D01*
X194134205Y-76292352D01*
X194134205Y-76087648D01*
X199103205Y-76087648D01*
X199103205Y-76292351D01*
X199135227Y-76494534D01*
X199198486Y-76689223D01*
X199291420Y-76871613D01*
X199411733Y-77037213D01*
X199556491Y-77181971D01*
X199711454Y-77294556D01*
X199722095Y-77302287D01*
X199838312Y-77361503D01*
X199904481Y-77395218D01*
X199904483Y-77395218D01*
X199904486Y-77395220D01*
X200008842Y-77429127D01*
X200099170Y-77458477D01*
X200200262Y-77474488D01*
X200301353Y-77490500D01*
X200301354Y-77490500D01*
X200506056Y-77490500D01*
X200506057Y-77490500D01*
X200708239Y-77458477D01*
X200902924Y-77395220D01*
X201085315Y-77302287D01*
X201178295Y-77234732D01*
X201250918Y-77181971D01*
X201250920Y-77181968D01*
X201250924Y-77181966D01*
X201395671Y-77037219D01*
X201395673Y-77037215D01*
X201395676Y-77037213D01*
X201478464Y-76923263D01*
X201515992Y-76871610D01*
X201608925Y-76689219D01*
X201672182Y-76494534D01*
X201704205Y-76292352D01*
X201704205Y-76087648D01*
X201672182Y-75885466D01*
X201608925Y-75690781D01*
X201608923Y-75690778D01*
X201608923Y-75690776D01*
X201575208Y-75624607D01*
X201515992Y-75508390D01*
X201508261Y-75497749D01*
X201395676Y-75342786D01*
X201250918Y-75198028D01*
X201085318Y-75077715D01*
X201085317Y-75077714D01*
X201085315Y-75077713D01*
X201028358Y-75048691D01*
X200902928Y-74984781D01*
X200708239Y-74921522D01*
X200533700Y-74893878D01*
X200506057Y-74889500D01*
X200301353Y-74889500D01*
X200277034Y-74893351D01*
X200099170Y-74921522D01*
X199904481Y-74984781D01*
X199722091Y-75077715D01*
X199556491Y-75198028D01*
X199411733Y-75342786D01*
X199291420Y-75508386D01*
X199198486Y-75690776D01*
X199135227Y-75885465D01*
X199103205Y-76087648D01*
X194134205Y-76087648D01*
X194102182Y-75885466D01*
X194038925Y-75690781D01*
X194038923Y-75690778D01*
X194038923Y-75690776D01*
X194005208Y-75624607D01*
X193945992Y-75508390D01*
X193938261Y-75497749D01*
X193825676Y-75342786D01*
X193680918Y-75198028D01*
X193515318Y-75077715D01*
X193515317Y-75077714D01*
X193515315Y-75077713D01*
X193458358Y-75048691D01*
X193332928Y-74984781D01*
X193138239Y-74921522D01*
X192963700Y-74893878D01*
X192936057Y-74889500D01*
X192731353Y-74889500D01*
X192707034Y-74893351D01*
X192529170Y-74921522D01*
X192334481Y-74984781D01*
X192152091Y-75077715D01*
X191986491Y-75198028D01*
X191841733Y-75342786D01*
X191721420Y-75508386D01*
X191628486Y-75690776D01*
X191565227Y-75885465D01*
X191533205Y-76087648D01*
X186814205Y-76087648D01*
X186782182Y-75885466D01*
X186718925Y-75690781D01*
X186718923Y-75690778D01*
X186718923Y-75690776D01*
X186685208Y-75624607D01*
X186625992Y-75508390D01*
X186618261Y-75497749D01*
X186505676Y-75342786D01*
X186360918Y-75198028D01*
X186195318Y-75077715D01*
X186195317Y-75077714D01*
X186195315Y-75077713D01*
X186138358Y-75048691D01*
X186012928Y-74984781D01*
X185818239Y-74921522D01*
X185643700Y-74893878D01*
X185616057Y-74889500D01*
X185411353Y-74889500D01*
X185387034Y-74893351D01*
X185209170Y-74921522D01*
X185014481Y-74984781D01*
X184832091Y-75077715D01*
X184666491Y-75198028D01*
X184521733Y-75342786D01*
X184401420Y-75508386D01*
X184308486Y-75690776D01*
X184245227Y-75885465D01*
X184213205Y-76087648D01*
X121995311Y-76087648D01*
X121885565Y-75977902D01*
X121657206Y-75795792D01*
X121409893Y-75640395D01*
X121409890Y-75640393D01*
X121146738Y-75513665D01*
X120871046Y-75417197D01*
X120871044Y-75417196D01*
X120651280Y-75367036D01*
X120586286Y-75352202D01*
X120586283Y-75352201D01*
X120586271Y-75352199D01*
X120296047Y-75319500D01*
X120296041Y-75319500D01*
X120003959Y-75319500D01*
X120003952Y-75319500D01*
X119713728Y-75352199D01*
X119713714Y-75352202D01*
X119428955Y-75417196D01*
X119428953Y-75417197D01*
X119153261Y-75513665D01*
X118890109Y-75640393D01*
X118642795Y-75795791D01*
X118414435Y-75977901D01*
X118207901Y-76184435D01*
X118025791Y-76412795D01*
X117870393Y-76660109D01*
X117743665Y-76923261D01*
X117647197Y-77198953D01*
X117647196Y-77198955D01*
X117582202Y-77483714D01*
X117582199Y-77483728D01*
X117549500Y-77773952D01*
X113615500Y-77773952D01*
X113615500Y-70037648D01*
X120309500Y-70037648D01*
X120309500Y-70242351D01*
X120341522Y-70444534D01*
X120404781Y-70639223D01*
X120497715Y-70821613D01*
X120618028Y-70987213D01*
X120762786Y-71131971D01*
X120874193Y-71212911D01*
X120928390Y-71252287D01*
X121044607Y-71311503D01*
X121110776Y-71345218D01*
X121110778Y-71345218D01*
X121110781Y-71345220D01*
X121192300Y-71371707D01*
X121305465Y-71408477D01*
X121406557Y-71424488D01*
X121507648Y-71440500D01*
X121507649Y-71440500D01*
X121712351Y-71440500D01*
X121712352Y-71440500D01*
X121914534Y-71408477D01*
X122109219Y-71345220D01*
X122291610Y-71252287D01*
X122401278Y-71172609D01*
X122457213Y-71131971D01*
X122457215Y-71131968D01*
X122457219Y-71131966D01*
X122601966Y-70987219D01*
X122601968Y-70987215D01*
X122601971Y-70987213D01*
X122654732Y-70914590D01*
X122722287Y-70821610D01*
X122815220Y-70639219D01*
X122878477Y-70444534D01*
X122910500Y-70242352D01*
X122910500Y-70037648D01*
X123379500Y-70037648D01*
X123379500Y-70242351D01*
X123411522Y-70444534D01*
X123474781Y-70639223D01*
X123567715Y-70821613D01*
X123688028Y-70987213D01*
X123832786Y-71131971D01*
X123944193Y-71212911D01*
X123998390Y-71252287D01*
X124114607Y-71311503D01*
X124180776Y-71345218D01*
X124180778Y-71345218D01*
X124180781Y-71345220D01*
X124262300Y-71371707D01*
X124375465Y-71408477D01*
X124476557Y-71424488D01*
X124577648Y-71440500D01*
X124577649Y-71440500D01*
X124782351Y-71440500D01*
X124782352Y-71440500D01*
X124984534Y-71408477D01*
X125179219Y-71345220D01*
X125361610Y-71252287D01*
X125471278Y-71172609D01*
X125527213Y-71131971D01*
X125527215Y-71131968D01*
X125527219Y-71131966D01*
X125671966Y-70987219D01*
X125671968Y-70987215D01*
X125671971Y-70987213D01*
X125724732Y-70914590D01*
X125792287Y-70821610D01*
X125885220Y-70639219D01*
X125948477Y-70444534D01*
X125980500Y-70242352D01*
X125980500Y-70037648D01*
X126479500Y-70037648D01*
X126479500Y-70242351D01*
X126511522Y-70444534D01*
X126574781Y-70639223D01*
X126667715Y-70821613D01*
X126788028Y-70987213D01*
X126932786Y-71131971D01*
X127044193Y-71212911D01*
X127098390Y-71252287D01*
X127214607Y-71311503D01*
X127280776Y-71345218D01*
X127280778Y-71345218D01*
X127280781Y-71345220D01*
X127362300Y-71371707D01*
X127475465Y-71408477D01*
X127576557Y-71424488D01*
X127677648Y-71440500D01*
X127677649Y-71440500D01*
X127882351Y-71440500D01*
X127882352Y-71440500D01*
X128084534Y-71408477D01*
X128279219Y-71345220D01*
X128461610Y-71252287D01*
X128571278Y-71172609D01*
X128627213Y-71131971D01*
X128627215Y-71131968D01*
X128627219Y-71131966D01*
X128771966Y-70987219D01*
X128771968Y-70987215D01*
X128771971Y-70987213D01*
X128824732Y-70914590D01*
X128892287Y-70821610D01*
X128985220Y-70639219D01*
X129048477Y-70444534D01*
X129080500Y-70242352D01*
X129080500Y-70037648D01*
X129549500Y-70037648D01*
X129549500Y-70242351D01*
X129581522Y-70444534D01*
X129644781Y-70639223D01*
X129737715Y-70821613D01*
X129858028Y-70987213D01*
X130002786Y-71131971D01*
X130114193Y-71212911D01*
X130168390Y-71252287D01*
X130284607Y-71311503D01*
X130350776Y-71345218D01*
X130350778Y-71345218D01*
X130350781Y-71345220D01*
X130432300Y-71371707D01*
X130545465Y-71408477D01*
X130646557Y-71424488D01*
X130747648Y-71440500D01*
X130747649Y-71440500D01*
X130952351Y-71440500D01*
X130952352Y-71440500D01*
X131154534Y-71408477D01*
X131349219Y-71345220D01*
X131531610Y-71252287D01*
X131641278Y-71172609D01*
X131697213Y-71131971D01*
X131697215Y-71131968D01*
X131697219Y-71131966D01*
X131841966Y-70987219D01*
X131841968Y-70987215D01*
X131841971Y-70987213D01*
X131894732Y-70914590D01*
X131962287Y-70821610D01*
X132055220Y-70639219D01*
X132118477Y-70444534D01*
X132150500Y-70242352D01*
X132150500Y-70037648D01*
X132619500Y-70037648D01*
X132619500Y-70242351D01*
X132651522Y-70444534D01*
X132714781Y-70639223D01*
X132807715Y-70821613D01*
X132928028Y-70987213D01*
X133072786Y-71131971D01*
X133184193Y-71212911D01*
X133238390Y-71252287D01*
X133354607Y-71311503D01*
X133420776Y-71345218D01*
X133420778Y-71345218D01*
X133420781Y-71345220D01*
X133502300Y-71371707D01*
X133615465Y-71408477D01*
X133716557Y-71424488D01*
X133817648Y-71440500D01*
X133817649Y-71440500D01*
X134022351Y-71440500D01*
X134022352Y-71440500D01*
X134224534Y-71408477D01*
X134419219Y-71345220D01*
X134601610Y-71252287D01*
X134711278Y-71172609D01*
X134767213Y-71131971D01*
X134767215Y-71131968D01*
X134767219Y-71131966D01*
X134911966Y-70987219D01*
X134911968Y-70987215D01*
X134911971Y-70987213D01*
X134964732Y-70914590D01*
X135032287Y-70821610D01*
X135125220Y-70639219D01*
X135188477Y-70444534D01*
X135220500Y-70242352D01*
X135220500Y-70037648D01*
X135709500Y-70037648D01*
X135709500Y-70242351D01*
X135741522Y-70444534D01*
X135804781Y-70639223D01*
X135897715Y-70821613D01*
X136018028Y-70987213D01*
X136162786Y-71131971D01*
X136274193Y-71212911D01*
X136328390Y-71252287D01*
X136444607Y-71311503D01*
X136510776Y-71345218D01*
X136510778Y-71345218D01*
X136510781Y-71345220D01*
X136592300Y-71371707D01*
X136705465Y-71408477D01*
X136806557Y-71424488D01*
X136907648Y-71440500D01*
X136907649Y-71440500D01*
X137112351Y-71440500D01*
X137112352Y-71440500D01*
X137314534Y-71408477D01*
X137509219Y-71345220D01*
X137691610Y-71252287D01*
X137801278Y-71172609D01*
X137857213Y-71131971D01*
X137857215Y-71131968D01*
X137857219Y-71131966D01*
X138001966Y-70987219D01*
X138001968Y-70987215D01*
X138001971Y-70987213D01*
X138054732Y-70914590D01*
X138122287Y-70821610D01*
X138215220Y-70639219D01*
X138278477Y-70444534D01*
X138310500Y-70242352D01*
X138310500Y-70037648D01*
X138769500Y-70037648D01*
X138769500Y-70242351D01*
X138801522Y-70444534D01*
X138864781Y-70639223D01*
X138957715Y-70821613D01*
X139078028Y-70987213D01*
X139222786Y-71131971D01*
X139334193Y-71212911D01*
X139388390Y-71252287D01*
X139504607Y-71311503D01*
X139570776Y-71345218D01*
X139570778Y-71345218D01*
X139570781Y-71345220D01*
X139652300Y-71371707D01*
X139765465Y-71408477D01*
X139866557Y-71424488D01*
X139967648Y-71440500D01*
X139967649Y-71440500D01*
X140172351Y-71440500D01*
X140172352Y-71440500D01*
X140374534Y-71408477D01*
X140569219Y-71345220D01*
X140751610Y-71252287D01*
X140861278Y-71172609D01*
X140917213Y-71131971D01*
X140917215Y-71131968D01*
X140917219Y-71131966D01*
X141061966Y-70987219D01*
X141061968Y-70987215D01*
X141061971Y-70987213D01*
X141114732Y-70914590D01*
X141182287Y-70821610D01*
X141275220Y-70639219D01*
X141338477Y-70444534D01*
X141370500Y-70242352D01*
X141370500Y-70037648D01*
X141839500Y-70037648D01*
X141839500Y-70242351D01*
X141871522Y-70444534D01*
X141934781Y-70639223D01*
X142027715Y-70821613D01*
X142148028Y-70987213D01*
X142292786Y-71131971D01*
X142404193Y-71212911D01*
X142458390Y-71252287D01*
X142574607Y-71311503D01*
X142640776Y-71345218D01*
X142640778Y-71345218D01*
X142640781Y-71345220D01*
X142722300Y-71371707D01*
X142835465Y-71408477D01*
X142936557Y-71424488D01*
X143037648Y-71440500D01*
X143037649Y-71440500D01*
X143242351Y-71440500D01*
X143242352Y-71440500D01*
X143444534Y-71408477D01*
X143639219Y-71345220D01*
X143821610Y-71252287D01*
X143931278Y-71172609D01*
X143987213Y-71131971D01*
X143987215Y-71131968D01*
X143987219Y-71131966D01*
X144131966Y-70987219D01*
X144131968Y-70987215D01*
X144131971Y-70987213D01*
X144184732Y-70914590D01*
X144252287Y-70821610D01*
X144345220Y-70639219D01*
X144408477Y-70444534D01*
X144440500Y-70242352D01*
X144440500Y-70037648D01*
X144909500Y-70037648D01*
X144909500Y-70242351D01*
X144941522Y-70444534D01*
X145004781Y-70639223D01*
X145097715Y-70821613D01*
X145218028Y-70987213D01*
X145362786Y-71131971D01*
X145474193Y-71212911D01*
X145528390Y-71252287D01*
X145644607Y-71311503D01*
X145710776Y-71345218D01*
X145710778Y-71345218D01*
X145710781Y-71345220D01*
X145792300Y-71371707D01*
X145905465Y-71408477D01*
X146006557Y-71424488D01*
X146107648Y-71440500D01*
X146107649Y-71440500D01*
X146312351Y-71440500D01*
X146312352Y-71440500D01*
X146514534Y-71408477D01*
X146709219Y-71345220D01*
X146891610Y-71252287D01*
X147001278Y-71172609D01*
X147057213Y-71131971D01*
X147057215Y-71131968D01*
X147057219Y-71131966D01*
X147201966Y-70987219D01*
X147201968Y-70987215D01*
X147201971Y-70987213D01*
X147254732Y-70914590D01*
X147322287Y-70821610D01*
X147415220Y-70639219D01*
X147478477Y-70444534D01*
X147510500Y-70242352D01*
X147510500Y-70037648D01*
X147999500Y-70037648D01*
X147999500Y-70242351D01*
X148031522Y-70444534D01*
X148094781Y-70639223D01*
X148187715Y-70821613D01*
X148308028Y-70987213D01*
X148452786Y-71131971D01*
X148564193Y-71212911D01*
X148618390Y-71252287D01*
X148734607Y-71311503D01*
X148800776Y-71345218D01*
X148800778Y-71345218D01*
X148800781Y-71345220D01*
X148882300Y-71371707D01*
X148995465Y-71408477D01*
X149096557Y-71424488D01*
X149197648Y-71440500D01*
X149197649Y-71440500D01*
X149402351Y-71440500D01*
X149402352Y-71440500D01*
X149604534Y-71408477D01*
X149799219Y-71345220D01*
X149981610Y-71252287D01*
X150091278Y-71172609D01*
X150147213Y-71131971D01*
X150147215Y-71131968D01*
X150147219Y-71131966D01*
X150291966Y-70987219D01*
X150291968Y-70987215D01*
X150291971Y-70987213D01*
X150344732Y-70914590D01*
X150412287Y-70821610D01*
X150505220Y-70639219D01*
X150568477Y-70444534D01*
X150600500Y-70242352D01*
X150600500Y-70037648D01*
X151119500Y-70037648D01*
X151119500Y-70242351D01*
X151151522Y-70444534D01*
X151214781Y-70639223D01*
X151307715Y-70821613D01*
X151428028Y-70987213D01*
X151572786Y-71131971D01*
X151684193Y-71212911D01*
X151738390Y-71252287D01*
X151854607Y-71311503D01*
X151920776Y-71345218D01*
X151920778Y-71345218D01*
X151920781Y-71345220D01*
X152002300Y-71371707D01*
X152115465Y-71408477D01*
X152216557Y-71424488D01*
X152317648Y-71440500D01*
X152317649Y-71440500D01*
X152522351Y-71440500D01*
X152522352Y-71440500D01*
X152724534Y-71408477D01*
X152919219Y-71345220D01*
X153101610Y-71252287D01*
X153211278Y-71172609D01*
X153267213Y-71131971D01*
X153267215Y-71131968D01*
X153267219Y-71131966D01*
X153411966Y-70987219D01*
X153411968Y-70987215D01*
X153411971Y-70987213D01*
X153464732Y-70914590D01*
X153532287Y-70821610D01*
X153625220Y-70639219D01*
X153688477Y-70444534D01*
X153720500Y-70242352D01*
X153720500Y-70037648D01*
X154219500Y-70037648D01*
X154219500Y-70242351D01*
X154251522Y-70444534D01*
X154314781Y-70639223D01*
X154407715Y-70821613D01*
X154528028Y-70987213D01*
X154672786Y-71131971D01*
X154784193Y-71212911D01*
X154838390Y-71252287D01*
X154954607Y-71311503D01*
X155020776Y-71345218D01*
X155020778Y-71345218D01*
X155020781Y-71345220D01*
X155102300Y-71371707D01*
X155215465Y-71408477D01*
X155316557Y-71424488D01*
X155417648Y-71440500D01*
X155417649Y-71440500D01*
X155622351Y-71440500D01*
X155622352Y-71440500D01*
X155824534Y-71408477D01*
X156019219Y-71345220D01*
X156201610Y-71252287D01*
X156311278Y-71172609D01*
X156367213Y-71131971D01*
X156367215Y-71131968D01*
X156367219Y-71131966D01*
X156511966Y-70987219D01*
X156511968Y-70987215D01*
X156511971Y-70987213D01*
X156564732Y-70914590D01*
X156632287Y-70821610D01*
X156725220Y-70639219D01*
X156788477Y-70444534D01*
X156820500Y-70242352D01*
X156820500Y-70037648D01*
X157249500Y-70037648D01*
X157249500Y-70242351D01*
X157281522Y-70444534D01*
X157344781Y-70639223D01*
X157437715Y-70821613D01*
X157558028Y-70987213D01*
X157702786Y-71131971D01*
X157814193Y-71212911D01*
X157868390Y-71252287D01*
X157984607Y-71311503D01*
X158050776Y-71345218D01*
X158050778Y-71345218D01*
X158050781Y-71345220D01*
X158132300Y-71371707D01*
X158245465Y-71408477D01*
X158346557Y-71424488D01*
X158447648Y-71440500D01*
X158447649Y-71440500D01*
X158652351Y-71440500D01*
X158652352Y-71440500D01*
X158854534Y-71408477D01*
X159049219Y-71345220D01*
X159231610Y-71252287D01*
X159341278Y-71172609D01*
X159397213Y-71131971D01*
X159397215Y-71131968D01*
X159397219Y-71131966D01*
X159541966Y-70987219D01*
X159541968Y-70987215D01*
X159541971Y-70987213D01*
X159594732Y-70914590D01*
X159662287Y-70821610D01*
X159755220Y-70639219D01*
X159818477Y-70444534D01*
X159850500Y-70242352D01*
X159850500Y-70037648D01*
X160299500Y-70037648D01*
X160299500Y-70242351D01*
X160331522Y-70444534D01*
X160394781Y-70639223D01*
X160487715Y-70821613D01*
X160608028Y-70987213D01*
X160752786Y-71131971D01*
X160864193Y-71212911D01*
X160918390Y-71252287D01*
X161034607Y-71311503D01*
X161100776Y-71345218D01*
X161100778Y-71345218D01*
X161100781Y-71345220D01*
X161182300Y-71371707D01*
X161295465Y-71408477D01*
X161396557Y-71424488D01*
X161497648Y-71440500D01*
X161497649Y-71440500D01*
X161702351Y-71440500D01*
X161702352Y-71440500D01*
X161904534Y-71408477D01*
X162099219Y-71345220D01*
X162281610Y-71252287D01*
X162391278Y-71172609D01*
X162447213Y-71131971D01*
X162447215Y-71131968D01*
X162447219Y-71131966D01*
X162591966Y-70987219D01*
X162591968Y-70987215D01*
X162591971Y-70987213D01*
X162644732Y-70914590D01*
X162712287Y-70821610D01*
X162805220Y-70639219D01*
X162868477Y-70444534D01*
X162900500Y-70242352D01*
X162900500Y-70037648D01*
X163369500Y-70037648D01*
X163369500Y-70242351D01*
X163401522Y-70444534D01*
X163464781Y-70639223D01*
X163557715Y-70821613D01*
X163678028Y-70987213D01*
X163822786Y-71131971D01*
X163934193Y-71212911D01*
X163988390Y-71252287D01*
X164104607Y-71311503D01*
X164170776Y-71345218D01*
X164170778Y-71345218D01*
X164170781Y-71345220D01*
X164252300Y-71371707D01*
X164365465Y-71408477D01*
X164466557Y-71424488D01*
X164567648Y-71440500D01*
X164567649Y-71440500D01*
X164772351Y-71440500D01*
X164772352Y-71440500D01*
X164974534Y-71408477D01*
X165169219Y-71345220D01*
X165351610Y-71252287D01*
X165461278Y-71172609D01*
X165517213Y-71131971D01*
X165517215Y-71131968D01*
X165517219Y-71131966D01*
X165661966Y-70987219D01*
X165661968Y-70987215D01*
X165661971Y-70987213D01*
X165714732Y-70914590D01*
X165782287Y-70821610D01*
X165875220Y-70639219D01*
X165938477Y-70444534D01*
X165970500Y-70242352D01*
X165970500Y-70037648D01*
X166419500Y-70037648D01*
X166419500Y-70242351D01*
X166451522Y-70444534D01*
X166514781Y-70639223D01*
X166607715Y-70821613D01*
X166728028Y-70987213D01*
X166872786Y-71131971D01*
X166984193Y-71212911D01*
X167038390Y-71252287D01*
X167154607Y-71311503D01*
X167220776Y-71345218D01*
X167220778Y-71345218D01*
X167220781Y-71345220D01*
X167302300Y-71371707D01*
X167415465Y-71408477D01*
X167516557Y-71424488D01*
X167617648Y-71440500D01*
X167617649Y-71440500D01*
X167822351Y-71440500D01*
X167822352Y-71440500D01*
X168024534Y-71408477D01*
X168219219Y-71345220D01*
X168401610Y-71252287D01*
X168511278Y-71172609D01*
X168567213Y-71131971D01*
X168567215Y-71131968D01*
X168567219Y-71131966D01*
X168711966Y-70987219D01*
X168711968Y-70987215D01*
X168711971Y-70987213D01*
X168764732Y-70914590D01*
X168832287Y-70821610D01*
X168925220Y-70639219D01*
X168988477Y-70444534D01*
X169020500Y-70242352D01*
X169020500Y-70037648D01*
X169509500Y-70037648D01*
X169509500Y-70242351D01*
X169541522Y-70444534D01*
X169604781Y-70639223D01*
X169697715Y-70821613D01*
X169818028Y-70987213D01*
X169962786Y-71131971D01*
X170074193Y-71212911D01*
X170128390Y-71252287D01*
X170244607Y-71311503D01*
X170310776Y-71345218D01*
X170310778Y-71345218D01*
X170310781Y-71345220D01*
X170392300Y-71371707D01*
X170505465Y-71408477D01*
X170606557Y-71424488D01*
X170707648Y-71440500D01*
X170707649Y-71440500D01*
X170912351Y-71440500D01*
X170912352Y-71440500D01*
X171114534Y-71408477D01*
X171309219Y-71345220D01*
X171491610Y-71252287D01*
X171601278Y-71172609D01*
X171657213Y-71131971D01*
X171657215Y-71131968D01*
X171657219Y-71131966D01*
X171801966Y-70987219D01*
X171801968Y-70987215D01*
X171801971Y-70987213D01*
X171854732Y-70914590D01*
X171922287Y-70821610D01*
X172015220Y-70639219D01*
X172078477Y-70444534D01*
X172110500Y-70242352D01*
X172110500Y-70037648D01*
X172599500Y-70037648D01*
X172599500Y-70242351D01*
X172631522Y-70444534D01*
X172694781Y-70639223D01*
X172787715Y-70821613D01*
X172908028Y-70987213D01*
X173052786Y-71131971D01*
X173164193Y-71212911D01*
X173218390Y-71252287D01*
X173334607Y-71311503D01*
X173400776Y-71345218D01*
X173400778Y-71345218D01*
X173400781Y-71345220D01*
X173482300Y-71371707D01*
X173595465Y-71408477D01*
X173696557Y-71424488D01*
X173797648Y-71440500D01*
X173797649Y-71440500D01*
X174002351Y-71440500D01*
X174002352Y-71440500D01*
X174204534Y-71408477D01*
X174399219Y-71345220D01*
X174581610Y-71252287D01*
X174691278Y-71172609D01*
X174747213Y-71131971D01*
X174747215Y-71131968D01*
X174747219Y-71131966D01*
X174891966Y-70987219D01*
X174891968Y-70987215D01*
X174891971Y-70987213D01*
X174944732Y-70914590D01*
X175012287Y-70821610D01*
X175105220Y-70639219D01*
X175168477Y-70444534D01*
X175200500Y-70242352D01*
X175200500Y-70037648D01*
X175168477Y-69835466D01*
X175105220Y-69640781D01*
X175105218Y-69640778D01*
X175105218Y-69640776D01*
X175071503Y-69574607D01*
X175012287Y-69458390D01*
X175004556Y-69447749D01*
X174891971Y-69292786D01*
X174747213Y-69148028D01*
X174581613Y-69027715D01*
X174581612Y-69027714D01*
X174581610Y-69027713D01*
X174524653Y-68998691D01*
X174399223Y-68934781D01*
X174204534Y-68871522D01*
X174029995Y-68843878D01*
X174002352Y-68839500D01*
X173797648Y-68839500D01*
X173773329Y-68843351D01*
X173595465Y-68871522D01*
X173400776Y-68934781D01*
X173218386Y-69027715D01*
X173052786Y-69148028D01*
X172908028Y-69292786D01*
X172787715Y-69458386D01*
X172694781Y-69640776D01*
X172631522Y-69835465D01*
X172599500Y-70037648D01*
X172110500Y-70037648D01*
X172078477Y-69835466D01*
X172015220Y-69640781D01*
X172015218Y-69640778D01*
X172015218Y-69640776D01*
X171981503Y-69574607D01*
X171922287Y-69458390D01*
X171914556Y-69447749D01*
X171801971Y-69292786D01*
X171657213Y-69148028D01*
X171491613Y-69027715D01*
X171491612Y-69027714D01*
X171491610Y-69027713D01*
X171434653Y-68998691D01*
X171309223Y-68934781D01*
X171114534Y-68871522D01*
X170939995Y-68843878D01*
X170912352Y-68839500D01*
X170707648Y-68839500D01*
X170683329Y-68843351D01*
X170505465Y-68871522D01*
X170310776Y-68934781D01*
X170128386Y-69027715D01*
X169962786Y-69148028D01*
X169818028Y-69292786D01*
X169697715Y-69458386D01*
X169604781Y-69640776D01*
X169541522Y-69835465D01*
X169509500Y-70037648D01*
X169020500Y-70037648D01*
X168988477Y-69835466D01*
X168925220Y-69640781D01*
X168925218Y-69640778D01*
X168925218Y-69640776D01*
X168891503Y-69574607D01*
X168832287Y-69458390D01*
X168824556Y-69447749D01*
X168711971Y-69292786D01*
X168567213Y-69148028D01*
X168401613Y-69027715D01*
X168401612Y-69027714D01*
X168401610Y-69027713D01*
X168344653Y-68998691D01*
X168219223Y-68934781D01*
X168024534Y-68871522D01*
X167849995Y-68843878D01*
X167822352Y-68839500D01*
X167617648Y-68839500D01*
X167593329Y-68843351D01*
X167415465Y-68871522D01*
X167220776Y-68934781D01*
X167038386Y-69027715D01*
X166872786Y-69148028D01*
X166728028Y-69292786D01*
X166607715Y-69458386D01*
X166514781Y-69640776D01*
X166451522Y-69835465D01*
X166419500Y-70037648D01*
X165970500Y-70037648D01*
X165938477Y-69835466D01*
X165875220Y-69640781D01*
X165875218Y-69640778D01*
X165875218Y-69640776D01*
X165841503Y-69574607D01*
X165782287Y-69458390D01*
X165774556Y-69447749D01*
X165661971Y-69292786D01*
X165517213Y-69148028D01*
X165351613Y-69027715D01*
X165351612Y-69027714D01*
X165351610Y-69027713D01*
X165294653Y-68998691D01*
X165169223Y-68934781D01*
X164974534Y-68871522D01*
X164799995Y-68843878D01*
X164772352Y-68839500D01*
X164567648Y-68839500D01*
X164543329Y-68843351D01*
X164365465Y-68871522D01*
X164170776Y-68934781D01*
X163988386Y-69027715D01*
X163822786Y-69148028D01*
X163678028Y-69292786D01*
X163557715Y-69458386D01*
X163464781Y-69640776D01*
X163401522Y-69835465D01*
X163369500Y-70037648D01*
X162900500Y-70037648D01*
X162868477Y-69835466D01*
X162805220Y-69640781D01*
X162805218Y-69640778D01*
X162805218Y-69640776D01*
X162771503Y-69574607D01*
X162712287Y-69458390D01*
X162704556Y-69447749D01*
X162591971Y-69292786D01*
X162447213Y-69148028D01*
X162281613Y-69027715D01*
X162281612Y-69027714D01*
X162281610Y-69027713D01*
X162224653Y-68998691D01*
X162099223Y-68934781D01*
X161904534Y-68871522D01*
X161729995Y-68843878D01*
X161702352Y-68839500D01*
X161497648Y-68839500D01*
X161473329Y-68843351D01*
X161295465Y-68871522D01*
X161100776Y-68934781D01*
X160918386Y-69027715D01*
X160752786Y-69148028D01*
X160608028Y-69292786D01*
X160487715Y-69458386D01*
X160394781Y-69640776D01*
X160331522Y-69835465D01*
X160299500Y-70037648D01*
X159850500Y-70037648D01*
X159818477Y-69835466D01*
X159755220Y-69640781D01*
X159755218Y-69640778D01*
X159755218Y-69640776D01*
X159721503Y-69574607D01*
X159662287Y-69458390D01*
X159654556Y-69447749D01*
X159541971Y-69292786D01*
X159397213Y-69148028D01*
X159231613Y-69027715D01*
X159231612Y-69027714D01*
X159231610Y-69027713D01*
X159174653Y-68998691D01*
X159049223Y-68934781D01*
X158854534Y-68871522D01*
X158679995Y-68843878D01*
X158652352Y-68839500D01*
X158447648Y-68839500D01*
X158423329Y-68843351D01*
X158245465Y-68871522D01*
X158050776Y-68934781D01*
X157868386Y-69027715D01*
X157702786Y-69148028D01*
X157558028Y-69292786D01*
X157437715Y-69458386D01*
X157344781Y-69640776D01*
X157281522Y-69835465D01*
X157249500Y-70037648D01*
X156820500Y-70037648D01*
X156788477Y-69835466D01*
X156725220Y-69640781D01*
X156725218Y-69640778D01*
X156725218Y-69640776D01*
X156691503Y-69574607D01*
X156632287Y-69458390D01*
X156624556Y-69447749D01*
X156511971Y-69292786D01*
X156367213Y-69148028D01*
X156201613Y-69027715D01*
X156201612Y-69027714D01*
X156201610Y-69027713D01*
X156144653Y-68998691D01*
X156019223Y-68934781D01*
X155824534Y-68871522D01*
X155649995Y-68843878D01*
X155622352Y-68839500D01*
X155417648Y-68839500D01*
X155393329Y-68843351D01*
X155215465Y-68871522D01*
X155020776Y-68934781D01*
X154838386Y-69027715D01*
X154672786Y-69148028D01*
X154528028Y-69292786D01*
X154407715Y-69458386D01*
X154314781Y-69640776D01*
X154251522Y-69835465D01*
X154219500Y-70037648D01*
X153720500Y-70037648D01*
X153688477Y-69835466D01*
X153625220Y-69640781D01*
X153625218Y-69640778D01*
X153625218Y-69640776D01*
X153591503Y-69574607D01*
X153532287Y-69458390D01*
X153524556Y-69447749D01*
X153411971Y-69292786D01*
X153267213Y-69148028D01*
X153101613Y-69027715D01*
X153101612Y-69027714D01*
X153101610Y-69027713D01*
X153044653Y-68998691D01*
X152919223Y-68934781D01*
X152724534Y-68871522D01*
X152549995Y-68843878D01*
X152522352Y-68839500D01*
X152317648Y-68839500D01*
X152293329Y-68843351D01*
X152115465Y-68871522D01*
X151920776Y-68934781D01*
X151738386Y-69027715D01*
X151572786Y-69148028D01*
X151428028Y-69292786D01*
X151307715Y-69458386D01*
X151214781Y-69640776D01*
X151151522Y-69835465D01*
X151119500Y-70037648D01*
X150600500Y-70037648D01*
X150568477Y-69835466D01*
X150505220Y-69640781D01*
X150505218Y-69640778D01*
X150505218Y-69640776D01*
X150471503Y-69574607D01*
X150412287Y-69458390D01*
X150404556Y-69447749D01*
X150291971Y-69292786D01*
X150147213Y-69148028D01*
X149981613Y-69027715D01*
X149981612Y-69027714D01*
X149981610Y-69027713D01*
X149924653Y-68998691D01*
X149799223Y-68934781D01*
X149604534Y-68871522D01*
X149429995Y-68843878D01*
X149402352Y-68839500D01*
X149197648Y-68839500D01*
X149173329Y-68843351D01*
X148995465Y-68871522D01*
X148800776Y-68934781D01*
X148618386Y-69027715D01*
X148452786Y-69148028D01*
X148308028Y-69292786D01*
X148187715Y-69458386D01*
X148094781Y-69640776D01*
X148031522Y-69835465D01*
X147999500Y-70037648D01*
X147510500Y-70037648D01*
X147478477Y-69835466D01*
X147415220Y-69640781D01*
X147415218Y-69640778D01*
X147415218Y-69640776D01*
X147381503Y-69574607D01*
X147322287Y-69458390D01*
X147314556Y-69447749D01*
X147201971Y-69292786D01*
X147057213Y-69148028D01*
X146891613Y-69027715D01*
X146891612Y-69027714D01*
X146891610Y-69027713D01*
X146834653Y-68998691D01*
X146709223Y-68934781D01*
X146514534Y-68871522D01*
X146339995Y-68843878D01*
X146312352Y-68839500D01*
X146107648Y-68839500D01*
X146083329Y-68843351D01*
X145905465Y-68871522D01*
X145710776Y-68934781D01*
X145528386Y-69027715D01*
X145362786Y-69148028D01*
X145218028Y-69292786D01*
X145097715Y-69458386D01*
X145004781Y-69640776D01*
X144941522Y-69835465D01*
X144909500Y-70037648D01*
X144440500Y-70037648D01*
X144408477Y-69835466D01*
X144345220Y-69640781D01*
X144345218Y-69640778D01*
X144345218Y-69640776D01*
X144311503Y-69574607D01*
X144252287Y-69458390D01*
X144244556Y-69447749D01*
X144131971Y-69292786D01*
X143987213Y-69148028D01*
X143821613Y-69027715D01*
X143821612Y-69027714D01*
X143821610Y-69027713D01*
X143764653Y-68998691D01*
X143639223Y-68934781D01*
X143444534Y-68871522D01*
X143269995Y-68843878D01*
X143242352Y-68839500D01*
X143037648Y-68839500D01*
X143013329Y-68843351D01*
X142835465Y-68871522D01*
X142640776Y-68934781D01*
X142458386Y-69027715D01*
X142292786Y-69148028D01*
X142148028Y-69292786D01*
X142027715Y-69458386D01*
X141934781Y-69640776D01*
X141871522Y-69835465D01*
X141839500Y-70037648D01*
X141370500Y-70037648D01*
X141338477Y-69835466D01*
X141275220Y-69640781D01*
X141275218Y-69640778D01*
X141275218Y-69640776D01*
X141241503Y-69574607D01*
X141182287Y-69458390D01*
X141174556Y-69447749D01*
X141061971Y-69292786D01*
X140917213Y-69148028D01*
X140751613Y-69027715D01*
X140751612Y-69027714D01*
X140751610Y-69027713D01*
X140694653Y-68998691D01*
X140569223Y-68934781D01*
X140374534Y-68871522D01*
X140199995Y-68843878D01*
X140172352Y-68839500D01*
X139967648Y-68839500D01*
X139943329Y-68843351D01*
X139765465Y-68871522D01*
X139570776Y-68934781D01*
X139388386Y-69027715D01*
X139222786Y-69148028D01*
X139078028Y-69292786D01*
X138957715Y-69458386D01*
X138864781Y-69640776D01*
X138801522Y-69835465D01*
X138769500Y-70037648D01*
X138310500Y-70037648D01*
X138278477Y-69835466D01*
X138215220Y-69640781D01*
X138215218Y-69640778D01*
X138215218Y-69640776D01*
X138181503Y-69574607D01*
X138122287Y-69458390D01*
X138114556Y-69447749D01*
X138001971Y-69292786D01*
X137857213Y-69148028D01*
X137691613Y-69027715D01*
X137691612Y-69027714D01*
X137691610Y-69027713D01*
X137634653Y-68998691D01*
X137509223Y-68934781D01*
X137314534Y-68871522D01*
X137139995Y-68843878D01*
X137112352Y-68839500D01*
X136907648Y-68839500D01*
X136883329Y-68843351D01*
X136705465Y-68871522D01*
X136510776Y-68934781D01*
X136328386Y-69027715D01*
X136162786Y-69148028D01*
X136018028Y-69292786D01*
X135897715Y-69458386D01*
X135804781Y-69640776D01*
X135741522Y-69835465D01*
X135709500Y-70037648D01*
X135220500Y-70037648D01*
X135188477Y-69835466D01*
X135125220Y-69640781D01*
X135125218Y-69640778D01*
X135125218Y-69640776D01*
X135091503Y-69574607D01*
X135032287Y-69458390D01*
X135024556Y-69447749D01*
X134911971Y-69292786D01*
X134767213Y-69148028D01*
X134601613Y-69027715D01*
X134601612Y-69027714D01*
X134601610Y-69027713D01*
X134544653Y-68998691D01*
X134419223Y-68934781D01*
X134224534Y-68871522D01*
X134049995Y-68843878D01*
X134022352Y-68839500D01*
X133817648Y-68839500D01*
X133793329Y-68843351D01*
X133615465Y-68871522D01*
X133420776Y-68934781D01*
X133238386Y-69027715D01*
X133072786Y-69148028D01*
X132928028Y-69292786D01*
X132807715Y-69458386D01*
X132714781Y-69640776D01*
X132651522Y-69835465D01*
X132619500Y-70037648D01*
X132150500Y-70037648D01*
X132118477Y-69835466D01*
X132055220Y-69640781D01*
X132055218Y-69640778D01*
X132055218Y-69640776D01*
X132021503Y-69574607D01*
X131962287Y-69458390D01*
X131954556Y-69447749D01*
X131841971Y-69292786D01*
X131697213Y-69148028D01*
X131531613Y-69027715D01*
X131531612Y-69027714D01*
X131531610Y-69027713D01*
X131474653Y-68998691D01*
X131349223Y-68934781D01*
X131154534Y-68871522D01*
X130979995Y-68843878D01*
X130952352Y-68839500D01*
X130747648Y-68839500D01*
X130723329Y-68843351D01*
X130545465Y-68871522D01*
X130350776Y-68934781D01*
X130168386Y-69027715D01*
X130002786Y-69148028D01*
X129858028Y-69292786D01*
X129737715Y-69458386D01*
X129644781Y-69640776D01*
X129581522Y-69835465D01*
X129549500Y-70037648D01*
X129080500Y-70037648D01*
X129048477Y-69835466D01*
X128985220Y-69640781D01*
X128985218Y-69640778D01*
X128985218Y-69640776D01*
X128951503Y-69574607D01*
X128892287Y-69458390D01*
X128884556Y-69447749D01*
X128771971Y-69292786D01*
X128627213Y-69148028D01*
X128461613Y-69027715D01*
X128461612Y-69027714D01*
X128461610Y-69027713D01*
X128404653Y-68998691D01*
X128279223Y-68934781D01*
X128084534Y-68871522D01*
X127909995Y-68843878D01*
X127882352Y-68839500D01*
X127677648Y-68839500D01*
X127653329Y-68843351D01*
X127475465Y-68871522D01*
X127280776Y-68934781D01*
X127098386Y-69027715D01*
X126932786Y-69148028D01*
X126788028Y-69292786D01*
X126667715Y-69458386D01*
X126574781Y-69640776D01*
X126511522Y-69835465D01*
X126479500Y-70037648D01*
X125980500Y-70037648D01*
X125948477Y-69835466D01*
X125885220Y-69640781D01*
X125885218Y-69640778D01*
X125885218Y-69640776D01*
X125851503Y-69574607D01*
X125792287Y-69458390D01*
X125784556Y-69447749D01*
X125671971Y-69292786D01*
X125527213Y-69148028D01*
X125361613Y-69027715D01*
X125361612Y-69027714D01*
X125361610Y-69027713D01*
X125304653Y-68998691D01*
X125179223Y-68934781D01*
X124984534Y-68871522D01*
X124809995Y-68843878D01*
X124782352Y-68839500D01*
X124577648Y-68839500D01*
X124553329Y-68843351D01*
X124375465Y-68871522D01*
X124180776Y-68934781D01*
X123998386Y-69027715D01*
X123832786Y-69148028D01*
X123688028Y-69292786D01*
X123567715Y-69458386D01*
X123474781Y-69640776D01*
X123411522Y-69835465D01*
X123379500Y-70037648D01*
X122910500Y-70037648D01*
X122878477Y-69835466D01*
X122815220Y-69640781D01*
X122815218Y-69640778D01*
X122815218Y-69640776D01*
X122781503Y-69574607D01*
X122722287Y-69458390D01*
X122714556Y-69447749D01*
X122601971Y-69292786D01*
X122457213Y-69148028D01*
X122291613Y-69027715D01*
X122291612Y-69027714D01*
X122291610Y-69027713D01*
X122234653Y-68998691D01*
X122109223Y-68934781D01*
X121914534Y-68871522D01*
X121739995Y-68843878D01*
X121712352Y-68839500D01*
X121507648Y-68839500D01*
X121483329Y-68843351D01*
X121305465Y-68871522D01*
X121110776Y-68934781D01*
X120928386Y-69027715D01*
X120762786Y-69148028D01*
X120618028Y-69292786D01*
X120497715Y-69458386D01*
X120404781Y-69640776D01*
X120341522Y-69835465D01*
X120309500Y-70037648D01*
X113615500Y-70037648D01*
X113615500Y-52653950D01*
X113635185Y-52586911D01*
X113687989Y-52541156D01*
X113739500Y-52529950D01*
X155811239Y-52529950D01*
X155838316Y-52537900D01*
G37*
G04 #@! TD.AperFunction*
G04 #@! TA.AperFunction,Conductor*
G36*
X175242002Y-53409494D02*
G01*
X175272721Y-53472249D01*
X175274500Y-53493180D01*
X175274500Y-53586396D01*
X175305261Y-53741039D01*
X175305264Y-53741051D01*
X175365602Y-53886722D01*
X175365609Y-53886735D01*
X175453210Y-54017838D01*
X175453213Y-54017842D01*
X175564707Y-54129336D01*
X175564711Y-54129339D01*
X175695814Y-54216940D01*
X175695827Y-54216947D01*
X175785729Y-54254185D01*
X175841503Y-54277287D01*
X175897130Y-54288352D01*
X175996849Y-54308188D01*
X176058760Y-54340573D01*
X176060339Y-54342124D01*
X176732589Y-55014374D01*
X176732599Y-55014385D01*
X176736929Y-55018715D01*
X176736930Y-55018716D01*
X176848734Y-55130520D01*
X176935545Y-55180639D01*
X176935547Y-55180641D01*
X176985663Y-55209576D01*
X176985665Y-55209577D01*
X177138392Y-55250500D01*
X177138393Y-55250500D01*
X210924903Y-55250500D01*
X210954343Y-55259144D01*
X210984330Y-55265668D01*
X210989345Y-55269422D01*
X210991942Y-55270185D01*
X211012584Y-55286819D01*
X211067162Y-55341397D01*
X211100647Y-55402720D01*
X211095663Y-55472412D01*
X211067162Y-55516759D01*
X210960213Y-55623707D01*
X210960210Y-55623711D01*
X210872609Y-55754814D01*
X210872602Y-55754827D01*
X210812264Y-55900498D01*
X210812261Y-55900510D01*
X210781500Y-56055153D01*
X210781500Y-56212846D01*
X210812261Y-56367489D01*
X210812264Y-56367501D01*
X210872602Y-56513172D01*
X210872609Y-56513185D01*
X210946649Y-56623993D01*
X210967527Y-56690671D01*
X210949042Y-56758051D01*
X210946654Y-56761768D01*
X210940610Y-56770814D01*
X210940602Y-56770828D01*
X210880264Y-56916498D01*
X210880261Y-56916510D01*
X210849500Y-57071153D01*
X210849500Y-57228846D01*
X210880261Y-57383489D01*
X210880264Y-57383501D01*
X210940602Y-57529171D01*
X210940609Y-57529184D01*
X210980650Y-57589109D01*
X211001528Y-57655787D01*
X210983043Y-57723167D01*
X210980650Y-57726891D01*
X210940609Y-57786815D01*
X210940602Y-57786828D01*
X210880264Y-57932498D01*
X210880261Y-57932510D01*
X210849500Y-58087153D01*
X210849500Y-58244846D01*
X210880261Y-58399489D01*
X210880264Y-58399501D01*
X210940602Y-58545171D01*
X210940609Y-58545184D01*
X210980650Y-58605109D01*
X211001528Y-58671787D01*
X210983043Y-58739167D01*
X210980650Y-58742891D01*
X210940609Y-58802815D01*
X210940602Y-58802828D01*
X210880264Y-58948498D01*
X210880261Y-58948510D01*
X210849500Y-59103153D01*
X210849500Y-59260846D01*
X210880261Y-59415489D01*
X210880264Y-59415501D01*
X210940602Y-59561172D01*
X210940609Y-59561185D01*
X211028210Y-59692288D01*
X211028213Y-59692292D01*
X211139707Y-59803786D01*
X211139711Y-59803789D01*
X211270814Y-59891390D01*
X211270827Y-59891397D01*
X211416498Y-59951735D01*
X211416503Y-59951737D01*
X211526987Y-59973713D01*
X211549691Y-59978230D01*
X211611602Y-60010615D01*
X211646176Y-60071330D01*
X211649500Y-60099847D01*
X211649500Y-64343508D01*
X211629815Y-64410547D01*
X211628602Y-64412399D01*
X211605609Y-64446809D01*
X211605602Y-64446822D01*
X211545264Y-64592493D01*
X211545261Y-64592505D01*
X211514500Y-64747148D01*
X211514500Y-64901498D01*
X211494815Y-64968537D01*
X211442011Y-65014292D01*
X211390500Y-65025498D01*
X181101096Y-65025498D01*
X181034057Y-65005813D01*
X181013415Y-64989179D01*
X176034851Y-60010615D01*
X171012415Y-54988180D01*
X170978931Y-54926858D01*
X170983915Y-54857166D01*
X171025787Y-54801233D01*
X171091251Y-54776816D01*
X171100097Y-54776500D01*
X173075011Y-54776500D01*
X173075027Y-54776501D01*
X173082623Y-54776501D01*
X173240734Y-54776501D01*
X173240737Y-54776501D01*
X173393465Y-54735577D01*
X173443584Y-54706639D01*
X173530396Y-54656520D01*
X173642200Y-54544716D01*
X173642200Y-54544714D01*
X173652408Y-54534507D01*
X173652409Y-54534504D01*
X174444792Y-53742122D01*
X174506113Y-53708639D01*
X174508280Y-53708188D01*
X174575775Y-53694762D01*
X174663627Y-53677287D01*
X174809309Y-53616944D01*
X174940419Y-53529339D01*
X175051919Y-53417839D01*
X175051920Y-53417836D01*
X175054644Y-53414519D01*
X175112388Y-53375182D01*
X175182233Y-53373309D01*
X175242002Y-53409494D01*
G37*
G04 #@! TD.AperFunction*
G04 #@! TA.AperFunction,Conductor*
G36*
X186389648Y-52549635D02*
G01*
X186435403Y-52602439D01*
X186445347Y-52671597D01*
X186416322Y-52735153D01*
X186410290Y-52741631D01*
X186322213Y-52829707D01*
X186322210Y-52829711D01*
X186234609Y-52960814D01*
X186234602Y-52960827D01*
X186174264Y-53106498D01*
X186174261Y-53106510D01*
X186143500Y-53261153D01*
X186143500Y-53418846D01*
X186174261Y-53573489D01*
X186174264Y-53573501D01*
X186234602Y-53719172D01*
X186234609Y-53719185D01*
X186325595Y-53855354D01*
X186323568Y-53856708D01*
X186346689Y-53911142D01*
X186334899Y-53980010D01*
X186287748Y-54031571D01*
X186223523Y-54049500D01*
X177517547Y-54049500D01*
X177450508Y-54029815D01*
X177429866Y-54013181D01*
X176909574Y-53492889D01*
X176876089Y-53431566D01*
X176875638Y-53429399D01*
X176849067Y-53295821D01*
X176844737Y-53274053D01*
X176820205Y-53214827D01*
X176784397Y-53128377D01*
X176784390Y-53128364D01*
X176696789Y-52997261D01*
X176696786Y-52997257D01*
X176585292Y-52885763D01*
X176585288Y-52885760D01*
X176454185Y-52798159D01*
X176454172Y-52798152D01*
X176382610Y-52768511D01*
X176328206Y-52724671D01*
X176306141Y-52658376D01*
X176323420Y-52590677D01*
X176374557Y-52543066D01*
X176430062Y-52529950D01*
X186322609Y-52529950D01*
X186389648Y-52549635D01*
G37*
G04 #@! TD.AperFunction*
M02*
