M48
; DRILL file {KiCad 9.0.1} date 2025-06-29T19:09:28+1200
; FORMAT={-:-/ absolute / metric / decimal}
; #@! TF.CreationDate,2025-06-29T19:09:28+12:00
; #@! TF.GenerationSoftware,Kicad,Pcbnew,9.0.1
; #@! TF.FileFunction,Plated,1,4,PTH
FMAT,2
METRIC
; #@! TA.AperFunction,Plated,PTH,ViaDrill
T1C0.300
%
G90
G05
T1
X114.3Y-79.248
X114.3Y-80.518
X115.316Y-84.074
X115.316Y-86.614
X115.316Y-89.154
X118.11Y-92.926
X118.11Y-93.726
X126.7Y-94.55
X131.76Y-92.87
X136.15Y-53.6
X141.075Y-54.225
X141.425Y-93.675
X144.275Y-93.125
X144.95Y-94.55
X149.55Y-93.35
X151.4Y-93.325
X152.65Y-92.975
X155.475Y-92.6
X155.75Y-53.71
X156.45Y-94.161
X158.025Y-94.562
X158.5Y-92.85
X159.025Y-53.309
X160.75Y-53.309
X160.9Y-93.675
X162.05Y-53.675
X162.798Y-53.309
X166.3Y-53.875
X168.2Y-53.875
X169.049Y-53.875
X169.32Y-92.89
X171.107Y-53.309
X171.9Y-92.9
X172.675Y-53.575
X174.43Y-52.908
X176.075Y-53.508
X178.6Y-92.958
X179.832Y-55.372
X179.832Y-55.88
X180.225Y-93.16
X180.85Y-53.65
X181.35Y-55.626
X182.372Y-92.71
X183.862Y-92.682
X184.658Y-92.759
X185.287Y-55.626
X186.944Y-53.34
X187.47Y-92.54
X189.83Y-53.594
X190.754Y-53.594
X191.77Y-53.594
X192.57Y-53.594
X193.294Y-52.908
X194.75Y-93.05
X207.125Y-92.575
X210.825Y-73.277
X211.41Y-92.99
X211.575Y-72.677
X211.582Y-56.134
X211.65Y-57.15
X211.65Y-58.166
X211.65Y-59.182
X212.175Y-71.882
X212.275Y-66.425
X212.315Y-64.826
X212.315Y-65.626
M30
