%TF.GenerationSoftware,KiCad,Pcbnew,9.0.1*%
%TF.CreationDate,2025-06-29T19:09:28+12:00*%
%TF.ProjectId,pdp-11-colour,7064702d-3131-42d6-936f-6c6f75722e6b,rev?*%
%TF.SameCoordinates,Original*%
%TF.FileFunction,Drillmap*%
%TF.FilePolarity,Positive*%
%FSLAX45Y45*%
G04 Gerber Fmt 4.5, Leading zero omitted, Abs format (unit mm)*
G04 Created by KiCad (PCBNEW 9.0.1) date 2025-06-29 19:09:28*
%MOMM*%
%LPD*%
G01*
G04 APERTURE LIST*
%ADD10C,0.050000*%
%ADD11C,0.200000*%
%ADD12C,0.210000*%
G04 APERTURE END LIST*
D10*
X12225000Y-7792000D02*
G75*
G02*
X11805000Y-7792000I-210000J0D01*
G01*
X11805000Y-7792000D02*
G75*
G02*
X12225000Y-7792000I210000J0D01*
G01*
X21311500Y-9536245D02*
X21311500Y-5202945D01*
X11311500Y-9536245D02*
X11311500Y-5202945D01*
X21311500Y-5202945D02*
X11311500Y-5202945D01*
X11311500Y-9536245D02*
X21311500Y-9536245D01*
D11*
D12*
X12056000Y-6909000D02*
X12266000Y-7119000D01*
X12266000Y-6909000D02*
X12056000Y-7119000D01*
X12363000Y-6909000D02*
X12573000Y-7119000D01*
X12573000Y-6909000D02*
X12363000Y-7119000D01*
X12673000Y-6909000D02*
X12883000Y-7119000D01*
X12883000Y-6909000D02*
X12673000Y-7119000D01*
X12674000Y-7824000D02*
X12884000Y-8034000D01*
X12884000Y-7824000D02*
X12674000Y-8034000D01*
X12980000Y-6909000D02*
X13190000Y-7119000D01*
X13190000Y-6909000D02*
X12980000Y-7119000D01*
X12980000Y-7824000D02*
X13190000Y-8034000D01*
X13190000Y-7824000D02*
X12980000Y-8034000D01*
X13287000Y-6909000D02*
X13497000Y-7119000D01*
X13497000Y-6909000D02*
X13287000Y-7119000D01*
X13288000Y-7824000D02*
X13498000Y-8034000D01*
X13498000Y-7824000D02*
X13288000Y-8034000D01*
X13596000Y-6909000D02*
X13806000Y-7119000D01*
X13806000Y-6909000D02*
X13596000Y-7119000D01*
X13596000Y-7824000D02*
X13806000Y-8034000D01*
X13806000Y-7824000D02*
X13596000Y-8034000D01*
X13901000Y-7824000D02*
X14111000Y-8034000D01*
X14111000Y-7824000D02*
X13901000Y-8034000D01*
X13902000Y-6909000D02*
X14112000Y-7119000D01*
X14112000Y-6909000D02*
X13902000Y-7119000D01*
X14209000Y-6909000D02*
X14419000Y-7119000D01*
X14419000Y-6909000D02*
X14209000Y-7119000D01*
X14209000Y-7824000D02*
X14419000Y-8034000D01*
X14419000Y-7824000D02*
X14209000Y-8034000D01*
X14516000Y-6909000D02*
X14726000Y-7119000D01*
X14726000Y-6909000D02*
X14516000Y-7119000D01*
X14516000Y-7824000D02*
X14726000Y-8034000D01*
X14726000Y-7824000D02*
X14516000Y-8034000D01*
X14825000Y-6909000D02*
X15035000Y-7119000D01*
X15035000Y-6909000D02*
X14825000Y-7119000D01*
X14825000Y-7824000D02*
X15035000Y-8034000D01*
X15035000Y-7824000D02*
X14825000Y-8034000D01*
X15135000Y-7824000D02*
X15345000Y-8034000D01*
X15345000Y-7824000D02*
X15135000Y-8034000D01*
X15137000Y-6909000D02*
X15347000Y-7119000D01*
X15347000Y-6909000D02*
X15137000Y-7119000D01*
X15447000Y-6909000D02*
X15657000Y-7119000D01*
X15657000Y-6909000D02*
X15447000Y-7119000D01*
X15447000Y-7824000D02*
X15657000Y-8034000D01*
X15657000Y-7824000D02*
X15447000Y-8034000D01*
X15750000Y-6909000D02*
X15960000Y-7119000D01*
X15960000Y-6909000D02*
X15750000Y-7119000D01*
X15750000Y-7824000D02*
X15960000Y-8034000D01*
X15960000Y-7824000D02*
X15750000Y-8034000D01*
X16055000Y-6909000D02*
X16265000Y-7119000D01*
X16265000Y-6909000D02*
X16055000Y-7119000D01*
X16056000Y-7824000D02*
X16266000Y-8034000D01*
X16266000Y-7824000D02*
X16056000Y-8034000D01*
X16361000Y-7824000D02*
X16571000Y-8034000D01*
X16571000Y-7824000D02*
X16361000Y-8034000D01*
X16362000Y-6909000D02*
X16572000Y-7119000D01*
X16572000Y-6909000D02*
X16362000Y-7119000D01*
X16667000Y-6909000D02*
X16877000Y-7119000D01*
X16877000Y-6909000D02*
X16667000Y-7119000D01*
X16667000Y-7824000D02*
X16877000Y-8034000D01*
X16877000Y-7824000D02*
X16667000Y-8034000D01*
X16976000Y-6909000D02*
X17186000Y-7119000D01*
X17186000Y-6909000D02*
X16976000Y-7119000D01*
X16976000Y-7824000D02*
X17186000Y-8034000D01*
X17186000Y-7824000D02*
X16976000Y-8034000D01*
X17285000Y-6909000D02*
X17495000Y-7119000D01*
X17495000Y-6909000D02*
X17285000Y-7119000D01*
X17285000Y-7824000D02*
X17495000Y-8034000D01*
X17495000Y-7824000D02*
X17285000Y-8034000D01*
X18446371Y-7514000D02*
X18656371Y-7724000D01*
X18656371Y-7514000D02*
X18446371Y-7724000D01*
X18446371Y-7845000D02*
X18656371Y-8055000D01*
X18656371Y-7845000D02*
X18446371Y-8055000D01*
X19178371Y-7514000D02*
X19388371Y-7724000D01*
X19388371Y-7514000D02*
X19178371Y-7724000D01*
X19178371Y-7845000D02*
X19388371Y-8055000D01*
X19388371Y-7845000D02*
X19178371Y-8055000D01*
X19935371Y-7514000D02*
X20145371Y-7724000D01*
X20145371Y-7514000D02*
X19935371Y-7724000D01*
X19935371Y-7845000D02*
X20145371Y-8055000D01*
X20145371Y-7845000D02*
X19935371Y-8055000D01*
D11*
X11569777Y-9850229D02*
X11569777Y-9650229D01*
X11569777Y-9650229D02*
X11617396Y-9650229D01*
X11617396Y-9650229D02*
X11645967Y-9659753D01*
X11645967Y-9659753D02*
X11665015Y-9678800D01*
X11665015Y-9678800D02*
X11674539Y-9697848D01*
X11674539Y-9697848D02*
X11684062Y-9735943D01*
X11684062Y-9735943D02*
X11684062Y-9764515D01*
X11684062Y-9764515D02*
X11674539Y-9802610D01*
X11674539Y-9802610D02*
X11665015Y-9821657D01*
X11665015Y-9821657D02*
X11645967Y-9840705D01*
X11645967Y-9840705D02*
X11617396Y-9850229D01*
X11617396Y-9850229D02*
X11569777Y-9850229D01*
X11769777Y-9850229D02*
X11769777Y-9716895D01*
X11769777Y-9754991D02*
X11779301Y-9735943D01*
X11779301Y-9735943D02*
X11788824Y-9726419D01*
X11788824Y-9726419D02*
X11807872Y-9716895D01*
X11807872Y-9716895D02*
X11826920Y-9716895D01*
X11893586Y-9850229D02*
X11893586Y-9716895D01*
X11893586Y-9650229D02*
X11884062Y-9659753D01*
X11884062Y-9659753D02*
X11893586Y-9669276D01*
X11893586Y-9669276D02*
X11903110Y-9659753D01*
X11903110Y-9659753D02*
X11893586Y-9650229D01*
X11893586Y-9650229D02*
X11893586Y-9669276D01*
X12017396Y-9850229D02*
X11998348Y-9840705D01*
X11998348Y-9840705D02*
X11988824Y-9821657D01*
X11988824Y-9821657D02*
X11988824Y-9650229D01*
X12122158Y-9850229D02*
X12103110Y-9840705D01*
X12103110Y-9840705D02*
X12093586Y-9821657D01*
X12093586Y-9821657D02*
X12093586Y-9650229D01*
X12350729Y-9850229D02*
X12350729Y-9650229D01*
X12350729Y-9650229D02*
X12417396Y-9793086D01*
X12417396Y-9793086D02*
X12484062Y-9650229D01*
X12484062Y-9650229D02*
X12484062Y-9850229D01*
X12665015Y-9850229D02*
X12665015Y-9745467D01*
X12665015Y-9745467D02*
X12655491Y-9726419D01*
X12655491Y-9726419D02*
X12636443Y-9716895D01*
X12636443Y-9716895D02*
X12598348Y-9716895D01*
X12598348Y-9716895D02*
X12579301Y-9726419D01*
X12665015Y-9840705D02*
X12645967Y-9850229D01*
X12645967Y-9850229D02*
X12598348Y-9850229D01*
X12598348Y-9850229D02*
X12579301Y-9840705D01*
X12579301Y-9840705D02*
X12569777Y-9821657D01*
X12569777Y-9821657D02*
X12569777Y-9802610D01*
X12569777Y-9802610D02*
X12579301Y-9783562D01*
X12579301Y-9783562D02*
X12598348Y-9774038D01*
X12598348Y-9774038D02*
X12645967Y-9774038D01*
X12645967Y-9774038D02*
X12665015Y-9764515D01*
X12760253Y-9716895D02*
X12760253Y-9916895D01*
X12760253Y-9726419D02*
X12779301Y-9716895D01*
X12779301Y-9716895D02*
X12817396Y-9716895D01*
X12817396Y-9716895D02*
X12836443Y-9726419D01*
X12836443Y-9726419D02*
X12845967Y-9735943D01*
X12845967Y-9735943D02*
X12855491Y-9754991D01*
X12855491Y-9754991D02*
X12855491Y-9812134D01*
X12855491Y-9812134D02*
X12845967Y-9831181D01*
X12845967Y-9831181D02*
X12836443Y-9840705D01*
X12836443Y-9840705D02*
X12817396Y-9850229D01*
X12817396Y-9850229D02*
X12779301Y-9850229D01*
X12779301Y-9850229D02*
X12760253Y-9840705D01*
X12941205Y-9831181D02*
X12950729Y-9840705D01*
X12950729Y-9840705D02*
X12941205Y-9850229D01*
X12941205Y-9850229D02*
X12931682Y-9840705D01*
X12931682Y-9840705D02*
X12941205Y-9831181D01*
X12941205Y-9831181D02*
X12941205Y-9850229D01*
X12941205Y-9726419D02*
X12950729Y-9735943D01*
X12950729Y-9735943D02*
X12941205Y-9745467D01*
X12941205Y-9745467D02*
X12931682Y-9735943D01*
X12931682Y-9735943D02*
X12941205Y-9726419D01*
X12941205Y-9726419D02*
X12941205Y-9745467D01*
X11109000Y-10078745D02*
X11309000Y-10278745D01*
X11309000Y-10078745D02*
X11109000Y-10278745D01*
X11560253Y-10089276D02*
X11569777Y-10079753D01*
X11569777Y-10079753D02*
X11588824Y-10070229D01*
X11588824Y-10070229D02*
X11636443Y-10070229D01*
X11636443Y-10070229D02*
X11655491Y-10079753D01*
X11655491Y-10079753D02*
X11665015Y-10089276D01*
X11665015Y-10089276D02*
X11674539Y-10108324D01*
X11674539Y-10108324D02*
X11674539Y-10127372D01*
X11674539Y-10127372D02*
X11665015Y-10155943D01*
X11665015Y-10155943D02*
X11550729Y-10270229D01*
X11550729Y-10270229D02*
X11674539Y-10270229D01*
X11760253Y-10251181D02*
X11769777Y-10260705D01*
X11769777Y-10260705D02*
X11760253Y-10270229D01*
X11760253Y-10270229D02*
X11750729Y-10260705D01*
X11750729Y-10260705D02*
X11760253Y-10251181D01*
X11760253Y-10251181D02*
X11760253Y-10270229D01*
X11960253Y-10270229D02*
X11845967Y-10270229D01*
X11903110Y-10270229D02*
X11903110Y-10070229D01*
X11903110Y-10070229D02*
X11884062Y-10098800D01*
X11884062Y-10098800D02*
X11865015Y-10117848D01*
X11865015Y-10117848D02*
X11845967Y-10127372D01*
X12084062Y-10070229D02*
X12103110Y-10070229D01*
X12103110Y-10070229D02*
X12122158Y-10079753D01*
X12122158Y-10079753D02*
X12131682Y-10089276D01*
X12131682Y-10089276D02*
X12141205Y-10108324D01*
X12141205Y-10108324D02*
X12150729Y-10146419D01*
X12150729Y-10146419D02*
X12150729Y-10194038D01*
X12150729Y-10194038D02*
X12141205Y-10232134D01*
X12141205Y-10232134D02*
X12131682Y-10251181D01*
X12131682Y-10251181D02*
X12122158Y-10260705D01*
X12122158Y-10260705D02*
X12103110Y-10270229D01*
X12103110Y-10270229D02*
X12084062Y-10270229D01*
X12084062Y-10270229D02*
X12065015Y-10260705D01*
X12065015Y-10260705D02*
X12055491Y-10251181D01*
X12055491Y-10251181D02*
X12045967Y-10232134D01*
X12045967Y-10232134D02*
X12036443Y-10194038D01*
X12036443Y-10194038D02*
X12036443Y-10146419D01*
X12036443Y-10146419D02*
X12045967Y-10108324D01*
X12045967Y-10108324D02*
X12055491Y-10089276D01*
X12055491Y-10089276D02*
X12065015Y-10079753D01*
X12065015Y-10079753D02*
X12084062Y-10070229D01*
X12274539Y-10070229D02*
X12293586Y-10070229D01*
X12293586Y-10070229D02*
X12312634Y-10079753D01*
X12312634Y-10079753D02*
X12322158Y-10089276D01*
X12322158Y-10089276D02*
X12331682Y-10108324D01*
X12331682Y-10108324D02*
X12341205Y-10146419D01*
X12341205Y-10146419D02*
X12341205Y-10194038D01*
X12341205Y-10194038D02*
X12331682Y-10232134D01*
X12331682Y-10232134D02*
X12322158Y-10251181D01*
X12322158Y-10251181D02*
X12312634Y-10260705D01*
X12312634Y-10260705D02*
X12293586Y-10270229D01*
X12293586Y-10270229D02*
X12274539Y-10270229D01*
X12274539Y-10270229D02*
X12255491Y-10260705D01*
X12255491Y-10260705D02*
X12245967Y-10251181D01*
X12245967Y-10251181D02*
X12236443Y-10232134D01*
X12236443Y-10232134D02*
X12226920Y-10194038D01*
X12226920Y-10194038D02*
X12226920Y-10146419D01*
X12226920Y-10146419D02*
X12236443Y-10108324D01*
X12236443Y-10108324D02*
X12245967Y-10089276D01*
X12245967Y-10089276D02*
X12255491Y-10079753D01*
X12255491Y-10079753D02*
X12274539Y-10070229D01*
X12426920Y-10270229D02*
X12426920Y-10136895D01*
X12426920Y-10155943D02*
X12436443Y-10146419D01*
X12436443Y-10146419D02*
X12455491Y-10136895D01*
X12455491Y-10136895D02*
X12484063Y-10136895D01*
X12484063Y-10136895D02*
X12503110Y-10146419D01*
X12503110Y-10146419D02*
X12512634Y-10165467D01*
X12512634Y-10165467D02*
X12512634Y-10270229D01*
X12512634Y-10165467D02*
X12522158Y-10146419D01*
X12522158Y-10146419D02*
X12541205Y-10136895D01*
X12541205Y-10136895D02*
X12569777Y-10136895D01*
X12569777Y-10136895D02*
X12588824Y-10146419D01*
X12588824Y-10146419D02*
X12598348Y-10165467D01*
X12598348Y-10165467D02*
X12598348Y-10270229D01*
X12693586Y-10270229D02*
X12693586Y-10136895D01*
X12693586Y-10155943D02*
X12703110Y-10146419D01*
X12703110Y-10146419D02*
X12722158Y-10136895D01*
X12722158Y-10136895D02*
X12750729Y-10136895D01*
X12750729Y-10136895D02*
X12769777Y-10146419D01*
X12769777Y-10146419D02*
X12779301Y-10165467D01*
X12779301Y-10165467D02*
X12779301Y-10270229D01*
X12779301Y-10165467D02*
X12788824Y-10146419D01*
X12788824Y-10146419D02*
X12807872Y-10136895D01*
X12807872Y-10136895D02*
X12836443Y-10136895D01*
X12836443Y-10136895D02*
X12855491Y-10146419D01*
X12855491Y-10146419D02*
X12865015Y-10165467D01*
X12865015Y-10165467D02*
X12865015Y-10270229D01*
X13255491Y-10060705D02*
X13084063Y-10317848D01*
X13512634Y-10070229D02*
X13531682Y-10070229D01*
X13531682Y-10070229D02*
X13550729Y-10079753D01*
X13550729Y-10079753D02*
X13560253Y-10089276D01*
X13560253Y-10089276D02*
X13569777Y-10108324D01*
X13569777Y-10108324D02*
X13579301Y-10146419D01*
X13579301Y-10146419D02*
X13579301Y-10194038D01*
X13579301Y-10194038D02*
X13569777Y-10232134D01*
X13569777Y-10232134D02*
X13560253Y-10251181D01*
X13560253Y-10251181D02*
X13550729Y-10260705D01*
X13550729Y-10260705D02*
X13531682Y-10270229D01*
X13531682Y-10270229D02*
X13512634Y-10270229D01*
X13512634Y-10270229D02*
X13493586Y-10260705D01*
X13493586Y-10260705D02*
X13484063Y-10251181D01*
X13484063Y-10251181D02*
X13474539Y-10232134D01*
X13474539Y-10232134D02*
X13465015Y-10194038D01*
X13465015Y-10194038D02*
X13465015Y-10146419D01*
X13465015Y-10146419D02*
X13474539Y-10108324D01*
X13474539Y-10108324D02*
X13484063Y-10089276D01*
X13484063Y-10089276D02*
X13493586Y-10079753D01*
X13493586Y-10079753D02*
X13512634Y-10070229D01*
X13665015Y-10251181D02*
X13674539Y-10260705D01*
X13674539Y-10260705D02*
X13665015Y-10270229D01*
X13665015Y-10270229D02*
X13655491Y-10260705D01*
X13655491Y-10260705D02*
X13665015Y-10251181D01*
X13665015Y-10251181D02*
X13665015Y-10270229D01*
X13798348Y-10070229D02*
X13817396Y-10070229D01*
X13817396Y-10070229D02*
X13836444Y-10079753D01*
X13836444Y-10079753D02*
X13845967Y-10089276D01*
X13845967Y-10089276D02*
X13855491Y-10108324D01*
X13855491Y-10108324D02*
X13865015Y-10146419D01*
X13865015Y-10146419D02*
X13865015Y-10194038D01*
X13865015Y-10194038D02*
X13855491Y-10232134D01*
X13855491Y-10232134D02*
X13845967Y-10251181D01*
X13845967Y-10251181D02*
X13836444Y-10260705D01*
X13836444Y-10260705D02*
X13817396Y-10270229D01*
X13817396Y-10270229D02*
X13798348Y-10270229D01*
X13798348Y-10270229D02*
X13779301Y-10260705D01*
X13779301Y-10260705D02*
X13769777Y-10251181D01*
X13769777Y-10251181D02*
X13760253Y-10232134D01*
X13760253Y-10232134D02*
X13750729Y-10194038D01*
X13750729Y-10194038D02*
X13750729Y-10146419D01*
X13750729Y-10146419D02*
X13760253Y-10108324D01*
X13760253Y-10108324D02*
X13769777Y-10089276D01*
X13769777Y-10089276D02*
X13779301Y-10079753D01*
X13779301Y-10079753D02*
X13798348Y-10070229D01*
X13979301Y-10155943D02*
X13960253Y-10146419D01*
X13960253Y-10146419D02*
X13950729Y-10136895D01*
X13950729Y-10136895D02*
X13941206Y-10117848D01*
X13941206Y-10117848D02*
X13941206Y-10108324D01*
X13941206Y-10108324D02*
X13950729Y-10089276D01*
X13950729Y-10089276D02*
X13960253Y-10079753D01*
X13960253Y-10079753D02*
X13979301Y-10070229D01*
X13979301Y-10070229D02*
X14017396Y-10070229D01*
X14017396Y-10070229D02*
X14036444Y-10079753D01*
X14036444Y-10079753D02*
X14045967Y-10089276D01*
X14045967Y-10089276D02*
X14055491Y-10108324D01*
X14055491Y-10108324D02*
X14055491Y-10117848D01*
X14055491Y-10117848D02*
X14045967Y-10136895D01*
X14045967Y-10136895D02*
X14036444Y-10146419D01*
X14036444Y-10146419D02*
X14017396Y-10155943D01*
X14017396Y-10155943D02*
X13979301Y-10155943D01*
X13979301Y-10155943D02*
X13960253Y-10165467D01*
X13960253Y-10165467D02*
X13950729Y-10174991D01*
X13950729Y-10174991D02*
X13941206Y-10194038D01*
X13941206Y-10194038D02*
X13941206Y-10232134D01*
X13941206Y-10232134D02*
X13950729Y-10251181D01*
X13950729Y-10251181D02*
X13960253Y-10260705D01*
X13960253Y-10260705D02*
X13979301Y-10270229D01*
X13979301Y-10270229D02*
X14017396Y-10270229D01*
X14017396Y-10270229D02*
X14036444Y-10260705D01*
X14036444Y-10260705D02*
X14045967Y-10251181D01*
X14045967Y-10251181D02*
X14055491Y-10232134D01*
X14055491Y-10232134D02*
X14055491Y-10194038D01*
X14055491Y-10194038D02*
X14045967Y-10174991D01*
X14045967Y-10174991D02*
X14036444Y-10165467D01*
X14036444Y-10165467D02*
X14017396Y-10155943D01*
X14131682Y-10089276D02*
X14141206Y-10079753D01*
X14141206Y-10079753D02*
X14160253Y-10070229D01*
X14160253Y-10070229D02*
X14207872Y-10070229D01*
X14207872Y-10070229D02*
X14226920Y-10079753D01*
X14226920Y-10079753D02*
X14236444Y-10089276D01*
X14236444Y-10089276D02*
X14245967Y-10108324D01*
X14245967Y-10108324D02*
X14245967Y-10127372D01*
X14245967Y-10127372D02*
X14236444Y-10155943D01*
X14236444Y-10155943D02*
X14122158Y-10270229D01*
X14122158Y-10270229D02*
X14245967Y-10270229D01*
X14312634Y-10070229D02*
X14445967Y-10070229D01*
X14445967Y-10070229D02*
X14360253Y-10270229D01*
X14512634Y-10070229D02*
X14512634Y-10108324D01*
X14588825Y-10070229D02*
X14588825Y-10108324D01*
X14884063Y-10346419D02*
X14874539Y-10336895D01*
X14874539Y-10336895D02*
X14855491Y-10308324D01*
X14855491Y-10308324D02*
X14845968Y-10289276D01*
X14845968Y-10289276D02*
X14836444Y-10260705D01*
X14836444Y-10260705D02*
X14826920Y-10213086D01*
X14826920Y-10213086D02*
X14826920Y-10174991D01*
X14826920Y-10174991D02*
X14836444Y-10127372D01*
X14836444Y-10127372D02*
X14845968Y-10098800D01*
X14845968Y-10098800D02*
X14855491Y-10079753D01*
X14855491Y-10079753D02*
X14874539Y-10051181D01*
X14874539Y-10051181D02*
X14884063Y-10041657D01*
X15045968Y-10136895D02*
X15045968Y-10270229D01*
X14998348Y-10060705D02*
X14950729Y-10203562D01*
X14950729Y-10203562D02*
X15074539Y-10203562D01*
X15188825Y-10070229D02*
X15207872Y-10070229D01*
X15207872Y-10070229D02*
X15226920Y-10079753D01*
X15226920Y-10079753D02*
X15236444Y-10089276D01*
X15236444Y-10089276D02*
X15245968Y-10108324D01*
X15245968Y-10108324D02*
X15255491Y-10146419D01*
X15255491Y-10146419D02*
X15255491Y-10194038D01*
X15255491Y-10194038D02*
X15245968Y-10232134D01*
X15245968Y-10232134D02*
X15236444Y-10251181D01*
X15236444Y-10251181D02*
X15226920Y-10260705D01*
X15226920Y-10260705D02*
X15207872Y-10270229D01*
X15207872Y-10270229D02*
X15188825Y-10270229D01*
X15188825Y-10270229D02*
X15169777Y-10260705D01*
X15169777Y-10260705D02*
X15160253Y-10251181D01*
X15160253Y-10251181D02*
X15150729Y-10232134D01*
X15150729Y-10232134D02*
X15141206Y-10194038D01*
X15141206Y-10194038D02*
X15141206Y-10146419D01*
X15141206Y-10146419D02*
X15150729Y-10108324D01*
X15150729Y-10108324D02*
X15160253Y-10089276D01*
X15160253Y-10089276D02*
X15169777Y-10079753D01*
X15169777Y-10079753D02*
X15188825Y-10070229D01*
X15493587Y-10270229D02*
X15493587Y-10070229D01*
X15579301Y-10270229D02*
X15579301Y-10165467D01*
X15579301Y-10165467D02*
X15569777Y-10146419D01*
X15569777Y-10146419D02*
X15550730Y-10136895D01*
X15550730Y-10136895D02*
X15522158Y-10136895D01*
X15522158Y-10136895D02*
X15503110Y-10146419D01*
X15503110Y-10146419D02*
X15493587Y-10155943D01*
X15703110Y-10270229D02*
X15684063Y-10260705D01*
X15684063Y-10260705D02*
X15674539Y-10251181D01*
X15674539Y-10251181D02*
X15665015Y-10232134D01*
X15665015Y-10232134D02*
X15665015Y-10174991D01*
X15665015Y-10174991D02*
X15674539Y-10155943D01*
X15674539Y-10155943D02*
X15684063Y-10146419D01*
X15684063Y-10146419D02*
X15703110Y-10136895D01*
X15703110Y-10136895D02*
X15731682Y-10136895D01*
X15731682Y-10136895D02*
X15750730Y-10146419D01*
X15750730Y-10146419D02*
X15760253Y-10155943D01*
X15760253Y-10155943D02*
X15769777Y-10174991D01*
X15769777Y-10174991D02*
X15769777Y-10232134D01*
X15769777Y-10232134D02*
X15760253Y-10251181D01*
X15760253Y-10251181D02*
X15750730Y-10260705D01*
X15750730Y-10260705D02*
X15731682Y-10270229D01*
X15731682Y-10270229D02*
X15703110Y-10270229D01*
X15884063Y-10270229D02*
X15865015Y-10260705D01*
X15865015Y-10260705D02*
X15855491Y-10241657D01*
X15855491Y-10241657D02*
X15855491Y-10070229D01*
X16036444Y-10260705D02*
X16017396Y-10270229D01*
X16017396Y-10270229D02*
X15979301Y-10270229D01*
X15979301Y-10270229D02*
X15960253Y-10260705D01*
X15960253Y-10260705D02*
X15950730Y-10241657D01*
X15950730Y-10241657D02*
X15950730Y-10165467D01*
X15950730Y-10165467D02*
X15960253Y-10146419D01*
X15960253Y-10146419D02*
X15979301Y-10136895D01*
X15979301Y-10136895D02*
X16017396Y-10136895D01*
X16017396Y-10136895D02*
X16036444Y-10146419D01*
X16036444Y-10146419D02*
X16045968Y-10165467D01*
X16045968Y-10165467D02*
X16045968Y-10184515D01*
X16045968Y-10184515D02*
X15950730Y-10203562D01*
X16122158Y-10260705D02*
X16141206Y-10270229D01*
X16141206Y-10270229D02*
X16179301Y-10270229D01*
X16179301Y-10270229D02*
X16198349Y-10260705D01*
X16198349Y-10260705D02*
X16207872Y-10241657D01*
X16207872Y-10241657D02*
X16207872Y-10232134D01*
X16207872Y-10232134D02*
X16198349Y-10213086D01*
X16198349Y-10213086D02*
X16179301Y-10203562D01*
X16179301Y-10203562D02*
X16150730Y-10203562D01*
X16150730Y-10203562D02*
X16131682Y-10194038D01*
X16131682Y-10194038D02*
X16122158Y-10174991D01*
X16122158Y-10174991D02*
X16122158Y-10165467D01*
X16122158Y-10165467D02*
X16131682Y-10146419D01*
X16131682Y-10146419D02*
X16150730Y-10136895D01*
X16150730Y-10136895D02*
X16179301Y-10136895D01*
X16179301Y-10136895D02*
X16198349Y-10146419D01*
X16274539Y-10346419D02*
X16284063Y-10336895D01*
X16284063Y-10336895D02*
X16303111Y-10308324D01*
X16303111Y-10308324D02*
X16312634Y-10289276D01*
X16312634Y-10289276D02*
X16322158Y-10260705D01*
X16322158Y-10260705D02*
X16331682Y-10213086D01*
X16331682Y-10213086D02*
X16331682Y-10174991D01*
X16331682Y-10174991D02*
X16322158Y-10127372D01*
X16322158Y-10127372D02*
X16312634Y-10098800D01*
X16312634Y-10098800D02*
X16303111Y-10079753D01*
X16303111Y-10079753D02*
X16284063Y-10051181D01*
X16284063Y-10051181D02*
X16274539Y-10041657D01*
X16636444Y-10346419D02*
X16626920Y-10336895D01*
X16626920Y-10336895D02*
X16607872Y-10308324D01*
X16607872Y-10308324D02*
X16598349Y-10289276D01*
X16598349Y-10289276D02*
X16588825Y-10260705D01*
X16588825Y-10260705D02*
X16579301Y-10213086D01*
X16579301Y-10213086D02*
X16579301Y-10174991D01*
X16579301Y-10174991D02*
X16588825Y-10127372D01*
X16588825Y-10127372D02*
X16598349Y-10098800D01*
X16598349Y-10098800D02*
X16607872Y-10079753D01*
X16607872Y-10079753D02*
X16626920Y-10051181D01*
X16626920Y-10051181D02*
X16636444Y-10041657D01*
X16712634Y-10136895D02*
X16712634Y-10270229D01*
X16712634Y-10155943D02*
X16722158Y-10146419D01*
X16722158Y-10146419D02*
X16741206Y-10136895D01*
X16741206Y-10136895D02*
X16769777Y-10136895D01*
X16769777Y-10136895D02*
X16788825Y-10146419D01*
X16788825Y-10146419D02*
X16798349Y-10165467D01*
X16798349Y-10165467D02*
X16798349Y-10270229D01*
X16922158Y-10270229D02*
X16903111Y-10260705D01*
X16903111Y-10260705D02*
X16893587Y-10251181D01*
X16893587Y-10251181D02*
X16884063Y-10232134D01*
X16884063Y-10232134D02*
X16884063Y-10174991D01*
X16884063Y-10174991D02*
X16893587Y-10155943D01*
X16893587Y-10155943D02*
X16903111Y-10146419D01*
X16903111Y-10146419D02*
X16922158Y-10136895D01*
X16922158Y-10136895D02*
X16950730Y-10136895D01*
X16950730Y-10136895D02*
X16969777Y-10146419D01*
X16969777Y-10146419D02*
X16979301Y-10155943D01*
X16979301Y-10155943D02*
X16988825Y-10174991D01*
X16988825Y-10174991D02*
X16988825Y-10232134D01*
X16988825Y-10232134D02*
X16979301Y-10251181D01*
X16979301Y-10251181D02*
X16969777Y-10260705D01*
X16969777Y-10260705D02*
X16950730Y-10270229D01*
X16950730Y-10270229D02*
X16922158Y-10270229D01*
X17045968Y-10136895D02*
X17122158Y-10136895D01*
X17074539Y-10070229D02*
X17074539Y-10241657D01*
X17074539Y-10241657D02*
X17084063Y-10260705D01*
X17084063Y-10260705D02*
X17103111Y-10270229D01*
X17103111Y-10270229D02*
X17122158Y-10270229D01*
X17341206Y-10136895D02*
X17341206Y-10336895D01*
X17341206Y-10146419D02*
X17360254Y-10136895D01*
X17360254Y-10136895D02*
X17398349Y-10136895D01*
X17398349Y-10136895D02*
X17417396Y-10146419D01*
X17417396Y-10146419D02*
X17426920Y-10155943D01*
X17426920Y-10155943D02*
X17436444Y-10174991D01*
X17436444Y-10174991D02*
X17436444Y-10232134D01*
X17436444Y-10232134D02*
X17426920Y-10251181D01*
X17426920Y-10251181D02*
X17417396Y-10260705D01*
X17417396Y-10260705D02*
X17398349Y-10270229D01*
X17398349Y-10270229D02*
X17360254Y-10270229D01*
X17360254Y-10270229D02*
X17341206Y-10260705D01*
X17550730Y-10270229D02*
X17531682Y-10260705D01*
X17531682Y-10260705D02*
X17522158Y-10241657D01*
X17522158Y-10241657D02*
X17522158Y-10070229D01*
X17712635Y-10270229D02*
X17712635Y-10165467D01*
X17712635Y-10165467D02*
X17703111Y-10146419D01*
X17703111Y-10146419D02*
X17684063Y-10136895D01*
X17684063Y-10136895D02*
X17645968Y-10136895D01*
X17645968Y-10136895D02*
X17626920Y-10146419D01*
X17712635Y-10260705D02*
X17693587Y-10270229D01*
X17693587Y-10270229D02*
X17645968Y-10270229D01*
X17645968Y-10270229D02*
X17626920Y-10260705D01*
X17626920Y-10260705D02*
X17617396Y-10241657D01*
X17617396Y-10241657D02*
X17617396Y-10222610D01*
X17617396Y-10222610D02*
X17626920Y-10203562D01*
X17626920Y-10203562D02*
X17645968Y-10194038D01*
X17645968Y-10194038D02*
X17693587Y-10194038D01*
X17693587Y-10194038D02*
X17712635Y-10184515D01*
X17779301Y-10136895D02*
X17855492Y-10136895D01*
X17807873Y-10070229D02*
X17807873Y-10241657D01*
X17807873Y-10241657D02*
X17817396Y-10260705D01*
X17817396Y-10260705D02*
X17836444Y-10270229D01*
X17836444Y-10270229D02*
X17855492Y-10270229D01*
X17998349Y-10260705D02*
X17979301Y-10270229D01*
X17979301Y-10270229D02*
X17941206Y-10270229D01*
X17941206Y-10270229D02*
X17922158Y-10260705D01*
X17922158Y-10260705D02*
X17912635Y-10241657D01*
X17912635Y-10241657D02*
X17912635Y-10165467D01*
X17912635Y-10165467D02*
X17922158Y-10146419D01*
X17922158Y-10146419D02*
X17941206Y-10136895D01*
X17941206Y-10136895D02*
X17979301Y-10136895D01*
X17979301Y-10136895D02*
X17998349Y-10146419D01*
X17998349Y-10146419D02*
X18007873Y-10165467D01*
X18007873Y-10165467D02*
X18007873Y-10184515D01*
X18007873Y-10184515D02*
X17912635Y-10203562D01*
X18179301Y-10270229D02*
X18179301Y-10070229D01*
X18179301Y-10260705D02*
X18160254Y-10270229D01*
X18160254Y-10270229D02*
X18122158Y-10270229D01*
X18122158Y-10270229D02*
X18103111Y-10260705D01*
X18103111Y-10260705D02*
X18093587Y-10251181D01*
X18093587Y-10251181D02*
X18084063Y-10232134D01*
X18084063Y-10232134D02*
X18084063Y-10174991D01*
X18084063Y-10174991D02*
X18093587Y-10155943D01*
X18093587Y-10155943D02*
X18103111Y-10146419D01*
X18103111Y-10146419D02*
X18122158Y-10136895D01*
X18122158Y-10136895D02*
X18160254Y-10136895D01*
X18160254Y-10136895D02*
X18179301Y-10146419D01*
X18255492Y-10346419D02*
X18265016Y-10336895D01*
X18265016Y-10336895D02*
X18284063Y-10308324D01*
X18284063Y-10308324D02*
X18293587Y-10289276D01*
X18293587Y-10289276D02*
X18303111Y-10260705D01*
X18303111Y-10260705D02*
X18312635Y-10213086D01*
X18312635Y-10213086D02*
X18312635Y-10174991D01*
X18312635Y-10174991D02*
X18303111Y-10127372D01*
X18303111Y-10127372D02*
X18293587Y-10098800D01*
X18293587Y-10098800D02*
X18284063Y-10079753D01*
X18284063Y-10079753D02*
X18265016Y-10051181D01*
X18265016Y-10051181D02*
X18255492Y-10041657D01*
M02*
