G04 #@! TF.GenerationSoftware,KiCad,Pcbnew,9.0.1*
G04 #@! TF.CreationDate,2025-06-29T19:09:30+12:00*
G04 #@! TF.ProjectId,pdp-11-colour,7064702d-3131-42d6-936f-6c6f75722e6b,rev?*
G04 #@! TF.SameCoordinates,Original*
G04 #@! TF.FileFunction,Copper,L1,Top*
G04 #@! TF.FilePolarity,Positive*
%FSLAX46Y46*%
G04 Gerber Fmt 4.6, Leading zero omitted, Abs format (unit mm)*
G04 Created by KiCad (PCBNEW 9.0.1) date 2025-06-29 19:09:30*
%MOMM*%
%LPD*%
G01*
G04 APERTURE LIST*
G04 #@! TA.AperFunction,ViaPad*
%ADD10C,0.600000*%
G04 #@! TD*
G04 APERTURE END LIST*
D10*
X194750000Y-93050000D03*
X211410000Y-92990000D03*
X160900000Y-93675000D03*
X186944000Y-53340000D03*
X169320000Y-92890000D03*
X174430130Y-52907550D03*
X126700000Y-94550000D03*
X144950000Y-94550000D03*
X187470000Y-92540000D03*
X162798472Y-53308550D03*
X171900000Y-92900000D03*
X131760000Y-92870000D03*
X180225343Y-93159635D03*
X207125000Y-92575000D03*
X151400000Y-93325000D03*
X141075000Y-54225000D03*
X160750000Y-53308550D03*
X141425000Y-93675000D03*
X166300000Y-53875000D03*
X155475000Y-92600000D03*
X114300000Y-80518000D03*
X185287500Y-55626000D03*
X179832000Y-55880000D03*
X171107135Y-53308550D03*
X180850000Y-53650000D03*
X149550000Y-93350000D03*
X179832000Y-55372000D03*
X136150000Y-53600000D03*
X181350000Y-55626000D03*
X212315000Y-64825995D03*
X176075000Y-53507550D03*
X169048527Y-53875000D03*
X212315000Y-65625998D03*
X172675000Y-53575000D03*
X168200000Y-53875000D03*
X212275000Y-66425000D03*
X162050000Y-53675000D03*
X159025000Y-53308550D03*
X155750000Y-53709550D03*
X210825000Y-73277071D03*
X152650000Y-92975000D03*
X156450000Y-94161450D03*
X144275000Y-93125000D03*
X212175000Y-71882000D03*
X158025000Y-94562450D03*
X158500000Y-92850000D03*
X211575000Y-72677071D03*
X183861639Y-92682393D03*
X211650000Y-57150000D03*
X193294000Y-52907550D03*
X182372000Y-92710000D03*
X211650000Y-59182000D03*
X178600000Y-92958450D03*
X184658000Y-92758635D03*
X211650000Y-58166000D03*
X191770000Y-53594000D03*
X115316000Y-89154000D03*
X189830000Y-53594000D03*
X115316000Y-84074000D03*
X211582000Y-56134000D03*
X118110000Y-93726000D03*
X118110000Y-92925997D03*
X114300000Y-79248000D03*
X192570003Y-53594000D03*
X115316000Y-86614000D03*
X190754000Y-53594000D03*
M02*
