M48
; DRILL file {KiCad 9.0.1} date 2025-06-29T19:09:28+1200
; FORMAT={-:-/ absolute / metric / decimal}
; #@! TF.CreationDate,2025-06-29T19:09:28+12:00
; #@! TF.GenerationSoftware,Kicad,Pcbnew,9.0.1
; #@! TF.FileFunction,NonPlated,1,4,NPTH
FMAT,2
METRIC
; #@! TA.AperFunction,NonPlated,NPTH,ComponentDrill
T1C2.100
%
G90
G05
T1
X121.61Y-70.14
X124.68Y-70.14
X127.78Y-70.14
X127.79Y-79.29
X130.85Y-70.14
X130.85Y-79.29
X133.92Y-70.14
X133.93Y-79.29
X137.01Y-70.14
X137.01Y-79.29
X140.06Y-79.29
X140.07Y-70.14
X143.14Y-70.14
X143.14Y-79.29
X146.21Y-70.14
X146.21Y-79.29
X149.3Y-70.14
X149.3Y-79.29
X152.4Y-79.29
X152.42Y-70.14
X155.52Y-70.14
X155.52Y-79.29
X158.55Y-70.14
X158.55Y-79.29
X161.6Y-70.14
X161.61Y-79.29
X164.66Y-79.29
X164.67Y-70.14
X167.72Y-70.14
X167.72Y-79.29
X170.81Y-70.14
X170.81Y-79.29
X173.9Y-70.14
X173.9Y-79.29
X185.514Y-76.19
X185.514Y-79.5
X192.834Y-76.19
X192.834Y-79.5
X200.404Y-76.19
X200.404Y-79.5
M30
